<?xml version="1.0" encoding="utf-8" standalone="no"?>
<!DOCTYPE svg PUBLIC "-//W3C//DTD SVG 1.1//EN"
  "http://www.w3.org/Graphics/SVG/1.1/DTD/svg11.dtd">
<!-- Created with matplotlib (https://matplotlib.org/) -->
<svg height="569.3519pt" version="1.1" viewBox="0 0 580.51458 569.3519" width="580.51458pt" xmlns="http://www.w3.org/2000/svg" xmlns:xlink="http://www.w3.org/1999/xlink">
 <defs>
  <style type="text/css">
*{stroke-linecap:butt;stroke-linejoin:round;}
  </style>
 </defs>
 <g id="figure_1">
  <g id="patch_1">
   <path d="M 0 569.3519 
L 580.51458 569.3519 
L 580.51458 0 
L 0 0 
z
" style="fill:#ffffff;"/>
  </g>
  <g id="axes_1">
   <g id="patch_2">
    <path d="M 71.6191 231.908147 
L 573.31458 231.908147 
L 573.31458 25.965375 
L 71.6191 25.965375 
z
" style="fill:#ffffff;"/>
   </g>
   <g id="matplotlib.axis_1">
    <g id="xtick_1">
     <g id="line2d_1">
      <defs>
       <path d="M 0 0 
L 0 3.5 
" id="m1e84e9595e" style="stroke:#000000;stroke-width:0.8;"/>
      </defs>
      <g>
       <use style="stroke:#000000;stroke-width:0.8;" x="84.436138" xlink:href="#m1e84e9595e" y="231.908147"/>
      </g>
     </g>
     <g id="text_1">
      <!-- 2019-01-07 -->
      <defs>
       <path d="M 19.1875 8.296875 
L 53.609375 8.296875 
L 53.609375 0 
L 7.328125 0 
L 7.328125 8.296875 
Q 12.9375 14.109375 22.625 23.890625 
Q 32.328125 33.6875 34.8125 36.53125 
Q 39.546875 41.84375 41.421875 45.53125 
Q 43.3125 49.21875 43.3125 52.78125 
Q 43.3125 58.59375 39.234375 62.25 
Q 35.15625 65.921875 28.609375 65.921875 
Q 23.96875 65.921875 18.8125 64.3125 
Q 13.671875 62.703125 7.8125 59.421875 
L 7.8125 69.390625 
Q 13.765625 71.78125 18.9375 73 
Q 24.125 74.21875 28.421875 74.21875 
Q 39.75 74.21875 46.484375 68.546875 
Q 53.21875 62.890625 53.21875 53.421875 
Q 53.21875 48.921875 51.53125 44.890625 
Q 49.859375 40.875 45.40625 35.40625 
Q 44.1875 33.984375 37.640625 27.21875 
Q 31.109375 20.453125 19.1875 8.296875 
z
" id="DejaVuSans-50"/>
       <path d="M 31.78125 66.40625 
Q 24.171875 66.40625 20.328125 58.90625 
Q 16.5 51.421875 16.5 36.375 
Q 16.5 21.390625 20.328125 13.890625 
Q 24.171875 6.390625 31.78125 6.390625 
Q 39.453125 6.390625 43.28125 13.890625 
Q 47.125 21.390625 47.125 36.375 
Q 47.125 51.421875 43.28125 58.90625 
Q 39.453125 66.40625 31.78125 66.40625 
z
M 31.78125 74.21875 
Q 44.046875 74.21875 50.515625 64.515625 
Q 56.984375 54.828125 56.984375 36.375 
Q 56.984375 17.96875 50.515625 8.265625 
Q 44.046875 -1.421875 31.78125 -1.421875 
Q 19.53125 -1.421875 13.0625 8.265625 
Q 6.59375 17.96875 6.59375 36.375 
Q 6.59375 54.828125 13.0625 64.515625 
Q 19.53125 74.21875 31.78125 74.21875 
z
" id="DejaVuSans-48"/>
       <path d="M 12.40625 8.296875 
L 28.515625 8.296875 
L 28.515625 63.921875 
L 10.984375 60.40625 
L 10.984375 69.390625 
L 28.421875 72.90625 
L 38.28125 72.90625 
L 38.28125 8.296875 
L 54.390625 8.296875 
L 54.390625 0 
L 12.40625 0 
z
" id="DejaVuSans-49"/>
       <path d="M 10.984375 1.515625 
L 10.984375 10.5 
Q 14.703125 8.734375 18.5 7.8125 
Q 22.3125 6.890625 25.984375 6.890625 
Q 35.75 6.890625 40.890625 13.453125 
Q 46.046875 20.015625 46.78125 33.40625 
Q 43.953125 29.203125 39.59375 26.953125 
Q 35.25 24.703125 29.984375 24.703125 
Q 19.046875 24.703125 12.671875 31.3125 
Q 6.296875 37.9375 6.296875 49.421875 
Q 6.296875 60.640625 12.9375 67.421875 
Q 19.578125 74.21875 30.609375 74.21875 
Q 43.265625 74.21875 49.921875 64.515625 
Q 56.59375 54.828125 56.59375 36.375 
Q 56.59375 19.140625 48.40625 8.859375 
Q 40.234375 -1.421875 26.421875 -1.421875 
Q 22.703125 -1.421875 18.890625 -0.6875 
Q 15.09375 0.046875 10.984375 1.515625 
z
M 30.609375 32.421875 
Q 37.25 32.421875 41.125 36.953125 
Q 45.015625 41.5 45.015625 49.421875 
Q 45.015625 57.28125 41.125 61.84375 
Q 37.25 66.40625 30.609375 66.40625 
Q 23.96875 66.40625 20.09375 61.84375 
Q 16.21875 57.28125 16.21875 49.421875 
Q 16.21875 41.5 20.09375 36.953125 
Q 23.96875 32.421875 30.609375 32.421875 
z
" id="DejaVuSans-57"/>
       <path d="M 4.890625 31.390625 
L 31.203125 31.390625 
L 31.203125 23.390625 
L 4.890625 23.390625 
z
" id="DejaVuSans-45"/>
       <path d="M 8.203125 72.90625 
L 55.078125 72.90625 
L 55.078125 68.703125 
L 28.609375 0 
L 18.3125 0 
L 43.21875 64.59375 
L 8.203125 64.59375 
z
" id="DejaVuSans-55"/>
      </defs>
      <g transform="translate(12.518906 288.8017)rotate(-30)scale(0.14 -0.14)">
       <use xlink:href="#DejaVuSans-50"/>
       <use x="63.623047" xlink:href="#DejaVuSans-48"/>
       <use x="127.246094" xlink:href="#DejaVuSans-49"/>
       <use x="190.869141" xlink:href="#DejaVuSans-57"/>
       <use x="254.492188" xlink:href="#DejaVuSans-45"/>
       <use x="290.576172" xlink:href="#DejaVuSans-48"/>
       <use x="354.199219" xlink:href="#DejaVuSans-49"/>
       <use x="417.822266" xlink:href="#DejaVuSans-45"/>
       <use x="453.90625" xlink:href="#DejaVuSans-48"/>
       <use x="517.529297" xlink:href="#DejaVuSans-55"/>
      </g>
     </g>
    </g>
    <g id="xtick_2">
     <g id="line2d_2">
      <g>
       <use style="stroke:#000000;stroke-width:0.8;" x="184.30916" xlink:href="#m1e84e9595e" y="231.908147"/>
      </g>
     </g>
     <g id="text_2">
      <!-- 2019-02-20 -->
      <g transform="translate(112.391928 288.8017)rotate(-30)scale(0.14 -0.14)">
       <use xlink:href="#DejaVuSans-50"/>
       <use x="63.623047" xlink:href="#DejaVuSans-48"/>
       <use x="127.246094" xlink:href="#DejaVuSans-49"/>
       <use x="190.869141" xlink:href="#DejaVuSans-57"/>
       <use x="254.492188" xlink:href="#DejaVuSans-45"/>
       <use x="290.576172" xlink:href="#DejaVuSans-48"/>
       <use x="354.199219" xlink:href="#DejaVuSans-50"/>
       <use x="417.822266" xlink:href="#DejaVuSans-45"/>
       <use x="453.90625" xlink:href="#DejaVuSans-50"/>
       <use x="517.529297" xlink:href="#DejaVuSans-48"/>
      </g>
     </g>
    </g>
    <g id="xtick_3">
     <g id="line2d_3">
      <g>
       <use style="stroke:#000000;stroke-width:0.8;" x="284.182182" xlink:href="#m1e84e9595e" y="231.908147"/>
      </g>
     </g>
     <g id="text_3">
      <!-- 2019-04-03 -->
      <defs>
       <path d="M 37.796875 64.3125 
L 12.890625 25.390625 
L 37.796875 25.390625 
z
M 35.203125 72.90625 
L 47.609375 72.90625 
L 47.609375 25.390625 
L 58.015625 25.390625 
L 58.015625 17.1875 
L 47.609375 17.1875 
L 47.609375 0 
L 37.796875 0 
L 37.796875 17.1875 
L 4.890625 17.1875 
L 4.890625 26.703125 
z
" id="DejaVuSans-52"/>
       <path d="M 40.578125 39.3125 
Q 47.65625 37.796875 51.625 33 
Q 55.609375 28.21875 55.609375 21.1875 
Q 55.609375 10.40625 48.1875 4.484375 
Q 40.765625 -1.421875 27.09375 -1.421875 
Q 22.515625 -1.421875 17.65625 -0.515625 
Q 12.796875 0.390625 7.625 2.203125 
L 7.625 11.71875 
Q 11.71875 9.328125 16.59375 8.109375 
Q 21.484375 6.890625 26.8125 6.890625 
Q 36.078125 6.890625 40.9375 10.546875 
Q 45.796875 14.203125 45.796875 21.1875 
Q 45.796875 27.640625 41.28125 31.265625 
Q 36.765625 34.90625 28.71875 34.90625 
L 20.21875 34.90625 
L 20.21875 43.015625 
L 29.109375 43.015625 
Q 36.375 43.015625 40.234375 45.921875 
Q 44.09375 48.828125 44.09375 54.296875 
Q 44.09375 59.90625 40.109375 62.90625 
Q 36.140625 65.921875 28.71875 65.921875 
Q 24.65625 65.921875 20.015625 65.03125 
Q 15.375 64.15625 9.8125 62.3125 
L 9.8125 71.09375 
Q 15.4375 72.65625 20.34375 73.4375 
Q 25.25 74.21875 29.59375 74.21875 
Q 40.828125 74.21875 47.359375 69.109375 
Q 53.90625 64.015625 53.90625 55.328125 
Q 53.90625 49.265625 50.4375 45.09375 
Q 46.96875 40.921875 40.578125 39.3125 
z
" id="DejaVuSans-51"/>
      </defs>
      <g transform="translate(212.26495 288.8017)rotate(-30)scale(0.14 -0.14)">
       <use xlink:href="#DejaVuSans-50"/>
       <use x="63.623047" xlink:href="#DejaVuSans-48"/>
       <use x="127.246094" xlink:href="#DejaVuSans-49"/>
       <use x="190.869141" xlink:href="#DejaVuSans-57"/>
       <use x="254.492188" xlink:href="#DejaVuSans-45"/>
       <use x="290.576172" xlink:href="#DejaVuSans-48"/>
       <use x="354.199219" xlink:href="#DejaVuSans-52"/>
       <use x="417.822266" xlink:href="#DejaVuSans-45"/>
       <use x="453.90625" xlink:href="#DejaVuSans-48"/>
       <use x="517.529297" xlink:href="#DejaVuSans-51"/>
      </g>
     </g>
    </g>
    <g id="xtick_4">
     <g id="line2d_4">
      <g>
       <use style="stroke:#000000;stroke-width:0.8;" x="384.055203" xlink:href="#m1e84e9595e" y="231.908147"/>
      </g>
     </g>
     <g id="text_4">
      <!-- 2019-05-16 -->
      <defs>
       <path d="M 10.796875 72.90625 
L 49.515625 72.90625 
L 49.515625 64.59375 
L 19.828125 64.59375 
L 19.828125 46.734375 
Q 21.96875 47.46875 24.109375 47.828125 
Q 26.265625 48.1875 28.421875 48.1875 
Q 40.625 48.1875 47.75 41.5 
Q 54.890625 34.8125 54.890625 23.390625 
Q 54.890625 11.625 47.5625 5.09375 
Q 40.234375 -1.421875 26.90625 -1.421875 
Q 22.3125 -1.421875 17.546875 -0.640625 
Q 12.796875 0.140625 7.71875 1.703125 
L 7.71875 11.625 
Q 12.109375 9.234375 16.796875 8.0625 
Q 21.484375 6.890625 26.703125 6.890625 
Q 35.15625 6.890625 40.078125 11.328125 
Q 45.015625 15.765625 45.015625 23.390625 
Q 45.015625 31 40.078125 35.4375 
Q 35.15625 39.890625 26.703125 39.890625 
Q 22.75 39.890625 18.8125 39.015625 
Q 14.890625 38.140625 10.796875 36.28125 
z
" id="DejaVuSans-53"/>
       <path d="M 33.015625 40.375 
Q 26.375 40.375 22.484375 35.828125 
Q 18.609375 31.296875 18.609375 23.390625 
Q 18.609375 15.53125 22.484375 10.953125 
Q 26.375 6.390625 33.015625 6.390625 
Q 39.65625 6.390625 43.53125 10.953125 
Q 47.40625 15.53125 47.40625 23.390625 
Q 47.40625 31.296875 43.53125 35.828125 
Q 39.65625 40.375 33.015625 40.375 
z
M 52.59375 71.296875 
L 52.59375 62.3125 
Q 48.875 64.0625 45.09375 64.984375 
Q 41.3125 65.921875 37.59375 65.921875 
Q 27.828125 65.921875 22.671875 59.328125 
Q 17.53125 52.734375 16.796875 39.40625 
Q 19.671875 43.65625 24.015625 45.921875 
Q 28.375 48.1875 33.59375 48.1875 
Q 44.578125 48.1875 50.953125 41.515625 
Q 57.328125 34.859375 57.328125 23.390625 
Q 57.328125 12.15625 50.6875 5.359375 
Q 44.046875 -1.421875 33.015625 -1.421875 
Q 20.359375 -1.421875 13.671875 8.265625 
Q 6.984375 17.96875 6.984375 36.375 
Q 6.984375 53.65625 15.1875 63.9375 
Q 23.390625 74.21875 37.203125 74.21875 
Q 40.921875 74.21875 44.703125 73.484375 
Q 48.484375 72.75 52.59375 71.296875 
z
" id="DejaVuSans-54"/>
      </defs>
      <g transform="translate(312.137972 288.8017)rotate(-30)scale(0.14 -0.14)">
       <use xlink:href="#DejaVuSans-50"/>
       <use x="63.623047" xlink:href="#DejaVuSans-48"/>
       <use x="127.246094" xlink:href="#DejaVuSans-49"/>
       <use x="190.869141" xlink:href="#DejaVuSans-57"/>
       <use x="254.492188" xlink:href="#DejaVuSans-45"/>
       <use x="290.576172" xlink:href="#DejaVuSans-48"/>
       <use x="354.199219" xlink:href="#DejaVuSans-53"/>
       <use x="417.822266" xlink:href="#DejaVuSans-45"/>
       <use x="453.90625" xlink:href="#DejaVuSans-49"/>
       <use x="517.529297" xlink:href="#DejaVuSans-54"/>
      </g>
     </g>
    </g>
    <g id="xtick_5">
     <g id="line2d_5">
      <g>
       <use style="stroke:#000000;stroke-width:0.8;" x="483.928225" xlink:href="#m1e84e9595e" y="231.908147"/>
      </g>
     </g>
     <g id="text_5">
      <!-- 2019-06-28 -->
      <defs>
       <path d="M 31.78125 34.625 
Q 24.75 34.625 20.71875 30.859375 
Q 16.703125 27.09375 16.703125 20.515625 
Q 16.703125 13.921875 20.71875 10.15625 
Q 24.75 6.390625 31.78125 6.390625 
Q 38.8125 6.390625 42.859375 10.171875 
Q 46.921875 13.96875 46.921875 20.515625 
Q 46.921875 27.09375 42.890625 30.859375 
Q 38.875 34.625 31.78125 34.625 
z
M 21.921875 38.8125 
Q 15.578125 40.375 12.03125 44.71875 
Q 8.5 49.078125 8.5 55.328125 
Q 8.5 64.0625 14.71875 69.140625 
Q 20.953125 74.21875 31.78125 74.21875 
Q 42.671875 74.21875 48.875 69.140625 
Q 55.078125 64.0625 55.078125 55.328125 
Q 55.078125 49.078125 51.53125 44.71875 
Q 48 40.375 41.703125 38.8125 
Q 48.828125 37.15625 52.796875 32.3125 
Q 56.78125 27.484375 56.78125 20.515625 
Q 56.78125 9.90625 50.3125 4.234375 
Q 43.84375 -1.421875 31.78125 -1.421875 
Q 19.734375 -1.421875 13.25 4.234375 
Q 6.78125 9.90625 6.78125 20.515625 
Q 6.78125 27.484375 10.78125 32.3125 
Q 14.796875 37.15625 21.921875 38.8125 
z
M 18.3125 54.390625 
Q 18.3125 48.734375 21.84375 45.5625 
Q 25.390625 42.390625 31.78125 42.390625 
Q 38.140625 42.390625 41.71875 45.5625 
Q 45.3125 48.734375 45.3125 54.390625 
Q 45.3125 60.0625 41.71875 63.234375 
Q 38.140625 66.40625 31.78125 66.40625 
Q 25.390625 66.40625 21.84375 63.234375 
Q 18.3125 60.0625 18.3125 54.390625 
z
" id="DejaVuSans-56"/>
      </defs>
      <g transform="translate(412.010993 288.8017)rotate(-30)scale(0.14 -0.14)">
       <use xlink:href="#DejaVuSans-50"/>
       <use x="63.623047" xlink:href="#DejaVuSans-48"/>
       <use x="127.246094" xlink:href="#DejaVuSans-49"/>
       <use x="190.869141" xlink:href="#DejaVuSans-57"/>
       <use x="254.492188" xlink:href="#DejaVuSans-45"/>
       <use x="290.576172" xlink:href="#DejaVuSans-48"/>
       <use x="354.199219" xlink:href="#DejaVuSans-54"/>
       <use x="417.822266" xlink:href="#DejaVuSans-45"/>
       <use x="453.90625" xlink:href="#DejaVuSans-50"/>
       <use x="517.529297" xlink:href="#DejaVuSans-56"/>
      </g>
     </g>
    </g>
    <g id="text_6">
     <!-- Date -->
     <defs>
      <path d="M 19.671875 64.796875 
L 19.671875 8.109375 
L 31.59375 8.109375 
Q 46.6875 8.109375 53.6875 14.9375 
Q 60.6875 21.78125 60.6875 36.53125 
Q 60.6875 51.171875 53.6875 57.984375 
Q 46.6875 64.796875 31.59375 64.796875 
z
M 9.8125 72.90625 
L 30.078125 72.90625 
Q 51.265625 72.90625 61.171875 64.09375 
Q 71.09375 55.28125 71.09375 36.53125 
Q 71.09375 17.671875 61.125 8.828125 
Q 51.171875 0 30.078125 0 
L 9.8125 0 
z
" id="DejaVuSans-68"/>
      <path d="M 34.28125 27.484375 
Q 23.390625 27.484375 19.1875 25 
Q 14.984375 22.515625 14.984375 16.5 
Q 14.984375 11.71875 18.140625 8.90625 
Q 21.296875 6.109375 26.703125 6.109375 
Q 34.1875 6.109375 38.703125 11.40625 
Q 43.21875 16.703125 43.21875 25.484375 
L 43.21875 27.484375 
z
M 52.203125 31.203125 
L 52.203125 0 
L 43.21875 0 
L 43.21875 8.296875 
Q 40.140625 3.328125 35.546875 0.953125 
Q 30.953125 -1.421875 24.3125 -1.421875 
Q 15.921875 -1.421875 10.953125 3.296875 
Q 6 8.015625 6 15.921875 
Q 6 25.140625 12.171875 29.828125 
Q 18.359375 34.515625 30.609375 34.515625 
L 43.21875 34.515625 
L 43.21875 35.40625 
Q 43.21875 41.609375 39.140625 45 
Q 35.0625 48.390625 27.6875 48.390625 
Q 23 48.390625 18.546875 47.265625 
Q 14.109375 46.140625 10.015625 43.890625 
L 10.015625 52.203125 
Q 14.9375 54.109375 19.578125 55.046875 
Q 24.21875 56 28.609375 56 
Q 40.484375 56 46.34375 49.84375 
Q 52.203125 43.703125 52.203125 31.203125 
z
" id="DejaVuSans-97"/>
      <path d="M 18.3125 70.21875 
L 18.3125 54.6875 
L 36.8125 54.6875 
L 36.8125 47.703125 
L 18.3125 47.703125 
L 18.3125 18.015625 
Q 18.3125 11.328125 20.140625 9.421875 
Q 21.96875 7.515625 27.59375 7.515625 
L 36.8125 7.515625 
L 36.8125 0 
L 27.59375 0 
Q 17.1875 0 13.234375 3.875 
Q 9.28125 7.765625 9.28125 18.015625 
L 9.28125 47.703125 
L 2.6875 47.703125 
L 2.6875 54.6875 
L 9.28125 54.6875 
L 9.28125 70.21875 
z
" id="DejaVuSans-116"/>
      <path d="M 56.203125 29.59375 
L 56.203125 25.203125 
L 14.890625 25.203125 
Q 15.484375 15.921875 20.484375 11.0625 
Q 25.484375 6.203125 34.421875 6.203125 
Q 39.59375 6.203125 44.453125 7.46875 
Q 49.3125 8.734375 54.109375 11.28125 
L 54.109375 2.78125 
Q 49.265625 0.734375 44.1875 -0.34375 
Q 39.109375 -1.421875 33.890625 -1.421875 
Q 20.796875 -1.421875 13.15625 6.1875 
Q 5.515625 13.8125 5.515625 26.8125 
Q 5.515625 40.234375 12.765625 48.109375 
Q 20.015625 56 32.328125 56 
Q 43.359375 56 49.78125 48.890625 
Q 56.203125 41.796875 56.203125 29.59375 
z
M 47.21875 32.234375 
Q 47.125 39.59375 43.09375 43.984375 
Q 39.0625 48.390625 32.421875 48.390625 
Q 24.90625 48.390625 20.390625 44.140625 
Q 15.875 39.890625 15.1875 32.171875 
z
" id="DejaVuSans-101"/>
     </defs>
     <g transform="translate(305.735746 305.961)scale(0.14 -0.14)">
      <use xlink:href="#DejaVuSans-68"/>
      <use x="77.001953" xlink:href="#DejaVuSans-97"/>
      <use x="138.28125" xlink:href="#DejaVuSans-116"/>
      <use x="177.490234" xlink:href="#DejaVuSans-101"/>
     </g>
    </g>
   </g>
   <g id="matplotlib.axis_2">
    <g id="ytick_1">
     <g id="line2d_6">
      <defs>
       <path d="M 0 0 
L -3.5 0 
" id="m39dc71479d" style="stroke:#000000;stroke-width:0.8;"/>
      </defs>
      <g>
       <use style="stroke:#000000;stroke-width:0.8;" x="71.6191" xlink:href="#m39dc71479d" y="215.253922"/>
      </g>
     </g>
     <g id="text_7">
      <!-- 2600 -->
      <g transform="translate(28.9891 220.572828)scale(0.14 -0.14)">
       <use xlink:href="#DejaVuSans-50"/>
       <use x="63.623047" xlink:href="#DejaVuSans-54"/>
       <use x="127.246094" xlink:href="#DejaVuSans-48"/>
       <use x="190.869141" xlink:href="#DejaVuSans-48"/>
      </g>
     </g>
    </g>
    <g id="ytick_2">
     <g id="line2d_7">
      <g>
       <use style="stroke:#000000;stroke-width:0.8;" x="71.6191" xlink:href="#m39dc71479d" y="173.314938"/>
      </g>
     </g>
     <g id="text_8">
      <!-- 2700 -->
      <g transform="translate(28.9891 178.633844)scale(0.14 -0.14)">
       <use xlink:href="#DejaVuSans-50"/>
       <use x="63.623047" xlink:href="#DejaVuSans-55"/>
       <use x="127.246094" xlink:href="#DejaVuSans-48"/>
       <use x="190.869141" xlink:href="#DejaVuSans-48"/>
      </g>
     </g>
    </g>
    <g id="ytick_3">
     <g id="line2d_8">
      <g>
       <use style="stroke:#000000;stroke-width:0.8;" x="71.6191" xlink:href="#m39dc71479d" y="131.375953"/>
      </g>
     </g>
     <g id="text_9">
      <!-- 2800 -->
      <g transform="translate(28.9891 136.69486)scale(0.14 -0.14)">
       <use xlink:href="#DejaVuSans-50"/>
       <use x="63.623047" xlink:href="#DejaVuSans-56"/>
       <use x="127.246094" xlink:href="#DejaVuSans-48"/>
       <use x="190.869141" xlink:href="#DejaVuSans-48"/>
      </g>
     </g>
    </g>
    <g id="ytick_4">
     <g id="line2d_9">
      <g>
       <use style="stroke:#000000;stroke-width:0.8;" x="71.6191" xlink:href="#m39dc71479d" y="89.436969"/>
      </g>
     </g>
     <g id="text_10">
      <!-- 2900 -->
      <g transform="translate(28.9891 94.755875)scale(0.14 -0.14)">
       <use xlink:href="#DejaVuSans-50"/>
       <use x="63.623047" xlink:href="#DejaVuSans-57"/>
       <use x="127.246094" xlink:href="#DejaVuSans-48"/>
       <use x="190.869141" xlink:href="#DejaVuSans-48"/>
      </g>
     </g>
    </g>
    <g id="ytick_5">
     <g id="line2d_10">
      <g>
       <use style="stroke:#000000;stroke-width:0.8;" x="71.6191" xlink:href="#m39dc71479d" y="47.497985"/>
      </g>
     </g>
     <g id="text_11">
      <!-- 3000 -->
      <g transform="translate(28.9891 52.816891)scale(0.14 -0.14)">
       <use xlink:href="#DejaVuSans-51"/>
       <use x="63.623047" xlink:href="#DejaVuSans-48"/>
       <use x="127.246094" xlink:href="#DejaVuSans-48"/>
       <use x="190.869141" xlink:href="#DejaVuSans-48"/>
      </g>
     </g>
    </g>
    <g id="text_12">
     <!-- Price -->
     <defs>
      <path d="M 19.671875 64.796875 
L 19.671875 37.40625 
L 32.078125 37.40625 
Q 38.96875 37.40625 42.71875 40.96875 
Q 46.484375 44.53125 46.484375 51.125 
Q 46.484375 57.671875 42.71875 61.234375 
Q 38.96875 64.796875 32.078125 64.796875 
z
M 9.8125 72.90625 
L 32.078125 72.90625 
Q 44.34375 72.90625 50.609375 67.359375 
Q 56.890625 61.8125 56.890625 51.125 
Q 56.890625 40.328125 50.609375 34.8125 
Q 44.34375 29.296875 32.078125 29.296875 
L 19.671875 29.296875 
L 19.671875 0 
L 9.8125 0 
z
" id="DejaVuSans-80"/>
      <path d="M 41.109375 46.296875 
Q 39.59375 47.171875 37.8125 47.578125 
Q 36.03125 48 33.890625 48 
Q 26.265625 48 22.1875 43.046875 
Q 18.109375 38.09375 18.109375 28.8125 
L 18.109375 0 
L 9.078125 0 
L 9.078125 54.6875 
L 18.109375 54.6875 
L 18.109375 46.1875 
Q 20.953125 51.171875 25.484375 53.578125 
Q 30.03125 56 36.53125 56 
Q 37.453125 56 38.578125 55.875 
Q 39.703125 55.765625 41.0625 55.515625 
z
" id="DejaVuSans-114"/>
      <path d="M 9.421875 54.6875 
L 18.40625 54.6875 
L 18.40625 0 
L 9.421875 0 
z
M 9.421875 75.984375 
L 18.40625 75.984375 
L 18.40625 64.59375 
L 9.421875 64.59375 
z
" id="DejaVuSans-105"/>
      <path d="M 48.78125 52.59375 
L 48.78125 44.1875 
Q 44.96875 46.296875 41.140625 47.34375 
Q 37.3125 48.390625 33.40625 48.390625 
Q 24.65625 48.390625 19.8125 42.84375 
Q 14.984375 37.3125 14.984375 27.296875 
Q 14.984375 17.28125 19.8125 11.734375 
Q 24.65625 6.203125 33.40625 6.203125 
Q 37.3125 6.203125 41.140625 7.25 
Q 44.96875 8.296875 48.78125 10.40625 
L 48.78125 2.09375 
Q 45.015625 0.34375 40.984375 -0.53125 
Q 36.96875 -1.421875 32.421875 -1.421875 
Q 20.0625 -1.421875 12.78125 6.34375 
Q 5.515625 14.109375 5.515625 27.296875 
Q 5.515625 40.671875 12.859375 48.328125 
Q 20.21875 56 33.015625 56 
Q 37.15625 56 41.109375 55.140625 
Q 45.0625 54.296875 48.78125 52.59375 
z
" id="DejaVuSans-99"/>
     </defs>
     <g transform="translate(22.077538 146.134886)rotate(-90)scale(0.14 -0.14)">
      <use xlink:href="#DejaVuSans-80"/>
      <use x="60.287109" xlink:href="#DejaVuSans-114"/>
      <use x="101.400391" xlink:href="#DejaVuSans-105"/>
      <use x="129.183594" xlink:href="#DejaVuSans-99"/>
      <use x="184.164062" xlink:href="#DejaVuSans-101"/>
     </g>
    </g>
   </g>
   <g id="line2d_11">
    <path clip-path="url(#p287e321d98)" d="M 94.42344 216.663072 
L 97.752541 216.82244 
L 101.081642 222.547112 
L 104.410743 210.934207 
L 107.739843 208.501746 
L 111.068944 200.172663 
L 114.398045 185.598866 
L 117.727145 201.455996 
L 121.056246 199.023535 
L 124.385347 197.50115 
L 127.714448 188.094236 
L 131.043548 196.863677 
L 134.372649 198.478328 
L 137.70175 181.262375 
L 141.03085 171.595439 
L 144.359951 170.576322 
L 147.689052 162.884712 
L 151.018153 157.503941 
L 154.347253 160.058025 
L 157.676354 170.777629 
L 164.334556 169.204917 
L 167.663656 154.55563 
L 170.992757 151.074694 
L 174.321858 154.13624 
L 177.650958 141.609066 
L 180.980059 139.864404 
L 184.30916 137.792618 
L 187.638261 141.911026 
L 190.967361 134.450081 
L 194.296462 133.00738 
L 197.625563 133.934231 
L 200.954664 134.571704 
L 204.283764 137.88069 
L 207.612865 129.828405 
L 210.941966 134.391366 
L 214.271066 135.716638 
L 217.600167 143.349533 
L 220.929268 152.794193 
L 224.258369 155.251817 
L 227.587469 138.379764 
L 230.91657 134.932379 
L 234.245671 126.796216 
L 237.574772 127.819527 
L 240.903872 121.94807 
L 244.232973 117.561252 
L 247.562074 117.716426 
L 250.891174 121.214137 
L 254.220275 108.359839 
L 257.549376 131.078187 
L 260.878477 132.063753 
L 264.207577 123.634017 
L 267.536678 129.12383 
L 270.865779 124.900574 
L 274.19488 116.948943 
L 277.52398 103.19715 
L 280.853081 103.17618 
L 287.511282 98.080594 
L 290.840383 92.481739 
L 294.169484 91.210988 
L 297.498585 98.579668 
L 300.827685 94.381575 
L 304.156786 94.335442 
L 307.485887 86.32929 
L 310.814987 87.096774 
L 314.144088 86.476077 
L 317.473189 89.248244 
L 320.80229 87.327438 
L 324.13139 86.094432 
L 327.460491 75.311919 
L 330.789592 78.008596 
L 334.118693 78.461537 
L 337.447793 72.711702 
L 340.776894 71.390624 
L 344.105995 70.216332 
L 347.435095 79.484848 
L 350.764196 82.089259 
L 354.093297 70.296016 
L 357.422398 75.819381 
L 360.751498 96.126237 
L 364.080599 98.068012 
L 367.4097 101.716704 
L 370.738801 97.23762 
L 374.067901 126.397796 
L 377.397002 116.944749 
L 380.726103 110.003847 
L 384.055203 99.36812 
L 387.384304 106.409676 
L 390.713405 114.5039 
L 394.042506 104.384023 
L 397.371606 107.776887 
L 400.700707 122.048723 
L 404.029808 120.446654 
L 407.358909 130.373612 
L 410.688009 138.497193 
L 414.01711 136.047956 
L 417.346211 151.481502 
L 420.675311 154.673059 
L 424.004412 130.004549 
L 427.333513 120.408909 
L 430.662614 113.136689 
L 433.991714 100.617902 
L 437.320815 95.002272 
L 440.649916 95.425856 
L 443.979017 97.891868 
L 447.308117 92.943068 
L 450.637218 94.897425 
L 453.966319 93.769266 
L 457.295419 81.992799 
L 460.62452 78.339914 
L 463.953621 66.714427 
L 467.282722 68.274557 
L 470.611822 70.41764 
L 473.940923 82.147973 
L 477.270024 83.657777 
L 480.599125 78.985774 
L 483.928225 71.923249 
L 487.257326 62.45762 
L 490.586427 58.817316 
L 493.915527 49.251034 
L 497.244628 51.519933 
L 500.573729 57.58431 
L 503.90283 56.040956 
L 507.23193 50.404356 
L 510.561031 47.53573 
L 513.890132 41.722986 
L 517.219232 41.50071 
L 520.548333 45.80365 
L 523.877434 54.032078 
L 527.206535 49.548801 
L 530.535635 57.307513 
L 533.864736 53.776251 
L 537.193837 45.203922 
L 540.522938 39.294719 
L 543.852038 45.958824 
L 547.181139 36.652563 
L 547.181139 36.652563 
" style="fill:none;stroke:#0000ff;stroke-linecap:square;stroke-width:1.5;"/>
   </g>
   <g id="line2d_12">
    <path clip-path="url(#p287e321d98)" d="M 94.42344 216.663034 
L 550.51024 35.32641 
" style="fill:none;stroke:#ff0000;stroke-linecap:square;stroke-width:1.5;"/>
   </g>
   <g id="patch_3">
    <path d="M 71.6191 231.908147 
L 71.6191 25.965375 
" style="fill:none;stroke:#000000;stroke-linecap:square;stroke-linejoin:miter;stroke-width:0.8;"/>
   </g>
   <g id="patch_4">
    <path d="M 573.31458 231.908147 
L 573.31458 25.965375 
" style="fill:none;stroke:#000000;stroke-linecap:square;stroke-linejoin:miter;stroke-width:0.8;"/>
   </g>
   <g id="patch_5">
    <path d="M 71.6191 231.908147 
L 573.31458 231.908147 
" style="fill:none;stroke:#000000;stroke-linecap:square;stroke-linejoin:miter;stroke-width:0.8;"/>
   </g>
   <g id="patch_6">
    <path d="M 71.6191 25.965375 
L 573.31458 25.965375 
" style="fill:none;stroke:#000000;stroke-linecap:square;stroke-linejoin:miter;stroke-width:0.8;"/>
   </g>
   <g id="text_13">
    <!-- Closing Price with Resistance and Area -->
    <defs>
     <path d="M 64.40625 67.28125 
L 64.40625 56.890625 
Q 59.421875 61.53125 53.78125 63.8125 
Q 48.140625 66.109375 41.796875 66.109375 
Q 29.296875 66.109375 22.65625 58.46875 
Q 16.015625 50.828125 16.015625 36.375 
Q 16.015625 21.96875 22.65625 14.328125 
Q 29.296875 6.6875 41.796875 6.6875 
Q 48.140625 6.6875 53.78125 8.984375 
Q 59.421875 11.28125 64.40625 15.921875 
L 64.40625 5.609375 
Q 59.234375 2.09375 53.4375 0.328125 
Q 47.65625 -1.421875 41.21875 -1.421875 
Q 24.65625 -1.421875 15.125 8.703125 
Q 5.609375 18.84375 5.609375 36.375 
Q 5.609375 53.953125 15.125 64.078125 
Q 24.65625 74.21875 41.21875 74.21875 
Q 47.75 74.21875 53.53125 72.484375 
Q 59.328125 70.75 64.40625 67.28125 
z
" id="DejaVuSans-67"/>
     <path d="M 9.421875 75.984375 
L 18.40625 75.984375 
L 18.40625 0 
L 9.421875 0 
z
" id="DejaVuSans-108"/>
     <path d="M 30.609375 48.390625 
Q 23.390625 48.390625 19.1875 42.75 
Q 14.984375 37.109375 14.984375 27.296875 
Q 14.984375 17.484375 19.15625 11.84375 
Q 23.34375 6.203125 30.609375 6.203125 
Q 37.796875 6.203125 41.984375 11.859375 
Q 46.1875 17.53125 46.1875 27.296875 
Q 46.1875 37.015625 41.984375 42.703125 
Q 37.796875 48.390625 30.609375 48.390625 
z
M 30.609375 56 
Q 42.328125 56 49.015625 48.375 
Q 55.71875 40.765625 55.71875 27.296875 
Q 55.71875 13.875 49.015625 6.21875 
Q 42.328125 -1.421875 30.609375 -1.421875 
Q 18.84375 -1.421875 12.171875 6.21875 
Q 5.515625 13.875 5.515625 27.296875 
Q 5.515625 40.765625 12.171875 48.375 
Q 18.84375 56 30.609375 56 
z
" id="DejaVuSans-111"/>
     <path d="M 44.28125 53.078125 
L 44.28125 44.578125 
Q 40.484375 46.53125 36.375 47.5 
Q 32.28125 48.484375 27.875 48.484375 
Q 21.1875 48.484375 17.84375 46.4375 
Q 14.5 44.390625 14.5 40.28125 
Q 14.5 37.15625 16.890625 35.375 
Q 19.28125 33.59375 26.515625 31.984375 
L 29.59375 31.296875 
Q 39.15625 29.25 43.1875 25.515625 
Q 47.21875 21.78125 47.21875 15.09375 
Q 47.21875 7.46875 41.1875 3.015625 
Q 35.15625 -1.421875 24.609375 -1.421875 
Q 20.21875 -1.421875 15.453125 -0.5625 
Q 10.6875 0.296875 5.421875 2 
L 5.421875 11.28125 
Q 10.40625 8.6875 15.234375 7.390625 
Q 20.0625 6.109375 24.8125 6.109375 
Q 31.15625 6.109375 34.5625 8.28125 
Q 37.984375 10.453125 37.984375 14.40625 
Q 37.984375 18.0625 35.515625 20.015625 
Q 33.0625 21.96875 24.703125 23.78125 
L 21.578125 24.515625 
Q 13.234375 26.265625 9.515625 29.90625 
Q 5.8125 33.546875 5.8125 39.890625 
Q 5.8125 47.609375 11.28125 51.796875 
Q 16.75 56 26.8125 56 
Q 31.78125 56 36.171875 55.265625 
Q 40.578125 54.546875 44.28125 53.078125 
z
" id="DejaVuSans-115"/>
     <path d="M 54.890625 33.015625 
L 54.890625 0 
L 45.90625 0 
L 45.90625 32.71875 
Q 45.90625 40.484375 42.875 44.328125 
Q 39.84375 48.1875 33.796875 48.1875 
Q 26.515625 48.1875 22.3125 43.546875 
Q 18.109375 38.921875 18.109375 30.90625 
L 18.109375 0 
L 9.078125 0 
L 9.078125 54.6875 
L 18.109375 54.6875 
L 18.109375 46.1875 
Q 21.34375 51.125 25.703125 53.5625 
Q 30.078125 56 35.796875 56 
Q 45.21875 56 50.046875 50.171875 
Q 54.890625 44.34375 54.890625 33.015625 
z
" id="DejaVuSans-110"/>
     <path d="M 45.40625 27.984375 
Q 45.40625 37.75 41.375 43.109375 
Q 37.359375 48.484375 30.078125 48.484375 
Q 22.859375 48.484375 18.828125 43.109375 
Q 14.796875 37.75 14.796875 27.984375 
Q 14.796875 18.265625 18.828125 12.890625 
Q 22.859375 7.515625 30.078125 7.515625 
Q 37.359375 7.515625 41.375 12.890625 
Q 45.40625 18.265625 45.40625 27.984375 
z
M 54.390625 6.78125 
Q 54.390625 -7.171875 48.1875 -13.984375 
Q 42 -20.796875 29.203125 -20.796875 
Q 24.46875 -20.796875 20.265625 -20.09375 
Q 16.0625 -19.390625 12.109375 -17.921875 
L 12.109375 -9.1875 
Q 16.0625 -11.328125 19.921875 -12.34375 
Q 23.78125 -13.375 27.78125 -13.375 
Q 36.625 -13.375 41.015625 -8.765625 
Q 45.40625 -4.15625 45.40625 5.171875 
L 45.40625 9.625 
Q 42.625 4.78125 38.28125 2.390625 
Q 33.9375 0 27.875 0 
Q 17.828125 0 11.671875 7.65625 
Q 5.515625 15.328125 5.515625 27.984375 
Q 5.515625 40.671875 11.671875 48.328125 
Q 17.828125 56 27.875 56 
Q 33.9375 56 38.28125 53.609375 
Q 42.625 51.21875 45.40625 46.390625 
L 45.40625 54.6875 
L 54.390625 54.6875 
z
" id="DejaVuSans-103"/>
     <path id="DejaVuSans-32"/>
     <path d="M 4.203125 54.6875 
L 13.1875 54.6875 
L 24.421875 12.015625 
L 35.59375 54.6875 
L 46.1875 54.6875 
L 57.421875 12.015625 
L 68.609375 54.6875 
L 77.59375 54.6875 
L 63.28125 0 
L 52.6875 0 
L 40.921875 44.828125 
L 29.109375 0 
L 18.5 0 
z
" id="DejaVuSans-119"/>
     <path d="M 54.890625 33.015625 
L 54.890625 0 
L 45.90625 0 
L 45.90625 32.71875 
Q 45.90625 40.484375 42.875 44.328125 
Q 39.84375 48.1875 33.796875 48.1875 
Q 26.515625 48.1875 22.3125 43.546875 
Q 18.109375 38.921875 18.109375 30.90625 
L 18.109375 0 
L 9.078125 0 
L 9.078125 75.984375 
L 18.109375 75.984375 
L 18.109375 46.1875 
Q 21.34375 51.125 25.703125 53.5625 
Q 30.078125 56 35.796875 56 
Q 45.21875 56 50.046875 50.171875 
Q 54.890625 44.34375 54.890625 33.015625 
z
" id="DejaVuSans-104"/>
     <path d="M 44.390625 34.1875 
Q 47.5625 33.109375 50.5625 29.59375 
Q 53.5625 26.078125 56.59375 19.921875 
L 66.609375 0 
L 56 0 
L 46.6875 18.703125 
Q 43.0625 26.03125 39.671875 28.421875 
Q 36.28125 30.8125 30.421875 30.8125 
L 19.671875 30.8125 
L 19.671875 0 
L 9.8125 0 
L 9.8125 72.90625 
L 32.078125 72.90625 
Q 44.578125 72.90625 50.734375 67.671875 
Q 56.890625 62.453125 56.890625 51.90625 
Q 56.890625 45.015625 53.6875 40.46875 
Q 50.484375 35.9375 44.390625 34.1875 
z
M 19.671875 64.796875 
L 19.671875 38.921875 
L 32.078125 38.921875 
Q 39.203125 38.921875 42.84375 42.21875 
Q 46.484375 45.515625 46.484375 51.90625 
Q 46.484375 58.296875 42.84375 61.546875 
Q 39.203125 64.796875 32.078125 64.796875 
z
" id="DejaVuSans-82"/>
     <path d="M 45.40625 46.390625 
L 45.40625 75.984375 
L 54.390625 75.984375 
L 54.390625 0 
L 45.40625 0 
L 45.40625 8.203125 
Q 42.578125 3.328125 38.25 0.953125 
Q 33.9375 -1.421875 27.875 -1.421875 
Q 17.96875 -1.421875 11.734375 6.484375 
Q 5.515625 14.40625 5.515625 27.296875 
Q 5.515625 40.1875 11.734375 48.09375 
Q 17.96875 56 27.875 56 
Q 33.9375 56 38.25 53.625 
Q 42.578125 51.265625 45.40625 46.390625 
z
M 14.796875 27.296875 
Q 14.796875 17.390625 18.875 11.75 
Q 22.953125 6.109375 30.078125 6.109375 
Q 37.203125 6.109375 41.296875 11.75 
Q 45.40625 17.390625 45.40625 27.296875 
Q 45.40625 37.203125 41.296875 42.84375 
Q 37.203125 48.484375 30.078125 48.484375 
Q 22.953125 48.484375 18.875 42.84375 
Q 14.796875 37.203125 14.796875 27.296875 
z
" id="DejaVuSans-100"/>
     <path d="M 34.1875 63.1875 
L 20.796875 26.90625 
L 47.609375 26.90625 
z
M 28.609375 72.90625 
L 39.796875 72.90625 
L 67.578125 0 
L 57.328125 0 
L 50.6875 18.703125 
L 17.828125 18.703125 
L 11.1875 0 
L 0.78125 0 
z
" id="DejaVuSans-65"/>
    </defs>
    <g transform="translate(159.00284 19.965375)scale(0.168 -0.168)">
     <use xlink:href="#DejaVuSans-67"/>
     <use x="69.824219" xlink:href="#DejaVuSans-108"/>
     <use x="97.607422" xlink:href="#DejaVuSans-111"/>
     <use x="158.789062" xlink:href="#DejaVuSans-115"/>
     <use x="210.888672" xlink:href="#DejaVuSans-105"/>
     <use x="238.671875" xlink:href="#DejaVuSans-110"/>
     <use x="302.050781" xlink:href="#DejaVuSans-103"/>
     <use x="365.527344" xlink:href="#DejaVuSans-32"/>
     <use x="397.314453" xlink:href="#DejaVuSans-80"/>
     <use x="457.601562" xlink:href="#DejaVuSans-114"/>
     <use x="498.714844" xlink:href="#DejaVuSans-105"/>
     <use x="526.498047" xlink:href="#DejaVuSans-99"/>
     <use x="581.478516" xlink:href="#DejaVuSans-101"/>
     <use x="643.001953" xlink:href="#DejaVuSans-32"/>
     <use x="674.789062" xlink:href="#DejaVuSans-119"/>
     <use x="756.576172" xlink:href="#DejaVuSans-105"/>
     <use x="784.359375" xlink:href="#DejaVuSans-116"/>
     <use x="823.568359" xlink:href="#DejaVuSans-104"/>
     <use x="886.947266" xlink:href="#DejaVuSans-32"/>
     <use x="918.734375" xlink:href="#DejaVuSans-82"/>
     <use x="988.154297" xlink:href="#DejaVuSans-101"/>
     <use x="1049.677734" xlink:href="#DejaVuSans-115"/>
     <use x="1101.777344" xlink:href="#DejaVuSans-105"/>
     <use x="1129.560547" xlink:href="#DejaVuSans-115"/>
     <use x="1181.660156" xlink:href="#DejaVuSans-116"/>
     <use x="1220.869141" xlink:href="#DejaVuSans-97"/>
     <use x="1282.148438" xlink:href="#DejaVuSans-110"/>
     <use x="1345.527344" xlink:href="#DejaVuSans-99"/>
     <use x="1400.507812" xlink:href="#DejaVuSans-101"/>
     <use x="1462.03125" xlink:href="#DejaVuSans-32"/>
     <use x="1493.818359" xlink:href="#DejaVuSans-97"/>
     <use x="1555.097656" xlink:href="#DejaVuSans-110"/>
     <use x="1618.476562" xlink:href="#DejaVuSans-100"/>
     <use x="1681.953125" xlink:href="#DejaVuSans-32"/>
     <use x="1713.740234" xlink:href="#DejaVuSans-65"/>
     <use x="1782.148438" xlink:href="#DejaVuSans-114"/>
     <use x="1823.230469" xlink:href="#DejaVuSans-101"/>
     <use x="1884.753906" xlink:href="#DejaVuSans-97"/>
    </g>
   </g>
   <g id="legend_1">
    <g id="patch_7">
     <path d="M 81.4191 78.264125 
L 202.280663 78.264125 
Q 205.080663 78.264125 205.080663 75.464125 
L 205.080663 35.765375 
Q 205.080663 32.965375 202.280663 32.965375 
L 81.4191 32.965375 
Q 78.6191 32.965375 78.6191 35.765375 
L 78.6191 75.464125 
Q 78.6191 78.264125 81.4191 78.264125 
z
" style="fill:#ffffff;opacity:0.8;stroke:#cccccc;stroke-linejoin:miter;"/>
    </g>
    <g id="line2d_13">
     <path d="M 84.2191 44.303187 
L 112.2191 44.303187 
" style="fill:none;stroke:#0000ff;stroke-linecap:square;stroke-width:1.5;"/>
    </g>
    <g id="line2d_14"/>
    <g id="text_14">
     <!-- Price -->
     <g transform="translate(123.4191 49.203187)scale(0.14 -0.14)">
      <use xlink:href="#DejaVuSans-80"/>
      <use x="60.287109" xlink:href="#DejaVuSans-114"/>
      <use x="101.400391" xlink:href="#DejaVuSans-105"/>
      <use x="129.183594" xlink:href="#DejaVuSans-99"/>
      <use x="184.164062" xlink:href="#DejaVuSans-101"/>
     </g>
    </g>
    <g id="line2d_15">
     <path d="M 84.2191 64.852562 
L 112.2191 64.852562 
" style="fill:none;stroke:#ff0000;stroke-linecap:square;stroke-width:1.5;"/>
    </g>
    <g id="line2d_16"/>
    <g id="text_15">
     <!-- Resistance -->
     <g transform="translate(123.4191 69.752562)scale(0.14 -0.14)">
      <use xlink:href="#DejaVuSans-82"/>
      <use x="69.419922" xlink:href="#DejaVuSans-101"/>
      <use x="130.943359" xlink:href="#DejaVuSans-115"/>
      <use x="183.042969" xlink:href="#DejaVuSans-105"/>
      <use x="210.826172" xlink:href="#DejaVuSans-115"/>
      <use x="262.925781" xlink:href="#DejaVuSans-116"/>
      <use x="302.134766" xlink:href="#DejaVuSans-97"/>
      <use x="363.414062" xlink:href="#DejaVuSans-110"/>
      <use x="426.792969" xlink:href="#DejaVuSans-99"/>
      <use x="481.773438" xlink:href="#DejaVuSans-101"/>
     </g>
    </g>
   </g>
  </g>
  <g id="axes_2">
   <g id="patch_8">
    <path d="M 71.6191 502.736859 
L 573.31458 502.736859 
L 573.31458 296.794088 
L 71.6191 296.794088 
z
" style="fill:#ffffff;"/>
   </g>
   <g id="patch_9">
    <path clip-path="url(#pe1eb33de36)" d="M 94.42344 384.465965 
L 97.090615 384.465965 
L 97.090615 384.466025 
L 94.42344 384.466025 
z
" style="fill:#808080;"/>
   </g>
   <g id="patch_10">
    <path clip-path="url(#pe1eb33de36)" d="M 97.757408 384.465965 
L 100.424582 384.465965 
L 100.424582 386.850845 
L 97.757408 386.850845 
z
" style="fill:#808080;"/>
   </g>
   <g id="patch_11">
    <path clip-path="url(#pe1eb33de36)" d="M 101.091376 384.465965 
L 103.75855 384.465965 
L 103.75855 398.185299 
L 101.091376 398.185299 
z
" style="fill:#808080;"/>
   </g>
   <g id="patch_12">
    <path clip-path="url(#pe1eb33de36)" d="M 104.425344 384.465965 
L 107.092518 384.465965 
L 107.092518 381.638979 
L 104.425344 381.638979 
z
" style="fill:#ff0000;"/>
   </g>
   <g id="patch_13">
    <path clip-path="url(#pe1eb33de36)" d="M 107.759312 384.465965 
L 110.426486 384.465965 
L 110.426486 379.855846 
L 107.759312 379.855846 
z
" style="fill:#ff0000;"/>
   </g>
   <g id="patch_14">
    <path clip-path="url(#pe1eb33de36)" d="M 111.093279 384.465965 
L 113.760454 384.465965 
L 113.760454 368.590283 
L 111.093279 368.590283 
z
" style="fill:#ff0000;"/>
   </g>
   <g id="patch_15">
    <path clip-path="url(#pe1eb33de36)" d="M 114.427247 384.465965 
L 117.094422 384.465965 
L 117.094422 347.282516 
L 114.427247 347.282516 
z
" style="fill:#ff0000;"/>
   </g>
   <g id="patch_16">
    <path clip-path="url(#pe1eb33de36)" d="M 117.761215 384.465965 
L 120.428389 384.465965 
L 120.428389 374.911102 
L 117.761215 374.911102 
z
" style="fill:#ff0000;"/>
   </g>
   <g id="patch_17">
    <path clip-path="url(#pe1eb33de36)" d="M 121.095183 384.465965 
L 123.762357 384.465965 
L 123.762357 373.127969 
L 121.095183 373.127969 
z
" style="fill:#ff0000;"/>
   </g>
   <g id="patch_18">
    <path clip-path="url(#pe1eb33de36)" d="M 124.429151 384.465965 
L 127.096325 384.465965 
L 127.096325 372.80834 
L 124.429151 372.80834 
z
" style="fill:#ff0000;"/>
   </g>
   <g id="patch_19">
    <path clip-path="url(#pe1eb33de36)" d="M 127.763119 384.465965 
L 130.430293 384.465965 
L 130.430293 359.809502 
L 127.763119 359.809502 
z
" style="fill:#ff0000;"/>
   </g>
   <g id="patch_20">
    <path clip-path="url(#pe1eb33de36)" d="M 131.097086 384.465965 
L 133.764261 384.465965 
L 133.764261 376.040289 
L 131.097086 376.040289 
z
" style="fill:#ff0000;"/>
   </g>
   <g id="patch_21">
    <path clip-path="url(#pe1eb33de36)" d="M 134.431054 384.465965 
L 137.098229 384.465965 
L 137.098229 380.765367 
L 134.431054 380.765367 
z
" style="fill:#ff0000;"/>
   </g>
   <g id="patch_22">
    <path clip-path="url(#pe1eb33de36)" d="M 137.765022 384.465965 
L 140.432196 384.465965 
L 140.432196 355.208715 
L 137.765022 355.208715 
z
" style="fill:#ff0000;"/>
   </g>
   <g id="patch_23">
    <path clip-path="url(#pe1eb33de36)" d="M 141.09899 384.465965 
L 143.766164 384.465965 
L 143.766164 341.791733 
L 141.09899 341.791733 
z
" style="fill:#ff0000;"/>
   </g>
   <g id="patch_24">
    <path clip-path="url(#pe1eb33de36)" d="M 144.432958 384.465965 
L 147.100132 384.465965 
L 147.100132 342.281416 
L 144.432958 342.281416 
z
" style="fill:#ff0000;"/>
   </g>
   <g id="patch_25">
    <path clip-path="url(#pe1eb33de36)" d="M 147.766926 384.465965 
L 150.4341 384.465965 
L 150.4341 332.04098 
L 147.766926 332.04098 
z
" style="fill:#ff0000;"/>
   </g>
   <g id="patch_26">
    <path clip-path="url(#pe1eb33de36)" d="M 151.100893 384.465965 
L 153.768068 384.465965 
L 153.768068 325.516631 
L 151.100893 325.516631 
z
" style="fill:#ff0000;"/>
   </g>
   <g id="patch_27">
    <path clip-path="url(#pe1eb33de36)" d="M 154.434861 384.465965 
L 157.102036 384.465965 
L 157.102036 331.752424 
L 154.434861 331.752424 
z
" style="fill:#ff0000;"/>
   </g>
   <g id="patch_28">
    <path clip-path="url(#pe1eb33de36)" d="M 157.768829 384.465965 
L 160.436003 384.465965 
L 160.436003 351.119292 
L 157.768829 351.119292 
z
" style="fill:#ff0000;"/>
   </g>
   <g id="patch_29">
    <path clip-path="url(#pe1eb33de36)" d="M 161.102797 384.465965 
L 163.769971 384.465965 
L 163.769971 352.01363 
L 161.102797 352.01363 
z
" style="fill:#ff0000;"/>
   </g>
   <g id="patch_30">
    <path clip-path="url(#pe1eb33de36)" d="M 164.436765 384.465965 
L 167.103939 384.465965 
L 167.103939 352.84727 
L 164.436765 352.84727 
z
" style="fill:#ff0000;"/>
   </g>
   <g id="patch_31">
    <path clip-path="url(#pe1eb33de36)" d="M 167.770733 384.465965 
L 170.437907 384.465965 
L 170.437907 331.418106 
L 167.770733 331.418106 
z
" style="fill:#ff0000;"/>
   </g>
   <g id="patch_32">
    <path clip-path="url(#pe1eb33de36)" d="M 171.1047 384.465965 
L 173.771875 384.465965 
L 173.771875 327.948908 
L 171.1047 327.948908 
z
" style="fill:#ff0000;"/>
   </g>
   <g id="patch_33">
    <path clip-path="url(#pe1eb33de36)" d="M 174.438668 384.465965 
L 177.105843 384.465965 
L 177.105843 335.000756 
L 174.438668 335.000756 
z
" style="fill:#ff0000;"/>
   </g>
   <g id="patch_34">
    <path clip-path="url(#pe1eb33de36)" d="M 177.772636 384.465965 
L 180.43981 384.465965 
L 180.43981 316.984187 
L 177.772636 316.984187 
z
" style="fill:#ff0000;"/>
   </g>
   <g id="patch_35">
    <path clip-path="url(#pe1eb33de36)" d="M 181.106604 384.465965 
L 183.773778 384.465965 
L 183.773778 316.307113 
L 181.106604 316.307113 
z
" style="fill:#ff0000;"/>
   </g>
   <g id="patch_36">
    <path clip-path="url(#pe1eb33de36)" d="M 184.440572 384.465965 
L 187.107746 384.465965 
L 187.107746 315.103986 
L 184.440572 315.103986 
z
" style="fill:#ff0000;"/>
   </g>
   <g id="patch_37">
    <path clip-path="url(#pe1eb33de36)" d="M 187.77454 384.465965 
L 190.441714 384.465965 
L 190.441714 323.855388 
L 187.77454 323.855388 
z
" style="fill:#ff0000;"/>
   </g>
   <g id="patch_38">
    <path clip-path="url(#pe1eb33de36)" d="M 191.108507 384.465965 
L 193.775682 384.465965 
L 193.775682 313.985886 
L 191.108507 313.985886 
z
" style="fill:#ff0000;"/>
   </g>
   <g id="patch_39">
    <path clip-path="url(#pe1eb33de36)" d="M 194.442475 384.465965 
L 197.10965 384.465965 
L 197.10965 313.794399 
L 194.442475 313.794399 
z
" style="fill:#ff0000;"/>
   </g>
   <g id="patch_40">
    <path clip-path="url(#pe1eb33de36)" d="M 197.776443 384.465965 
L 200.443617 384.465965 
L 200.443617 317.413418 
L 197.776443 317.413418 
z
" style="fill:#ff0000;"/>
   </g>
   <g id="patch_41">
    <path clip-path="url(#pe1eb33de36)" d="M 201.110411 384.465965 
L 203.777585 384.465965 
L 203.777585 320.567084 
L 201.110411 320.567084 
z
" style="fill:#ff0000;"/>
   </g>
   <g id="patch_42">
    <path clip-path="url(#pe1eb33de36)" d="M 204.444379 384.465965 
L 207.111553 384.465965 
L 207.111553 328.016843 
L 204.444379 328.016843 
z
" style="fill:#ff0000;"/>
   </g>
   <g id="patch_43">
    <path clip-path="url(#pe1eb33de36)" d="M 207.778347 384.465965 
L 210.445521 384.465965 
L 210.445521 317.196401 
L 207.778347 317.196401 
z
" style="fill:#ff0000;"/>
   </g>
   <g id="patch_44">
    <path clip-path="url(#pe1eb33de36)" d="M 211.112314 384.465965 
L 213.779489 384.465965 
L 213.779489 326.662694 
L 211.112314 326.662694 
z
" style="fill:#ff0000;"/>
   </g>
   <g id="patch_45">
    <path clip-path="url(#pe1eb33de36)" d="M 214.446282 384.465965 
L 217.113457 384.465965 
L 217.113457 330.922418 
L 214.446282 330.922418 
z
" style="fill:#ff0000;"/>
   </g>
   <g id="patch_46">
    <path clip-path="url(#pe1eb33de36)" d="M 217.78025 384.465965 
L 220.447424 384.465965 
L 220.447424 345.32551 
L 217.78025 345.32551 
z
" style="fill:#ff0000;"/>
   </g>
   <g id="patch_47">
    <path clip-path="url(#pe1eb33de36)" d="M 221.114218 384.465965 
L 223.781392 384.465965 
L 223.781392 362.642123 
L 221.114218 362.642123 
z
" style="fill:#ff0000;"/>
   </g>
   <g id="patch_48">
    <path clip-path="url(#pe1eb33de36)" d="M 224.448186 384.465965 
L 227.11536 384.465965 
L 227.11536 368.722797 
L 224.448186 368.722797 
z
" style="fill:#ff0000;"/>
   </g>
   <g id="patch_49">
    <path clip-path="url(#pe1eb33de36)" d="M 227.782154 384.465965 
L 230.449328 384.465965 
L 230.449328 343.719175 
L 227.782154 343.719175 
z
" style="fill:#ff0000;"/>
   </g>
   <g id="patch_50">
    <path clip-path="url(#pe1eb33de36)" d="M 231.116121 384.465965 
L 233.783296 384.465965 
L 233.783296 340.303931 
L 231.116121 340.303931 
z
" style="fill:#ff0000;"/>
   </g>
   <g id="patch_51">
    <path clip-path="url(#pe1eb33de36)" d="M 234.450089 384.465965 
L 237.117264 384.465965 
L 237.117264 329.348604 
L 234.450089 329.348604 
z
" style="fill:#ff0000;"/>
   </g>
   <g id="patch_52">
    <path clip-path="url(#pe1eb33de36)" d="M 237.784057 384.465965 
L 240.451231 384.465965 
L 240.451231 333.122741 
L 237.784057 333.122741 
z
" style="fill:#ff0000;"/>
   </g>
   <g id="patch_53">
    <path clip-path="url(#pe1eb33de36)" d="M 241.118025 384.465965 
L 243.785199 384.465965 
L 243.785199 325.809314 
L 241.118025 325.809314 
z
" style="fill:#ff0000;"/>
   </g>
   <g id="patch_54">
    <path clip-path="url(#pe1eb33de36)" d="M 244.451993 384.465965 
L 247.119167 384.465965 
L 247.119167 320.883356 
L 244.451993 320.883356 
z
" style="fill:#ff0000;"/>
   </g>
   <g id="patch_55">
    <path clip-path="url(#pe1eb33de36)" d="M 247.785961 384.465965 
L 250.453135 384.465965 
L 250.453135 323.261431 
L 247.785961 323.261431 
z
" style="fill:#ff0000;"/>
   </g>
   <g id="patch_56">
    <path clip-path="url(#pe1eb33de36)" d="M 251.119928 384.465965 
L 253.787103 384.465965 
L 253.787103 331.014682 
L 251.119928 331.014682 
z
" style="fill:#ff0000;"/>
   </g>
   <g id="patch_57">
    <path clip-path="url(#pe1eb33de36)" d="M 254.453896 384.465965 
L 257.121071 384.465965 
L 257.121071 312.472062 
L 254.453896 312.472062 
z
" style="fill:#ff0000;"/>
   </g>
   <g id="patch_58">
    <path clip-path="url(#pe1eb33de36)" d="M 257.787864 384.465965 
L 260.455038 384.465965 
L 260.455038 351.134259 
L 257.787864 351.134259 
z
" style="fill:#ff0000;"/>
   </g>
   <g id="patch_59">
    <path clip-path="url(#pe1eb33de36)" d="M 261.121832 384.465965 
L 263.789006 384.465965 
L 263.789006 354.847698 
L 261.121832 354.847698 
z
" style="fill:#ff0000;"/>
   </g>
   <g id="patch_60">
    <path clip-path="url(#pe1eb33de36)" d="M 264.4558 384.465965 
L 267.122974 384.465965 
L 267.122974 343.420272 
L 264.4558 343.420272 
z
" style="fill:#ff0000;"/>
   </g>
   <g id="patch_61">
    <path clip-path="url(#pe1eb33de36)" d="M 267.789768 384.465965 
L 270.456942 384.465965 
L 270.456942 354.377047 
L 267.789768 354.377047 
z
" style="fill:#ff0000;"/>
   </g>
   <g id="patch_62">
    <path clip-path="url(#pe1eb33de36)" d="M 271.123735 384.465965 
L 273.79091 384.465965 
L 273.79091 349.714115 
L 271.123735 349.714115 
z
" style="fill:#ff0000;"/>
   </g>
   <g id="patch_63">
    <path clip-path="url(#pe1eb33de36)" d="M 274.457703 384.465965 
L 277.124878 384.465965 
L 277.124878 339.055535 
L 274.457703 339.055535 
z
" style="fill:#ff0000;"/>
   </g>
   <g id="patch_64">
    <path clip-path="url(#pe1eb33de36)" d="M 277.791671 384.465965 
L 280.458845 384.465965 
L 280.458845 319.069642 
L 277.791671 319.069642 
z
" style="fill:#ff0000;"/>
   </g>
   <g id="patch_65">
    <path clip-path="url(#pe1eb33de36)" d="M 281.125639 384.465965 
L 283.792813 384.465965 
L 283.792813 321.164459 
L 281.125639 321.164459 
z
" style="fill:#ff0000;"/>
   </g>
   <g id="patch_66">
    <path clip-path="url(#pe1eb33de36)" d="M 284.459607 384.465965 
L 287.126781 384.465965 
L 287.126781 319.138532 
L 284.459607 319.138532 
z
" style="fill:#ff0000;"/>
   </g>
   <g id="patch_67">
    <path clip-path="url(#pe1eb33de36)" d="M 287.793575 384.465965 
L 290.460749 384.465965 
L 290.460749 317.227258 
L 287.793575 317.227258 
z
" style="fill:#ff0000;"/>
   </g>
   <g id="patch_68">
    <path clip-path="url(#pe1eb33de36)" d="M 291.127542 384.465965 
L 293.794717 384.465965 
L 293.794717 310.352208 
L 291.127542 310.352208 
z
" style="fill:#ff0000;"/>
   </g>
   <g id="patch_69">
    <path clip-path="url(#pe1eb33de36)" d="M 294.46151 384.465965 
L 297.128685 384.465965 
L 297.128685 310.437235 
L 294.46151 310.437235 
z
" style="fill:#ff0000;"/>
   </g>
   <g id="patch_70">
    <path clip-path="url(#pe1eb33de36)" d="M 297.795478 384.465965 
L 300.462652 384.465965 
L 300.462652 324.415439 
L 297.795478 324.415439 
z
" style="fill:#ff0000;"/>
   </g>
   <g id="patch_71">
    <path clip-path="url(#pe1eb33de36)" d="M 301.129446 384.465965 
L 303.79662 384.465965 
L 303.79662 319.792972 
L 301.129446 319.792972 
z
" style="fill:#ff0000;"/>
   </g>
   <g id="patch_72">
    <path clip-path="url(#pe1eb33de36)" d="M 304.463414 384.465965 
L 307.130588 384.465965 
L 307.130588 321.847323 
L 304.463414 321.847323 
z
" style="fill:#ff0000;"/>
   </g>
   <g id="patch_73">
    <path clip-path="url(#pe1eb33de36)" d="M 307.797382 384.465965 
L 310.464556 384.465965 
L 310.464556 311.101068 
L 307.797382 311.101068 
z
" style="fill:#ff0000;"/>
   </g>
   <g id="patch_74">
    <path clip-path="url(#pe1eb33de36)" d="M 311.131349 384.465965 
L 313.798524 384.465965 
L 313.798524 314.463805 
L 311.131349 314.463805 
z
" style="fill:#ff0000;"/>
   </g>
   <g id="patch_75">
    <path clip-path="url(#pe1eb33de36)" d="M 314.465317 384.465965 
L 317.132492 384.465965 
L 317.132492 315.594193 
L 314.465317 315.594193 
z
" style="fill:#ff0000;"/>
   </g>
   <g id="patch_76">
    <path clip-path="url(#pe1eb33de36)" d="M 317.799285 384.465965 
L 320.466459 384.465965 
L 320.466459 322.180687 
L 317.799285 322.180687 
z
" style="fill:#ff0000;"/>
   </g>
   <g id="patch_77">
    <path clip-path="url(#pe1eb33de36)" d="M 321.133253 384.465965 
L 323.800427 384.465965 
L 323.800427 321.220353 
L 321.133253 321.220353 
z
" style="fill:#ff0000;"/>
   </g>
   <g id="patch_78">
    <path clip-path="url(#pe1eb33de36)" d="M 324.467221 384.465965 
L 327.134395 384.465965 
L 327.134395 321.366079 
L 324.467221 321.366079 
z
" style="fill:#ff0000;"/>
   </g>
   <g id="patch_79">
    <path clip-path="url(#pe1eb33de36)" d="M 327.801189 384.465965 
L 330.468363 384.465965 
L 330.468363 306.155123 
L 327.801189 306.155123 
z
" style="fill:#ff0000;"/>
   </g>
   <g id="patch_80">
    <path clip-path="url(#pe1eb33de36)" d="M 331.135156 384.465965 
L 333.802331 384.465965 
L 333.802331 312.62022 
L 331.135156 312.62022 
z
" style="fill:#ff0000;"/>
   </g>
   <g id="patch_81">
    <path clip-path="url(#pe1eb33de36)" d="M 334.469124 384.465965 
L 337.136298 384.465965 
L 337.136298 315.477138 
L 334.469124 315.477138 
z
" style="fill:#ff0000;"/>
   </g>
   <g id="patch_82">
    <path clip-path="url(#pe1eb33de36)" d="M 337.803092 384.465965 
L 340.470266 384.465965 
L 340.470266 308.359295 
L 337.803092 308.359295 
z
" style="fill:#ff0000;"/>
   </g>
   <g id="patch_83">
    <path clip-path="url(#pe1eb33de36)" d="M 341.13706 384.465965 
L 343.804234 384.465965 
L 343.804234 308.363391 
L 341.13706 308.363391 
z
" style="fill:#ff0000;"/>
   </g>
   <g id="patch_84">
    <path clip-path="url(#pe1eb33de36)" d="M 344.471028 384.465965 
L 347.138202 384.465965 
L 347.138202 308.603536 
L 344.471028 308.603536 
z
" style="fill:#ff0000;"/>
   </g>
   <g id="patch_85">
    <path clip-path="url(#pe1eb33de36)" d="M 347.804996 384.465965 
L 350.47217 384.465965 
L 350.47217 325.636889 
L 347.804996 325.636889 
z
" style="fill:#ff0000;"/>
   </g>
   <g id="patch_86">
    <path clip-path="url(#pe1eb33de36)" d="M 351.138963 384.465965 
L 353.806138 384.465965 
L 353.806138 331.953613 
L 351.138963 331.953613 
z
" style="fill:#ff0000;"/>
   </g>
   <g id="patch_87">
    <path clip-path="url(#pe1eb33de36)" d="M 354.472931 384.465965 
L 357.140105 384.465965 
L 357.140105 315.11729 
L 354.472931 315.11729 
z
" style="fill:#ff0000;"/>
   </g>
   <g id="patch_88">
    <path clip-path="url(#pe1eb33de36)" d="M 357.806899 384.465965 
L 360.474073 384.465965 
L 360.474073 326.128019 
L 357.806899 326.128019 
z
" style="fill:#ff0000;"/>
   </g>
   <g id="patch_89">
    <path clip-path="url(#pe1eb33de36)" d="M 361.140867 384.465965 
L 363.808041 384.465965 
L 363.808041 360.912266 
L 361.140867 360.912266 
z
" style="fill:#ff0000;"/>
   </g>
   <g id="patch_90">
    <path clip-path="url(#pe1eb33de36)" d="M 364.474835 384.465965 
L 367.142009 384.465965 
L 367.142009 366.163397 
L 364.474835 366.163397 
z
" style="fill:#ff0000;"/>
   </g>
   <g id="patch_91">
    <path clip-path="url(#pe1eb33de36)" d="M 367.808803 384.465965 
L 370.475977 384.465965 
L 370.475977 374.159441 
L 367.808803 374.159441 
z
" style="fill:#ff0000;"/>
   </g>
   <g id="patch_92">
    <path clip-path="url(#pe1eb33de36)" d="M 371.14277 384.465965 
L 373.809945 384.465965 
L 373.809945 369.085109 
L 371.14277 369.085109 
z
" style="fill:#ff0000;"/>
   </g>
   <g id="patch_93">
    <path clip-path="url(#pe1eb33de36)" d="M 374.476738 384.465965 
L 377.143912 384.465965 
L 377.143912 418.10649 
L 374.476738 418.10649 
z
" style="fill:#808080;"/>
   </g>
   <g id="patch_94">
    <path clip-path="url(#pe1eb33de36)" d="M 377.810706 384.465965 
L 380.47788 384.465965 
L 380.47788 405.033465 
L 377.810706 405.033465 
z
" style="fill:#808080;"/>
   </g>
   <g id="patch_95">
    <path clip-path="url(#pe1eb33de36)" d="M 381.144674 384.465965 
L 383.811848 384.465965 
L 383.811848 396.000252 
L 381.144674 396.000252 
z
" style="fill:#808080;"/>
   </g>
   <g id="patch_96">
    <path clip-path="url(#pe1eb33de36)" d="M 384.478642 384.465965 
L 387.145816 384.465965 
L 387.145816 381.025345 
L 384.478642 381.025345 
z
" style="fill:#ff0000;"/>
   </g>
   <g id="patch_97">
    <path clip-path="url(#pe1eb33de36)" d="M 387.81261 384.465965 
L 390.479784 384.465965 
L 390.479784 394.477496 
L 387.81261 394.477496 
z
" style="fill:#808080;"/>
   </g>
   <g id="patch_98">
    <path clip-path="url(#pe1eb33de36)" d="M 391.146577 384.465965 
L 393.813752 384.465965 
L 393.813752 409.622457 
L 391.146577 409.622457 
z
" style="fill:#808080;"/>
   </g>
   <g id="patch_99">
    <path clip-path="url(#pe1eb33de36)" d="M 394.480545 384.465965 
L 397.147719 384.465965 
L 397.147719 395.477094 
L 394.480545 395.477094 
z
" style="fill:#808080;"/>
   </g>
   <g id="patch_100">
    <path clip-path="url(#pe1eb33de36)" d="M 397.814513 384.465965 
L 400.481687 384.465965 
L 400.481687 403.061739 
L 397.814513 403.061739 
z
" style="fill:#808080;"/>
   </g>
   <g id="patch_101">
    <path clip-path="url(#pe1eb33de36)" d="M 401.148481 384.465965 
L 403.815655 384.465965 
L 403.815655 428.140995 
L 401.148481 428.140995 
z
" style="fill:#808080;"/>
   </g>
   <g id="patch_102">
    <path clip-path="url(#pe1eb33de36)" d="M 404.482449 384.465965 
L 407.149623 384.465965 
L 407.149623 427.693225 
L 404.482449 427.693225 
z
" style="fill:#808080;"/>
   </g>
   <g id="patch_103">
    <path clip-path="url(#pe1eb33de36)" d="M 407.816417 384.465965 
L 410.483591 384.465965 
L 410.483591 445.785428 
L 407.816417 445.785428 
z
" style="fill:#808080;"/>
   </g>
   <g id="patch_104">
    <path clip-path="url(#pe1eb33de36)" d="M 411.150384 384.465965 
L 413.817559 384.465965 
L 413.817559 460.977598 
L 411.150384 460.977598 
z
" style="fill:#808080;"/>
   </g>
   <g id="patch_105">
    <path clip-path="url(#pe1eb33de36)" d="M 414.484352 384.465965 
L 417.151526 384.465965 
L 417.151526 459.167488 
L 414.484352 459.167488 
z
" style="fill:#808080;"/>
   </g>
   <g id="patch_106">
    <path clip-path="url(#pe1eb33de36)" d="M 417.81832 384.465965 
L 420.485494 384.465965 
L 420.485494 486.114904 
L 417.81832 486.114904 
z
" style="fill:#808080;"/>
   </g>
   <g id="patch_107">
    <path clip-path="url(#pe1eb33de36)" d="M 421.152288 384.465965 
L 423.819462 384.465965 
L 423.819462 493.375824 
L 421.152288 493.375824 
z
" style="fill:#808080;"/>
   </g>
   <g id="patch_108">
    <path clip-path="url(#pe1eb33de36)" d="M 424.486256 384.465965 
L 427.15343 384.465965 
L 427.15343 455.834622 
L 424.486256 455.834622 
z
" style="fill:#808080;"/>
   </g>
   <g id="patch_109">
    <path clip-path="url(#pe1eb33de36)" d="M 427.820224 384.465965 
L 430.487398 384.465965 
L 430.487398 442.532292 
L 427.820224 442.532292 
z
" style="fill:#808080;"/>
   </g>
   <g id="patch_110">
    <path clip-path="url(#pe1eb33de36)" d="M 431.154191 384.465965 
L 433.821366 384.465965 
L 433.821366 432.966282 
L 431.154191 432.966282 
z
" style="fill:#808080;"/>
   </g>
   <g id="patch_111">
    <path clip-path="url(#pe1eb33de36)" d="M 434.488159 384.465965 
L 437.155333 384.465965 
L 437.155333 414.963203 
L 434.488159 414.963203 
z
" style="fill:#808080;"/>
   </g>
   <g id="patch_112">
    <path clip-path="url(#pe1eb33de36)" d="M 437.822127 384.465965 
L 440.489301 384.465965 
L 440.489301 408.061176 
L 437.822127 408.061176 
z
" style="fill:#808080;"/>
   </g>
   <g id="patch_113">
    <path clip-path="url(#pe1eb33de36)" d="M 441.156095 384.465965 
L 443.823269 384.465965 
L 443.823269 410.870884 
L 441.156095 410.870884 
z
" style="fill:#808080;"/>
   </g>
   <g id="patch_114">
    <path clip-path="url(#pe1eb33de36)" d="M 444.490063 384.465965 
L 447.157237 384.465965 
L 447.157237 416.965047 
L 444.490063 416.965047 
z
" style="fill:#808080;"/>
   </g>
   <g id="patch_115">
    <path clip-path="url(#pe1eb33de36)" d="M 447.824031 384.465965 
L 450.491205 384.465965 
L 450.491205 411.135358 
L 447.824031 411.135358 
z
" style="fill:#808080;"/>
   </g>
   <g id="patch_116">
    <path clip-path="url(#pe1eb33de36)" d="M 451.157998 384.465965 
L 453.825173 384.465965 
L 453.825173 416.406721 
L 451.157998 416.406721 
z
" style="fill:#808080;"/>
   </g>
   <g id="patch_117">
    <path clip-path="url(#pe1eb33de36)" d="M 454.491966 384.465965 
L 457.15914 384.465965 
L 457.15914 416.721053 
L 454.491966 416.721053 
z
" style="fill:#808080;"/>
   </g>
   <g id="patch_118">
    <path clip-path="url(#pe1eb33de36)" d="M 457.825934 384.465965 
L 460.493108 384.465965 
L 460.493108 399.911707 
L 457.825934 399.911707 
z
" style="fill:#808080;"/>
   </g>
   <g id="patch_119">
    <path clip-path="url(#pe1eb33de36)" d="M 461.159902 384.465965 
L 463.827076 384.465965 
L 463.827076 396.165994 
L 461.159902 396.165994 
z
" style="fill:#808080;"/>
   </g>
   <g id="patch_120">
    <path clip-path="url(#pe1eb33de36)" d="M 464.49387 384.465965 
L 467.161044 384.465965 
L 467.161044 379.599442 
L 464.49387 379.599442 
z
" style="fill:#ff0000;"/>
   </g>
   <g id="patch_121">
    <path clip-path="url(#pe1eb33de36)" d="M 467.827838 384.465965 
L 470.495012 384.465965 
L 470.495012 384.236845 
L 467.827838 384.236845 
z
" style="fill:#ff0000;"/>
   </g>
   <g id="patch_122">
    <path clip-path="url(#pe1eb33de36)" d="M 471.161805 384.465965 
L 473.82898 384.465965 
L 473.82898 389.8117 
L 471.161805 389.8117 
z
" style="fill:#808080;"/>
   </g>
   <g id="patch_123">
    <path clip-path="url(#pe1eb33de36)" d="M 474.495773 384.465965 
L 477.162947 384.465965 
L 477.162947 410.803934 
L 474.495773 410.803934 
z
" style="fill:#808080;"/>
   </g>
   <g id="patch_124">
    <path clip-path="url(#pe1eb33de36)" d="M 477.829741 384.465965 
L 480.496915 384.465965 
L 480.496915 415.360406 
L 477.829741 415.360406 
z
" style="fill:#808080;"/>
   </g>
   <g id="patch_125">
    <path clip-path="url(#pe1eb33de36)" d="M 481.163709 384.465965 
L 483.830883 384.465965 
L 483.830883 409.975838 
L 481.163709 409.975838 
z
" style="fill:#808080;"/>
   </g>
   <g id="patch_126">
    <path clip-path="url(#pe1eb33de36)" d="M 484.497677 384.465965 
L 487.164851 384.465965 
L 487.164851 400.747041 
L 484.497677 400.747041 
z
" style="fill:#808080;"/>
   </g>
   <g id="patch_127">
    <path clip-path="url(#pe1eb33de36)" d="M 487.831644 384.465965 
L 490.498819 384.465965 
L 490.498819 387.653783 
L 487.831644 387.653783 
z
" style="fill:#808080;"/>
   </g>
   <g id="patch_128">
    <path clip-path="url(#pe1eb33de36)" d="M 491.165612 384.465965 
L 493.832787 384.465965 
L 493.832787 383.928303 
L 491.165612 383.928303 
z
" style="fill:#ff0000;"/>
   </g>
   <g id="patch_129">
    <path clip-path="url(#pe1eb33de36)" d="M 494.49958 384.465965 
L 497.166754 384.465965 
L 497.166754 370.673183 
L 494.49958 370.673183 
z
" style="fill:#ff0000;"/>
   </g>
   <g id="patch_130">
    <path clip-path="url(#pe1eb33de36)" d="M 497.833548 384.465965 
L 500.500722 384.465965 
L 500.500722 376.450365 
L 497.833548 376.450365 
z
" style="fill:#ff0000;"/>
   </g>
   <g id="patch_131">
    <path clip-path="url(#pe1eb33de36)" d="M 501.167516 384.465965 
L 503.83469 384.465965 
L 503.83469 388.331104 
L 501.167516 388.331104 
z
" style="fill:#808080;"/>
   </g>
   <g id="patch_132">
    <path clip-path="url(#pe1eb33de36)" d="M 504.501484 384.465965 
L 507.168658 384.465965 
L 507.168658 387.977754 
L 504.501484 387.977754 
z
" style="fill:#808080;"/>
   </g>
   <g id="patch_133">
    <path clip-path="url(#pe1eb33de36)" d="M 507.835451 384.465965 
L 510.502626 384.465965 
L 510.502626 381.042006 
L 507.835451 381.042006 
z
" style="fill:#ff0000;"/>
   </g>
   <g id="patch_134">
    <path clip-path="url(#pe1eb33de36)" d="M 511.169419 384.465965 
L 513.836594 384.465965 
L 513.836594 378.557469 
L 511.169419 378.557469 
z
" style="fill:#ff0000;"/>
   </g>
   <g id="patch_135">
    <path clip-path="url(#pe1eb33de36)" d="M 514.503387 384.465965 
L 517.170561 384.465965 
L 517.170561 371.338462 
L 514.503387 371.338462 
z
" style="fill:#ff0000;"/>
   </g>
   <g id="patch_136">
    <path clip-path="url(#pe1eb33de36)" d="M 517.837355 384.465965 
L 520.504529 384.465965 
L 520.504529 373.109554 
L 517.837355 373.109554 
z
" style="fill:#ff0000;"/>
   </g>
   <g id="patch_137">
    <path clip-path="url(#pe1eb33de36)" d="M 521.171323 384.465965 
L 523.838497 384.465965 
L 523.838497 382.157704 
L 521.171323 382.157704 
z
" style="fill:#ff0000;"/>
   </g>
   <g id="patch_138">
    <path clip-path="url(#pe1eb33de36)" d="M 524.505291 384.465965 
L 527.172465 384.465965 
L 527.172465 397.51848 
L 524.505291 397.51848 
z
" style="fill:#808080;"/>
   </g>
   <g id="patch_139">
    <path clip-path="url(#pe1eb33de36)" d="M 527.839258 384.465965 
L 530.506433 384.465965 
L 530.506433 392.437404 
L 527.839258 392.437404 
z
" style="fill:#808080;"/>
   </g>
   <g id="patch_140">
    <path clip-path="url(#pe1eb33de36)" d="M 531.173226 384.465965 
L 533.840401 384.465965 
L 533.840401 407.042824 
L 531.173226 407.042824 
z
" style="fill:#808080;"/>
   </g>
   <g id="patch_141">
    <path clip-path="url(#pe1eb33de36)" d="M 534.507194 384.465965 
L 537.174368 384.465965 
L 537.174368 403.492694 
L 534.507194 403.492694 
z
" style="fill:#808080;"/>
   </g>
   <g id="patch_142">
    <path clip-path="url(#pe1eb33de36)" d="M 537.841162 384.465965 
L 540.508336 384.465965 
L 540.508336 391.835964 
L 537.841162 391.835964 
z
" style="fill:#808080;"/>
   </g>
   <g id="patch_143">
    <path clip-path="url(#pe1eb33de36)" d="M 541.17513 384.465965 
L 543.842304 384.465965 
L 543.842304 384.461839 
L 541.17513 384.461839 
z
" style="fill:#ff0000;"/>
   </g>
   <g id="patch_144">
    <path clip-path="url(#pe1eb33de36)" d="M 544.509098 384.465965 
L 547.176272 384.465965 
L 547.176272 397.307006 
L 544.509098 397.307006 
z
" style="fill:#808080;"/>
   </g>
   <g id="patch_145">
    <path clip-path="url(#pe1eb33de36)" d="M 547.843065 384.465965 
L 550.51024 384.465965 
L 550.51024 384.47003 
L 547.843065 384.47003 
z
" style="fill:#808080;"/>
   </g>
   <g id="matplotlib.axis_3">
    <g id="xtick_6">
     <g id="line2d_17">
      <g>
       <use style="stroke:#000000;stroke-width:0.8;" x="95.757027" xlink:href="#m1e84e9595e" y="502.736859"/>
      </g>
     </g>
     <g id="text_16">
      <!-- 2018-10-09 -->
      <g transform="translate(23.839796 559.630413)rotate(-30)scale(0.14 -0.14)">
       <use xlink:href="#DejaVuSans-50"/>
       <use x="63.623047" xlink:href="#DejaVuSans-48"/>
       <use x="127.246094" xlink:href="#DejaVuSans-49"/>
       <use x="190.869141" xlink:href="#DejaVuSans-56"/>
       <use x="254.492188" xlink:href="#DejaVuSans-45"/>
       <use x="290.576172" xlink:href="#DejaVuSans-49"/>
       <use x="354.199219" xlink:href="#DejaVuSans-48"/>
       <use x="417.822266" xlink:href="#DejaVuSans-45"/>
       <use x="453.90625" xlink:href="#DejaVuSans-48"/>
       <use x="517.529297" xlink:href="#DejaVuSans-57"/>
      </g>
     </g>
    </g>
    <g id="xtick_7">
     <g id="line2d_18">
      <g>
       <use style="stroke:#000000;stroke-width:0.8;" x="195.776062" xlink:href="#m1e84e9595e" y="502.736859"/>
      </g>
     </g>
     <g id="text_17">
      <!-- 2018-11-20 -->
      <g transform="translate(123.858831 559.630413)rotate(-30)scale(0.14 -0.14)">
       <use xlink:href="#DejaVuSans-50"/>
       <use x="63.623047" xlink:href="#DejaVuSans-48"/>
       <use x="127.246094" xlink:href="#DejaVuSans-49"/>
       <use x="190.869141" xlink:href="#DejaVuSans-56"/>
       <use x="254.492188" xlink:href="#DejaVuSans-45"/>
       <use x="290.576172" xlink:href="#DejaVuSans-49"/>
       <use x="354.199219" xlink:href="#DejaVuSans-49"/>
       <use x="417.822266" xlink:href="#DejaVuSans-45"/>
       <use x="453.90625" xlink:href="#DejaVuSans-50"/>
       <use x="517.529297" xlink:href="#DejaVuSans-48"/>
      </g>
     </g>
    </g>
    <g id="xtick_8">
     <g id="line2d_19">
      <g>
       <use style="stroke:#000000;stroke-width:0.8;" x="295.795097" xlink:href="#m1e84e9595e" y="502.736859"/>
      </g>
     </g>
     <g id="text_18">
      <!-- 2019-01-07 -->
      <g transform="translate(223.877865 559.630413)rotate(-30)scale(0.14 -0.14)">
       <use xlink:href="#DejaVuSans-50"/>
       <use x="63.623047" xlink:href="#DejaVuSans-48"/>
       <use x="127.246094" xlink:href="#DejaVuSans-49"/>
       <use x="190.869141" xlink:href="#DejaVuSans-57"/>
       <use x="254.492188" xlink:href="#DejaVuSans-45"/>
       <use x="290.576172" xlink:href="#DejaVuSans-48"/>
       <use x="354.199219" xlink:href="#DejaVuSans-49"/>
       <use x="417.822266" xlink:href="#DejaVuSans-45"/>
       <use x="453.90625" xlink:href="#DejaVuSans-48"/>
       <use x="517.529297" xlink:href="#DejaVuSans-55"/>
      </g>
     </g>
    </g>
    <g id="xtick_9">
     <g id="line2d_20">
      <g>
       <use style="stroke:#000000;stroke-width:0.8;" x="395.814132" xlink:href="#m1e84e9595e" y="502.736859"/>
      </g>
     </g>
     <g id="text_19">
      <!-- 2019-02-20 -->
      <g transform="translate(323.8969 559.630413)rotate(-30)scale(0.14 -0.14)">
       <use xlink:href="#DejaVuSans-50"/>
       <use x="63.623047" xlink:href="#DejaVuSans-48"/>
       <use x="127.246094" xlink:href="#DejaVuSans-49"/>
       <use x="190.869141" xlink:href="#DejaVuSans-57"/>
       <use x="254.492188" xlink:href="#DejaVuSans-45"/>
       <use x="290.576172" xlink:href="#DejaVuSans-48"/>
       <use x="354.199219" xlink:href="#DejaVuSans-50"/>
       <use x="417.822266" xlink:href="#DejaVuSans-45"/>
       <use x="453.90625" xlink:href="#DejaVuSans-50"/>
       <use x="517.529297" xlink:href="#DejaVuSans-48"/>
      </g>
     </g>
    </g>
    <g id="xtick_10">
     <g id="line2d_21">
      <g>
       <use style="stroke:#000000;stroke-width:0.8;" x="495.833167" xlink:href="#m1e84e9595e" y="502.736859"/>
      </g>
     </g>
     <g id="text_20">
      <!-- 2019-04-03 -->
      <g transform="translate(423.915935 559.630413)rotate(-30)scale(0.14 -0.14)">
       <use xlink:href="#DejaVuSans-50"/>
       <use x="63.623047" xlink:href="#DejaVuSans-48"/>
       <use x="127.246094" xlink:href="#DejaVuSans-49"/>
       <use x="190.869141" xlink:href="#DejaVuSans-57"/>
       <use x="254.492188" xlink:href="#DejaVuSans-45"/>
       <use x="290.576172" xlink:href="#DejaVuSans-48"/>
       <use x="354.199219" xlink:href="#DejaVuSans-52"/>
       <use x="417.822266" xlink:href="#DejaVuSans-45"/>
       <use x="453.90625" xlink:href="#DejaVuSans-48"/>
       <use x="517.529297" xlink:href="#DejaVuSans-51"/>
      </g>
     </g>
    </g>
   </g>
   <g id="matplotlib.axis_4">
    <g id="ytick_6">
     <g id="line2d_22">
      <g>
       <use style="stroke:#000000;stroke-width:0.8;" x="71.6191" xlink:href="#m39dc71479d" y="485.629872"/>
      </g>
     </g>
     <g id="text_21">
      <!-- 150 -->
      <defs>
       <path d="M 10.59375 35.5 
L 73.1875 35.5 
L 73.1875 27.203125 
L 10.59375 27.203125 
z
" id="DejaVuSans-8722"/>
      </defs>
      <g transform="translate(26.165038 490.948778)scale(0.14 -0.14)">
       <use xlink:href="#DejaVuSans-8722"/>
       <use x="83.789062" xlink:href="#DejaVuSans-49"/>
       <use x="147.412109" xlink:href="#DejaVuSans-53"/>
       <use x="211.035156" xlink:href="#DejaVuSans-48"/>
      </g>
     </g>
    </g>
    <g id="ytick_7">
     <g id="line2d_23">
      <g>
       <use style="stroke:#000000;stroke-width:0.8;" x="71.6191" xlink:href="#m39dc71479d" y="451.908569"/>
      </g>
     </g>
     <g id="text_22">
      <!-- 100 -->
      <g transform="translate(26.165038 457.227476)scale(0.14 -0.14)">
       <use xlink:href="#DejaVuSans-8722"/>
       <use x="83.789062" xlink:href="#DejaVuSans-49"/>
       <use x="147.412109" xlink:href="#DejaVuSans-48"/>
       <use x="211.035156" xlink:href="#DejaVuSans-48"/>
      </g>
     </g>
    </g>
    <g id="ytick_8">
     <g id="line2d_24">
      <g>
       <use style="stroke:#000000;stroke-width:0.8;" x="71.6191" xlink:href="#m39dc71479d" y="418.187267"/>
      </g>
     </g>
     <g id="text_23">
      <!-- 50 -->
      <g transform="translate(35.072538 423.506173)scale(0.14 -0.14)">
       <use xlink:href="#DejaVuSans-8722"/>
       <use x="83.789062" xlink:href="#DejaVuSans-53"/>
       <use x="147.412109" xlink:href="#DejaVuSans-48"/>
      </g>
     </g>
    </g>
    <g id="ytick_9">
     <g id="line2d_25">
      <g>
       <use style="stroke:#000000;stroke-width:0.8;" x="71.6191" xlink:href="#m39dc71479d" y="384.465965"/>
      </g>
     </g>
     <g id="text_24">
      <!-- 0 -->
      <g transform="translate(55.7116 389.784871)scale(0.14 -0.14)">
       <use xlink:href="#DejaVuSans-48"/>
      </g>
     </g>
    </g>
    <g id="ytick_10">
     <g id="line2d_26">
      <g>
       <use style="stroke:#000000;stroke-width:0.8;" x="71.6191" xlink:href="#m39dc71479d" y="350.744663"/>
      </g>
     </g>
     <g id="text_25">
      <!-- 50 -->
      <g transform="translate(46.8041 356.063569)scale(0.14 -0.14)">
       <use xlink:href="#DejaVuSans-53"/>
       <use x="63.623047" xlink:href="#DejaVuSans-48"/>
      </g>
     </g>
    </g>
    <g id="ytick_11">
     <g id="line2d_27">
      <g>
       <use style="stroke:#000000;stroke-width:0.8;" x="71.6191" xlink:href="#m39dc71479d" y="317.02336"/>
      </g>
     </g>
     <g id="text_26">
      <!-- 100 -->
      <g transform="translate(37.8966 322.342266)scale(0.14 -0.14)">
       <use xlink:href="#DejaVuSans-49"/>
       <use x="63.623047" xlink:href="#DejaVuSans-48"/>
       <use x="127.246094" xlink:href="#DejaVuSans-48"/>
      </g>
     </g>
    </g>
    <g id="text_27">
     <!-- Price Difference from Trend -->
     <defs>
      <path d="M 37.109375 75.984375 
L 37.109375 68.5 
L 28.515625 68.5 
Q 23.6875 68.5 21.796875 66.546875 
Q 19.921875 64.59375 19.921875 59.515625 
L 19.921875 54.6875 
L 34.71875 54.6875 
L 34.71875 47.703125 
L 19.921875 47.703125 
L 19.921875 0 
L 10.890625 0 
L 10.890625 47.703125 
L 2.296875 47.703125 
L 2.296875 54.6875 
L 10.890625 54.6875 
L 10.890625 58.5 
Q 10.890625 67.625 15.140625 71.796875 
Q 19.390625 75.984375 28.609375 75.984375 
z
" id="DejaVuSans-102"/>
      <path d="M 52 44.1875 
Q 55.375 50.25 60.0625 53.125 
Q 64.75 56 71.09375 56 
Q 79.640625 56 84.28125 50.015625 
Q 88.921875 44.046875 88.921875 33.015625 
L 88.921875 0 
L 79.890625 0 
L 79.890625 32.71875 
Q 79.890625 40.578125 77.09375 44.375 
Q 74.3125 48.1875 68.609375 48.1875 
Q 61.625 48.1875 57.5625 43.546875 
Q 53.515625 38.921875 53.515625 30.90625 
L 53.515625 0 
L 44.484375 0 
L 44.484375 32.71875 
Q 44.484375 40.625 41.703125 44.40625 
Q 38.921875 48.1875 33.109375 48.1875 
Q 26.21875 48.1875 22.15625 43.53125 
Q 18.109375 38.875 18.109375 30.90625 
L 18.109375 0 
L 9.078125 0 
L 9.078125 54.6875 
L 18.109375 54.6875 
L 18.109375 46.1875 
Q 21.1875 51.21875 25.484375 53.609375 
Q 29.78125 56 35.6875 56 
Q 41.65625 56 45.828125 52.96875 
Q 50 49.953125 52 44.1875 
z
" id="DejaVuSans-109"/>
      <path d="M -0.296875 72.90625 
L 61.375 72.90625 
L 61.375 64.59375 
L 35.5 64.59375 
L 35.5 0 
L 25.59375 0 
L 25.59375 64.59375 
L -0.296875 64.59375 
z
" id="DejaVuSans-84"/>
     </defs>
     <g transform="translate(19.253475 496.747192)rotate(-90)scale(0.14 -0.14)">
      <use xlink:href="#DejaVuSans-80"/>
      <use x="60.287109" xlink:href="#DejaVuSans-114"/>
      <use x="101.400391" xlink:href="#DejaVuSans-105"/>
      <use x="129.183594" xlink:href="#DejaVuSans-99"/>
      <use x="184.164062" xlink:href="#DejaVuSans-101"/>
      <use x="245.6875" xlink:href="#DejaVuSans-32"/>
      <use x="277.474609" xlink:href="#DejaVuSans-68"/>
      <use x="354.476562" xlink:href="#DejaVuSans-105"/>
      <use x="382.259766" xlink:href="#DejaVuSans-102"/>
      <use x="417.464844" xlink:href="#DejaVuSans-102"/>
      <use x="452.669922" xlink:href="#DejaVuSans-101"/>
      <use x="514.193359" xlink:href="#DejaVuSans-114"/>
      <use x="555.275391" xlink:href="#DejaVuSans-101"/>
      <use x="616.798828" xlink:href="#DejaVuSans-110"/>
      <use x="680.177734" xlink:href="#DejaVuSans-99"/>
      <use x="735.158203" xlink:href="#DejaVuSans-101"/>
      <use x="796.681641" xlink:href="#DejaVuSans-32"/>
      <use x="828.46875" xlink:href="#DejaVuSans-102"/>
      <use x="863.673828" xlink:href="#DejaVuSans-114"/>
      <use x="904.755859" xlink:href="#DejaVuSans-111"/>
      <use x="965.9375" xlink:href="#DejaVuSans-109"/>
      <use x="1063.349609" xlink:href="#DejaVuSans-32"/>
      <use x="1095.136719" xlink:href="#DejaVuSans-84"/>
      <use x="1156.001953" xlink:href="#DejaVuSans-114"/>
      <use x="1197.083984" xlink:href="#DejaVuSans-101"/>
      <use x="1258.607422" xlink:href="#DejaVuSans-110"/>
      <use x="1321.986328" xlink:href="#DejaVuSans-100"/>
     </g>
    </g>
   </g>
   <g id="patch_146">
    <path d="M 71.6191 502.736859 
L 71.6191 296.794088 
" style="fill:none;stroke:#000000;stroke-linecap:square;stroke-linejoin:miter;stroke-width:0.8;"/>
   </g>
   <g id="patch_147">
    <path d="M 573.31458 502.736859 
L 573.31458 296.794088 
" style="fill:none;stroke:#000000;stroke-linecap:square;stroke-linejoin:miter;stroke-width:0.8;"/>
   </g>
   <g id="patch_148">
    <path d="M 71.6191 502.736859 
L 573.31458 502.736859 
" style="fill:none;stroke:#000000;stroke-linecap:square;stroke-linejoin:miter;stroke-width:0.8;"/>
   </g>
   <g id="patch_149">
    <path d="M 71.6191 296.794088 
L 573.31458 296.794088 
" style="fill:none;stroke:#000000;stroke-linecap:square;stroke-linejoin:miter;stroke-width:0.8;"/>
   </g>
   <g id="text_28">
    <!-- S=6000.5, $\frac{6000.5}{137}$=43.8$\frac{\$}{day}$ -->
    <defs>
     <path d="M 53.515625 70.515625 
L 53.515625 60.890625 
Q 47.90625 63.578125 42.921875 64.890625 
Q 37.9375 66.21875 33.296875 66.21875 
Q 25.25 66.21875 20.875 63.09375 
Q 16.5 59.96875 16.5 54.203125 
Q 16.5 49.359375 19.40625 46.890625 
Q 22.3125 44.4375 30.421875 42.921875 
L 36.375 41.703125 
Q 47.40625 39.59375 52.65625 34.296875 
Q 57.90625 29 57.90625 20.125 
Q 57.90625 9.515625 50.796875 4.046875 
Q 43.703125 -1.421875 29.984375 -1.421875 
Q 24.8125 -1.421875 18.96875 -0.25 
Q 13.140625 0.921875 6.890625 3.21875 
L 6.890625 13.375 
Q 12.890625 10.015625 18.65625 8.296875 
Q 24.421875 6.59375 29.984375 6.59375 
Q 38.421875 6.59375 43.015625 9.90625 
Q 47.609375 13.234375 47.609375 19.390625 
Q 47.609375 24.75 44.3125 27.78125 
Q 41.015625 30.8125 33.5 32.328125 
L 27.484375 33.5 
Q 16.453125 35.6875 11.515625 40.375 
Q 6.59375 45.0625 6.59375 53.421875 
Q 6.59375 63.09375 13.40625 68.65625 
Q 20.21875 74.21875 32.171875 74.21875 
Q 37.3125 74.21875 42.625 73.28125 
Q 47.953125 72.359375 53.515625 70.515625 
z
" id="DejaVuSans-83"/>
     <path d="M 10.59375 45.40625 
L 73.1875 45.40625 
L 73.1875 37.203125 
L 10.59375 37.203125 
z
M 10.59375 25.484375 
L 73.1875 25.484375 
L 73.1875 17.1875 
L 10.59375 17.1875 
z
" id="DejaVuSans-61"/>
     <path d="M 10.6875 12.40625 
L 21 12.40625 
L 21 0 
L 10.6875 0 
z
" id="DejaVuSans-46"/>
     <path d="M 11.71875 12.40625 
L 22.015625 12.40625 
L 22.015625 4 
L 14.015625 -11.625 
L 7.71875 -11.625 
L 11.71875 4 
z
" id="DejaVuSans-44"/>
     <path d="M 33.796875 -14.703125 
L 28.90625 -14.703125 
L 28.859375 0 
Q 23.734375 0.09375 18.609375 1.1875 
Q 13.484375 2.296875 8.296875 4.5 
L 8.296875 13.28125 
Q 13.28125 10.15625 18.375 8.5625 
Q 23.484375 6.984375 28.90625 6.9375 
L 28.90625 29.203125 
Q 18.109375 30.953125 13.203125 35.15625 
Q 8.296875 39.359375 8.296875 46.6875 
Q 8.296875 54.640625 13.625 59.21875 
Q 18.953125 63.8125 28.90625 64.5 
L 28.90625 75.984375 
L 33.796875 75.984375 
L 33.796875 64.65625 
Q 38.328125 64.453125 42.578125 63.6875 
Q 46.828125 62.9375 50.875 61.625 
L 50.875 53.078125 
Q 46.828125 55.125 42.546875 56.25 
Q 38.28125 57.375 33.796875 57.5625 
L 33.796875 36.71875 
Q 44.875 35.015625 50.09375 30.609375 
Q 55.328125 26.21875 55.328125 18.609375 
Q 55.328125 10.359375 49.78125 5.59375 
Q 44.234375 0.828125 33.796875 0.09375 
z
M 28.90625 37.59375 
L 28.90625 57.625 
Q 23.25 56.984375 20.265625 54.390625 
Q 17.28125 51.8125 17.28125 47.515625 
Q 17.28125 43.3125 20.03125 40.96875 
Q 22.796875 38.625 28.90625 37.59375 
z
M 33.796875 28.21875 
L 33.796875 7.078125 
Q 39.984375 7.90625 43.140625 10.59375 
Q 46.296875 13.28125 46.296875 17.671875 
Q 46.296875 21.96875 43.28125 24.5 
Q 40.28125 27.046875 33.796875 28.21875 
z
" id="DejaVuSans-36"/>
     <path d="M 41.796875 8.203125 
Q 38.1875 3.46875 33.25 1.015625 
Q 28.328125 -1.421875 22.3125 -1.421875 
Q 14.109375 -1.421875 9.34375 4.171875 
Q 4.59375 9.765625 4.59375 19.484375 
Q 4.59375 27.59375 7.46875 34.9375 
Q 10.359375 42.28125 15.828125 48.09375 
Q 19.4375 51.953125 23.96875 53.96875 
Q 28.515625 56 33.5 56 
Q 38.765625 56 42.796875 53.453125 
Q 46.828125 50.921875 49.03125 46.1875 
L 54.890625 75.984375 
L 63.921875 75.984375 
L 49.125 0 
L 40.09375 0 
z
M 13.921875 21.09375 
Q 13.921875 14.015625 17.109375 10.0625 
Q 20.3125 6.109375 25.984375 6.109375 
Q 30.171875 6.109375 33.765625 8.125 
Q 37.359375 10.15625 40.09375 14.109375 
Q 42.96875 18.21875 44.625 23.578125 
Q 46.296875 28.953125 46.296875 34.1875 
Q 46.296875 40.96875 43.09375 44.765625 
Q 39.890625 48.578125 34.28125 48.578125 
Q 30.03125 48.578125 26.359375 46.578125 
Q 22.703125 44.578125 20.125 40.828125 
Q 17.28125 36.765625 15.59375 31.390625 
Q 13.921875 26.03125 13.921875 21.09375 
z
" id="DejaVuSans-Oblique-100"/>
     <path d="M 53.71875 31.203125 
L 47.609375 0 
L 38.625 0 
L 40.28125 8.296875 
Q 36.328125 3.421875 31.265625 1 
Q 26.21875 -1.421875 20.015625 -1.421875 
Q 13.03125 -1.421875 8.5625 2.84375 
Q 4.109375 7.125 4.109375 13.8125 
Q 4.109375 23.390625 11.75 28.953125 
Q 19.390625 34.515625 32.8125 34.515625 
L 45.3125 34.515625 
L 45.796875 36.921875 
Q 45.90625 37.3125 45.953125 37.765625 
Q 46 38.234375 46 39.203125 
Q 46 43.5625 42.453125 45.96875 
Q 38.921875 48.390625 32.515625 48.390625 
Q 28.125 48.390625 23.5 47.265625 
Q 18.890625 46.140625 14.015625 43.890625 
L 15.578125 52.203125 
Q 20.65625 54.109375 25.515625 55.046875 
Q 30.375 56 34.90625 56 
Q 44.578125 56 49.625 51.796875 
Q 54.6875 47.609375 54.6875 39.59375 
Q 54.6875 37.984375 54.4375 35.8125 
Q 54.203125 33.640625 53.71875 31.203125 
z
M 44 27.484375 
L 35.015625 27.484375 
Q 23.96875 27.484375 18.671875 24.53125 
Q 13.375 21.578125 13.375 15.375 
Q 13.375 11.078125 16.078125 8.640625 
Q 18.796875 6.203125 23.578125 6.203125 
Q 30.90625 6.203125 36.375 11.453125 
Q 41.84375 16.703125 43.609375 25.484375 
z
" id="DejaVuSans-Oblique-97"/>
     <path d="M 24.8125 -5.078125 
Q 18.5625 -15.578125 14.625 -18.1875 
Q 10.6875 -20.796875 4.59375 -20.796875 
L -2.484375 -20.796875 
L -0.984375 -13.28125 
L 4.203125 -13.28125 
Q 7.953125 -13.28125 10.59375 -11.234375 
Q 13.234375 -9.1875 16.5 -3.21875 
L 19.28125 2 
L 7.171875 54.6875 
L 16.703125 54.6875 
L 25.78125 12.796875 
L 50.875 54.6875 
L 60.296875 54.6875 
z
" id="DejaVuSans-Oblique-121"/>
    </defs>
    <g transform="translate(95.757027 434.435792)scale(0.14 -0.14)">
     <use transform="translate(0 0.721875)" xlink:href="#DejaVuSans-83"/>
     <use transform="translate(63.476562 0.721875)" xlink:href="#DejaVuSans-61"/>
     <use transform="translate(147.265625 0.721875)" xlink:href="#DejaVuSans-54"/>
     <use transform="translate(210.888672 0.721875)" xlink:href="#DejaVuSans-48"/>
     <use transform="translate(274.511719 0.721875)" xlink:href="#DejaVuSans-48"/>
     <use transform="translate(338.134766 0.721875)" xlink:href="#DejaVuSans-48"/>
     <use transform="translate(401.757812 0.721875)" xlink:href="#DejaVuSans-46"/>
     <use transform="translate(433.544922 0.721875)" xlink:href="#DejaVuSans-53"/>
     <use transform="translate(497.167969 0.721875)" xlink:href="#DejaVuSans-44"/>
     <use transform="translate(528.955078 0.721875)" xlink:href="#DejaVuSans-32"/>
     <use transform="translate(560.742188 45.514063)scale(0.7)" xlink:href="#DejaVuSans-54"/>
     <use transform="translate(605.27832 45.514063)scale(0.7)" xlink:href="#DejaVuSans-48"/>
     <use transform="translate(649.814453 45.514063)scale(0.7)" xlink:href="#DejaVuSans-48"/>
     <use transform="translate(694.350586 45.514063)scale(0.7)" xlink:href="#DejaVuSans-48"/>
     <use transform="translate(738.886719 45.514063)scale(0.7)" xlink:href="#DejaVuSans-46"/>
     <use transform="translate(761.137695 45.514063)scale(0.7)" xlink:href="#DejaVuSans-53"/>
     <use transform="translate(616.742188 -38.684375)scale(0.7)" xlink:href="#DejaVuSans-49"/>
     <use transform="translate(661.27832 -38.684375)scale(0.7)" xlink:href="#DejaVuSans-51"/>
     <use transform="translate(705.814453 -38.684375)scale(0.7)" xlink:href="#DejaVuSans-55"/>
     <use transform="translate(818.173828 0.721875)" xlink:href="#DejaVuSans-61"/>
     <use transform="translate(901.962891 0.721875)" xlink:href="#DejaVuSans-52"/>
     <use transform="translate(965.585938 0.721875)" xlink:href="#DejaVuSans-51"/>
     <use transform="translate(1029.208984 0.721875)" xlink:href="#DejaVuSans-46"/>
     <use transform="translate(1060.964844 0.721875)" xlink:href="#DejaVuSans-56"/>
     <use transform="translate(1166.587891 54.810938)scale(0.7)" xlink:href="#DejaVuSans-36"/>
     <use transform="translate(1124.587891 -39.920312)scale(0.7)" xlink:href="#DejaVuSans-Oblique-100"/>
     <use transform="translate(1169.021484 -39.920312)scale(0.7)" xlink:href="#DejaVuSans-Oblique-97"/>
     <use transform="translate(1211.916992 -39.920312)scale(0.7)" xlink:href="#DejaVuSans-Oblique-121"/>
     <path d="M 560.742188 19.51875 
L 560.742188 25.76875 
L 805.673828 25.76875 
L 805.673828 19.51875 
L 560.742188 19.51875 
z
"/>
     <path d="M 1124.587891 19.51875 
L 1124.587891 25.76875 
L 1253.342773 25.76875 
L 1253.342773 19.51875 
L 1124.587891 19.51875 
z
"/>
    </g>
    <!-- Reimann Sum where $\Delta x=x_i-x_{i-1}$, -->
    <defs>
     <path d="M 8.5 21.578125 
L 8.5 54.6875 
L 17.484375 54.6875 
L 17.484375 21.921875 
Q 17.484375 14.15625 20.5 10.265625 
Q 23.53125 6.390625 29.59375 6.390625 
Q 36.859375 6.390625 41.078125 11.03125 
Q 45.3125 15.671875 45.3125 23.6875 
L 45.3125 54.6875 
L 54.296875 54.6875 
L 54.296875 0 
L 45.3125 0 
L 45.3125 8.40625 
Q 42.046875 3.421875 37.71875 1 
Q 33.40625 -1.421875 27.6875 -1.421875 
Q 18.265625 -1.421875 13.375 4.4375 
Q 8.5 10.296875 8.5 21.578125 
z
M 31.109375 56 
z
" id="DejaVuSans-117"/>
     <path d="M 34.1875 63.1875 
L 14.15625 8.203125 
L 54.25 8.203125 
z
M 0.78125 0 
L 28.609375 72.90625 
L 39.796875 72.90625 
L 67.578125 0 
z
" id="DejaVuSans-916"/>
     <path d="M 60.015625 54.6875 
L 34.90625 27.875 
L 50.296875 0 
L 39.984375 0 
L 28.421875 21.6875 
L 8.296875 0 
L -2.59375 0 
L 24.3125 28.8125 
L 10.015625 54.6875 
L 20.3125 54.6875 
L 30.8125 34.90625 
L 49.125 54.6875 
z
" id="DejaVuSans-Oblique-120"/>
     <path d="M 18.3125 75.984375 
L 27.296875 75.984375 
L 25.09375 64.59375 
L 16.109375 64.59375 
z
M 14.203125 54.6875 
L 23.1875 54.6875 
L 12.5 0 
L 3.515625 0 
z
" id="DejaVuSans-Oblique-105"/>
    </defs>
    <g transform="translate(95.757027 455.041167)scale(0.14 -0.14)">
     <use transform="translate(0 0.015625)" xlink:href="#DejaVuSans-82"/>
     <use transform="translate(69.482422 0.015625)" xlink:href="#DejaVuSans-101"/>
     <use transform="translate(131.005859 0.015625)" xlink:href="#DejaVuSans-105"/>
     <use transform="translate(158.789062 0.015625)" xlink:href="#DejaVuSans-109"/>
     <use transform="translate(256.201172 0.015625)" xlink:href="#DejaVuSans-97"/>
     <use transform="translate(317.480469 0.015625)" xlink:href="#DejaVuSans-110"/>
     <use transform="translate(380.859375 0.015625)" xlink:href="#DejaVuSans-110"/>
     <use transform="translate(444.238281 0.015625)" xlink:href="#DejaVuSans-32"/>
     <use transform="translate(476.025391 0.015625)" xlink:href="#DejaVuSans-83"/>
     <use transform="translate(539.501953 0.015625)" xlink:href="#DejaVuSans-117"/>
     <use transform="translate(602.880859 0.015625)" xlink:href="#DejaVuSans-109"/>
     <use transform="translate(700.292969 0.015625)" xlink:href="#DejaVuSans-32"/>
     <use transform="translate(732.080078 0.015625)" xlink:href="#DejaVuSans-119"/>
     <use transform="translate(813.867188 0.015625)" xlink:href="#DejaVuSans-104"/>
     <use transform="translate(877.246094 0.015625)" xlink:href="#DejaVuSans-101"/>
     <use transform="translate(938.769531 0.015625)" xlink:href="#DejaVuSans-114"/>
     <use transform="translate(979.882812 0.015625)" xlink:href="#DejaVuSans-101"/>
     <use transform="translate(1041.40625 0.015625)" xlink:href="#DejaVuSans-32"/>
     <use transform="translate(1073.193359 0.015625)" xlink:href="#DejaVuSans-916"/>
     <use transform="translate(1141.601562 0.015625)" xlink:href="#DejaVuSans-Oblique-120"/>
     <use transform="translate(1220.263672 0.015625)" xlink:href="#DejaVuSans-61"/>
     <use transform="translate(1323.535156 0.015625)" xlink:href="#DejaVuSans-Oblique-120"/>
     <use transform="translate(1382.714844 -16.390625)scale(0.7)" xlink:href="#DejaVuSans-Oblique-105"/>
     <use transform="translate(1424.379883 0.015625)" xlink:href="#DejaVuSans-8722"/>
     <use transform="translate(1527.651367 0.015625)" xlink:href="#DejaVuSans-Oblique-120"/>
     <use transform="translate(1586.831055 -16.390625)scale(0.7)" xlink:href="#DejaVuSans-Oblique-105"/>
     <use transform="translate(1619.916992 -16.390625)scale(0.7)" xlink:href="#DejaVuSans-8722"/>
     <use transform="translate(1692.207031 -16.390625)scale(0.7)" xlink:href="#DejaVuSans-49"/>
     <use transform="translate(1739.477539 0.015625)" xlink:href="#DejaVuSans-44"/>
    </g>
    <!-- $x_i^* \in [x_{i-1}, x_i]$: $S=\sum_{i=1}^n{f(x_i^*)\Delta x_i}$ -->
    <defs>
     <path d="M 47.015625 60.890625 
L 29.5 51.421875 
L 47.015625 41.890625 
L 44.1875 37.109375 
L 27.78125 47.015625 
L 27.78125 28.609375 
L 22.21875 28.609375 
L 22.21875 47.015625 
L 5.8125 37.109375 
L 2.984375 41.890625 
L 20.515625 51.421875 
L 2.984375 60.890625 
L 5.8125 65.71875 
L 22.21875 55.8125 
L 22.21875 74.21875 
L 27.78125 74.21875 
L 27.78125 55.8125 
L 44.1875 65.71875 
z
" id="DejaVuSans-42"/>
     <path d="M 16.75 30.609375 
Q 17.09375 27 20.171875 21.140625 
Q 23.78125 14.359375 30.609375 10.546875 
Q 37.3125 6.84375 44.53125 6.78125 
L 78.5625 6.78125 
L 78.5625 -0.984375 
L 44.53125 -0.984375 
Q 35.15625 -0.984375 26.484375 3.84375 
Q 17.828125 8.6875 13.1875 17.28125 
Q 8.546875 25.875 8.546875 35.015625 
Q 8.546875 44.046875 13.1875 52.640625 
Q 17.828125 61.234375 26.484375 66.109375 
Q 35.15625 71 44.53125 71 
L 78.5625 71 
L 78.5625 63.234375 
L 44.53125 63.234375 
Q 37.3125 63.1875 30.609375 59.421875 
Q 23.828125 55.5625 20.171875 48.828125 
Q 17.046875 42.96875 16.609375 38.421875 
L 78.5625 38.421875 
L 78.5625 30.609375 
z
" id="DejaVuSans-8712"/>
     <path d="M 8.59375 75.984375 
L 29.296875 75.984375 
L 29.296875 69 
L 17.578125 69 
L 17.578125 -6.203125 
L 29.296875 -6.203125 
L 29.296875 -13.1875 
L 8.59375 -13.1875 
z
" id="DejaVuSans-91"/>
     <path d="M 30.421875 75.984375 
L 30.421875 -13.1875 
L 9.71875 -13.1875 
L 9.71875 -6.203125 
L 21.390625 -6.203125 
L 21.390625 69 
L 9.71875 69 
L 9.71875 75.984375 
z
" id="DejaVuSans-93"/>
     <path d="M 11.71875 12.40625 
L 22.015625 12.40625 
L 22.015625 0 
L 11.71875 0 
z
M 11.71875 51.703125 
L 22.015625 51.703125 
L 22.015625 39.3125 
L 11.71875 39.3125 
z
" id="DejaVuSans-58"/>
     <path d="M 60.296875 70.515625 
L 58.40625 60.890625 
Q 53.46875 63.53125 48.609375 64.875 
Q 43.75 66.21875 39.203125 66.21875 
Q 30.375 66.21875 25.140625 62.359375 
Q 19.921875 58.5 19.921875 52.09375 
Q 19.921875 48.578125 21.84375 46.703125 
Q 23.78125 44.828125 31.78125 42.671875 
L 37.703125 41.21875 
Q 47.703125 38.625 51.609375 34.640625 
Q 55.515625 30.671875 55.515625 23.484375 
Q 55.515625 12.453125 46.84375 5.515625 
Q 38.1875 -1.421875 24.03125 -1.421875 
Q 18.21875 -1.421875 12.359375 -0.265625 
Q 6.5 0.875 0.59375 3.21875 
L 2.59375 13.375 
Q 8.015625 10.015625 13.453125 8.296875 
Q 18.890625 6.59375 24.3125 6.59375 
Q 33.546875 6.59375 39.109375 10.6875 
Q 44.671875 14.796875 44.671875 21.390625 
Q 44.671875 25.78125 42.453125 28.046875 
Q 40.234375 30.328125 32.90625 32.171875 
L 27 33.6875 
Q 16.890625 36.328125 13.203125 39.765625 
Q 9.515625 43.21875 9.515625 49.421875 
Q 9.515625 60.296875 17.890625 67.25 
Q 26.265625 74.21875 39.703125 74.21875 
Q 44.921875 74.21875 50.046875 73.28125 
Q 55.171875 72.359375 60.296875 70.515625 
z
" id="DejaVuSans-Oblique-83"/>
     <path d="M 55.71875 33.015625 
L 49.3125 0 
L 40.28125 0 
L 46.6875 32.671875 
Q 47.125 34.96875 47.359375 36.71875 
Q 47.609375 38.484375 47.609375 39.5 
Q 47.609375 43.609375 45.015625 45.890625 
Q 42.4375 48.1875 37.796875 48.1875 
Q 30.5625 48.1875 25.34375 43.375 
Q 20.125 38.578125 18.5 30.328125 
L 12.5 0 
L 3.515625 0 
L 14.109375 54.6875 
L 23.09375 54.6875 
L 21.296875 46.09375 
Q 25.046875 50.828125 30.3125 53.40625 
Q 35.59375 56 41.40625 56 
Q 48.640625 56 52.609375 52.09375 
Q 56.59375 48.1875 56.59375 41.109375 
Q 56.59375 39.359375 56.375 37.359375 
Q 56.15625 35.359375 55.71875 33.015625 
z
" id="DejaVuSans-Oblique-110"/>
     <path d="M 3.8125 101.703125 
L 90.671875 101.703125 
L 90.671875 88.375 
L 24.46875 88.375 
L 70.84375 38.875 
L 22.953125 -13.875 
L 92.484375 -13.875 
L 92.484375 -27.15625 
L 1.703125 -27.15625 
L 1.703125 -16.84375 
L 51.8125 38.484375 
L 3.8125 89.5 
z
" id="DejaVuSansDisplay-8721"/>
     <path d="M 47.796875 75.984375 
L 46.390625 68.5 
L 37.796875 68.5 
Q 32.90625 68.5 30.6875 66.578125 
Q 28.46875 64.65625 27.390625 59.515625 
L 26.421875 54.6875 
L 41.21875 54.6875 
L 39.890625 47.703125 
L 25.09375 47.703125 
L 15.828125 0 
L 6.78125 0 
L 16.109375 47.703125 
L 7.515625 47.703125 
L 8.796875 54.6875 
L 17.390625 54.6875 
L 18.109375 58.5 
Q 19.96875 68.171875 24.625 72.078125 
Q 29.296875 75.984375 39.3125 75.984375 
z
" id="DejaVuSans-Oblique-102"/>
     <path d="M 31 75.875 
Q 24.46875 64.65625 21.28125 53.65625 
Q 18.109375 42.671875 18.109375 31.390625 
Q 18.109375 20.125 21.3125 9.0625 
Q 24.515625 -2 31 -13.1875 
L 23.1875 -13.1875 
Q 15.875 -1.703125 12.234375 9.375 
Q 8.59375 20.453125 8.59375 31.390625 
Q 8.59375 42.28125 12.203125 53.3125 
Q 15.828125 64.359375 23.1875 75.875 
z
" id="DejaVuSans-40"/>
     <path d="M 8.015625 75.875 
L 15.828125 75.875 
Q 23.140625 64.359375 26.78125 53.3125 
Q 30.421875 42.28125 30.421875 31.390625 
Q 30.421875 20.453125 26.78125 9.375 
Q 23.140625 -1.703125 15.828125 -13.1875 
L 8.015625 -13.1875 
Q 14.5 -2 17.703125 9.0625 
Q 20.90625 20.125 20.90625 31.390625 
Q 20.90625 42.671875 17.703125 53.65625 
Q 14.5 64.65625 8.015625 75.875 
z
" id="DejaVuSans-41"/>
    </defs>
    <g transform="translate(95.757027 488.024729)scale(0.14 -0.14)">
     <use transform="translate(0 0.596875)" xlink:href="#DejaVuSans-Oblique-120"/>
     <use transform="translate(77.283529 38.942188)scale(0.7)" xlink:href="#DejaVuSans-42"/>
     <use transform="translate(59.179688 -26.746875)scale(0.7)" xlink:href="#DejaVuSans-Oblique-105"/>
     <use transform="translate(148.138021 0.596875)" xlink:href="#DejaVuSans-8712"/>
     <use transform="translate(254.729818 0.596875)" xlink:href="#DejaVuSans-91"/>
     <use transform="translate(293.74349 0.596875)" xlink:href="#DejaVuSans-Oblique-120"/>
     <use transform="translate(352.923177 -15.809375)scale(0.7)" xlink:href="#DejaVuSans-Oblique-105"/>
     <use transform="translate(386.009115 -15.809375)scale(0.7)" xlink:href="#DejaVuSans-8722"/>
     <use transform="translate(458.299154 -15.809375)scale(0.7)" xlink:href="#DejaVuSans-49"/>
     <use transform="translate(505.569661 0.596875)" xlink:href="#DejaVuSans-44"/>
     <use transform="translate(556.839193 0.596875)" xlink:href="#DejaVuSans-Oblique-120"/>
     <use transform="translate(616.01888 -15.809375)scale(0.7)" xlink:href="#DejaVuSans-Oblique-105"/>
     <use transform="translate(638.201497 0.596875)" xlink:href="#DejaVuSans-93"/>
     <use transform="translate(677.215169 0.596875)" xlink:href="#DejaVuSans-58"/>
     <use transform="translate(710.906576 0.596875)" xlink:href="#DejaVuSans-32"/>
     <use transform="translate(742.693685 0.596875)" xlink:href="#DejaVuSans-Oblique-83"/>
     <use transform="translate(825.652669 0.596875)" xlink:href="#DejaVuSans-61"/>
     <use transform="translate(984.924154 139.8)scale(0.7)" xlink:href="#DejaVuSans-Oblique-110"/>
     <use transform="translate(958.924154 19.346875)" xlink:href="#DejaVuSansDisplay-8721"/>
     <use transform="translate(928.924154 -79.748438)scale(0.7)" xlink:href="#DejaVuSans-Oblique-105"/>
     <use transform="translate(962.010091 -79.748438)scale(0.7)" xlink:href="#DejaVuSans-61"/>
     <use transform="translate(1034.30013 -79.748438)scale(0.7)" xlink:href="#DejaVuSans-49"/>
     <use transform="translate(1078.836263 0.596875)" xlink:href="#DejaVuSans-Oblique-102"/>
     <use transform="translate(1114.041341 0.596875)" xlink:href="#DejaVuSans-40"/>
     <use transform="translate(1153.055013 0.596875)" xlink:href="#DejaVuSans-Oblique-120"/>
     <use transform="translate(1230.338542 38.942188)scale(0.7)" xlink:href="#DejaVuSans-42"/>
     <use transform="translate(1212.234701 -26.746875)scale(0.7)" xlink:href="#DejaVuSans-Oblique-105"/>
     <use transform="translate(1281.710612 0.596875)" xlink:href="#DejaVuSans-41"/>
     <use transform="translate(1320.724284 0.596875)" xlink:href="#DejaVuSans-916"/>
     <use transform="translate(1389.132487 0.596875)" xlink:href="#DejaVuSans-Oblique-120"/>
     <use transform="translate(1448.312174 -15.809375)scale(0.7)" xlink:href="#DejaVuSans-Oblique-105"/>
    </g>
   </g>
  </g>
 </g>
 <defs>
  <clipPath id="p287e321d98">
   <rect height="205.942772" width="501.695479" x="71.6191" y="25.965375"/>
  </clipPath>
  <clipPath id="pe1eb33de36">
   <rect height="205.942772" width="501.695479" x="71.6191" y="296.794088"/>
  </clipPath>
 </defs>
</svg>
