<?xml version="1.0" encoding="utf-8" standalone="no"?>
<!DOCTYPE svg PUBLIC "-//W3C//DTD SVG 1.1//EN"
  "http://www.w3.org/Graphics/SVG/1.1/DTD/svg11.dtd">
<!-- Created with matplotlib (https://matplotlib.org/) -->
<svg height="720pt" version="1.1" viewBox="0 0 720 720" width="720pt" xmlns="http://www.w3.org/2000/svg" xmlns:xlink="http://www.w3.org/1999/xlink">
 <defs>
  <style type="text/css">
*{stroke-linecap:butt;stroke-linejoin:round;}
  </style>
 </defs>
 <g id="figure_1">
  <g id="patch_1">
   <path d="M 0 720 
L 720 720 
L 720 0 
L 0 0 
z
" style="fill:#ffffff;"/>
  </g>
  <g id="axes_1">
   <g id="text_1">
    <!-- Standard slope-intercept line equation: $f(x)=y=mx+b$ -->
    <defs>
     <path d="M 53.515625 70.515625 
L 53.515625 60.890625 
Q 47.90625 63.578125 42.921875 64.890625 
Q 37.9375 66.21875 33.296875 66.21875 
Q 25.25 66.21875 20.875 63.09375 
Q 16.5 59.96875 16.5 54.203125 
Q 16.5 49.359375 19.40625 46.890625 
Q 22.3125 44.4375 30.421875 42.921875 
L 36.375 41.703125 
Q 47.40625 39.59375 52.65625 34.296875 
Q 57.90625 29 57.90625 20.125 
Q 57.90625 9.515625 50.796875 4.046875 
Q 43.703125 -1.421875 29.984375 -1.421875 
Q 24.8125 -1.421875 18.96875 -0.25 
Q 13.140625 0.921875 6.890625 3.21875 
L 6.890625 13.375 
Q 12.890625 10.015625 18.65625 8.296875 
Q 24.421875 6.59375 29.984375 6.59375 
Q 38.421875 6.59375 43.015625 9.90625 
Q 47.609375 13.234375 47.609375 19.390625 
Q 47.609375 24.75 44.3125 27.78125 
Q 41.015625 30.8125 33.5 32.328125 
L 27.484375 33.5 
Q 16.453125 35.6875 11.515625 40.375 
Q 6.59375 45.0625 6.59375 53.421875 
Q 6.59375 63.09375 13.40625 68.65625 
Q 20.21875 74.21875 32.171875 74.21875 
Q 37.3125 74.21875 42.625 73.28125 
Q 47.953125 72.359375 53.515625 70.515625 
z
" id="DejaVuSans-83"/>
     <path d="M 18.3125 70.21875 
L 18.3125 54.6875 
L 36.8125 54.6875 
L 36.8125 47.703125 
L 18.3125 47.703125 
L 18.3125 18.015625 
Q 18.3125 11.328125 20.140625 9.421875 
Q 21.96875 7.515625 27.59375 7.515625 
L 36.8125 7.515625 
L 36.8125 0 
L 27.59375 0 
Q 17.1875 0 13.234375 3.875 
Q 9.28125 7.765625 9.28125 18.015625 
L 9.28125 47.703125 
L 2.6875 47.703125 
L 2.6875 54.6875 
L 9.28125 54.6875 
L 9.28125 70.21875 
z
" id="DejaVuSans-116"/>
     <path d="M 34.28125 27.484375 
Q 23.390625 27.484375 19.1875 25 
Q 14.984375 22.515625 14.984375 16.5 
Q 14.984375 11.71875 18.140625 8.90625 
Q 21.296875 6.109375 26.703125 6.109375 
Q 34.1875 6.109375 38.703125 11.40625 
Q 43.21875 16.703125 43.21875 25.484375 
L 43.21875 27.484375 
z
M 52.203125 31.203125 
L 52.203125 0 
L 43.21875 0 
L 43.21875 8.296875 
Q 40.140625 3.328125 35.546875 0.953125 
Q 30.953125 -1.421875 24.3125 -1.421875 
Q 15.921875 -1.421875 10.953125 3.296875 
Q 6 8.015625 6 15.921875 
Q 6 25.140625 12.171875 29.828125 
Q 18.359375 34.515625 30.609375 34.515625 
L 43.21875 34.515625 
L 43.21875 35.40625 
Q 43.21875 41.609375 39.140625 45 
Q 35.0625 48.390625 27.6875 48.390625 
Q 23 48.390625 18.546875 47.265625 
Q 14.109375 46.140625 10.015625 43.890625 
L 10.015625 52.203125 
Q 14.9375 54.109375 19.578125 55.046875 
Q 24.21875 56 28.609375 56 
Q 40.484375 56 46.34375 49.84375 
Q 52.203125 43.703125 52.203125 31.203125 
z
" id="DejaVuSans-97"/>
     <path d="M 54.890625 33.015625 
L 54.890625 0 
L 45.90625 0 
L 45.90625 32.71875 
Q 45.90625 40.484375 42.875 44.328125 
Q 39.84375 48.1875 33.796875 48.1875 
Q 26.515625 48.1875 22.3125 43.546875 
Q 18.109375 38.921875 18.109375 30.90625 
L 18.109375 0 
L 9.078125 0 
L 9.078125 54.6875 
L 18.109375 54.6875 
L 18.109375 46.1875 
Q 21.34375 51.125 25.703125 53.5625 
Q 30.078125 56 35.796875 56 
Q 45.21875 56 50.046875 50.171875 
Q 54.890625 44.34375 54.890625 33.015625 
z
" id="DejaVuSans-110"/>
     <path d="M 45.40625 46.390625 
L 45.40625 75.984375 
L 54.390625 75.984375 
L 54.390625 0 
L 45.40625 0 
L 45.40625 8.203125 
Q 42.578125 3.328125 38.25 0.953125 
Q 33.9375 -1.421875 27.875 -1.421875 
Q 17.96875 -1.421875 11.734375 6.484375 
Q 5.515625 14.40625 5.515625 27.296875 
Q 5.515625 40.1875 11.734375 48.09375 
Q 17.96875 56 27.875 56 
Q 33.9375 56 38.25 53.625 
Q 42.578125 51.265625 45.40625 46.390625 
z
M 14.796875 27.296875 
Q 14.796875 17.390625 18.875 11.75 
Q 22.953125 6.109375 30.078125 6.109375 
Q 37.203125 6.109375 41.296875 11.75 
Q 45.40625 17.390625 45.40625 27.296875 
Q 45.40625 37.203125 41.296875 42.84375 
Q 37.203125 48.484375 30.078125 48.484375 
Q 22.953125 48.484375 18.875 42.84375 
Q 14.796875 37.203125 14.796875 27.296875 
z
" id="DejaVuSans-100"/>
     <path d="M 41.109375 46.296875 
Q 39.59375 47.171875 37.8125 47.578125 
Q 36.03125 48 33.890625 48 
Q 26.265625 48 22.1875 43.046875 
Q 18.109375 38.09375 18.109375 28.8125 
L 18.109375 0 
L 9.078125 0 
L 9.078125 54.6875 
L 18.109375 54.6875 
L 18.109375 46.1875 
Q 20.953125 51.171875 25.484375 53.578125 
Q 30.03125 56 36.53125 56 
Q 37.453125 56 38.578125 55.875 
Q 39.703125 55.765625 41.0625 55.515625 
z
" id="DejaVuSans-114"/>
     <path id="DejaVuSans-32"/>
     <path d="M 44.28125 53.078125 
L 44.28125 44.578125 
Q 40.484375 46.53125 36.375 47.5 
Q 32.28125 48.484375 27.875 48.484375 
Q 21.1875 48.484375 17.84375 46.4375 
Q 14.5 44.390625 14.5 40.28125 
Q 14.5 37.15625 16.890625 35.375 
Q 19.28125 33.59375 26.515625 31.984375 
L 29.59375 31.296875 
Q 39.15625 29.25 43.1875 25.515625 
Q 47.21875 21.78125 47.21875 15.09375 
Q 47.21875 7.46875 41.1875 3.015625 
Q 35.15625 -1.421875 24.609375 -1.421875 
Q 20.21875 -1.421875 15.453125 -0.5625 
Q 10.6875 0.296875 5.421875 2 
L 5.421875 11.28125 
Q 10.40625 8.6875 15.234375 7.390625 
Q 20.0625 6.109375 24.8125 6.109375 
Q 31.15625 6.109375 34.5625 8.28125 
Q 37.984375 10.453125 37.984375 14.40625 
Q 37.984375 18.0625 35.515625 20.015625 
Q 33.0625 21.96875 24.703125 23.78125 
L 21.578125 24.515625 
Q 13.234375 26.265625 9.515625 29.90625 
Q 5.8125 33.546875 5.8125 39.890625 
Q 5.8125 47.609375 11.28125 51.796875 
Q 16.75 56 26.8125 56 
Q 31.78125 56 36.171875 55.265625 
Q 40.578125 54.546875 44.28125 53.078125 
z
" id="DejaVuSans-115"/>
     <path d="M 9.421875 75.984375 
L 18.40625 75.984375 
L 18.40625 0 
L 9.421875 0 
z
" id="DejaVuSans-108"/>
     <path d="M 30.609375 48.390625 
Q 23.390625 48.390625 19.1875 42.75 
Q 14.984375 37.109375 14.984375 27.296875 
Q 14.984375 17.484375 19.15625 11.84375 
Q 23.34375 6.203125 30.609375 6.203125 
Q 37.796875 6.203125 41.984375 11.859375 
Q 46.1875 17.53125 46.1875 27.296875 
Q 46.1875 37.015625 41.984375 42.703125 
Q 37.796875 48.390625 30.609375 48.390625 
z
M 30.609375 56 
Q 42.328125 56 49.015625 48.375 
Q 55.71875 40.765625 55.71875 27.296875 
Q 55.71875 13.875 49.015625 6.21875 
Q 42.328125 -1.421875 30.609375 -1.421875 
Q 18.84375 -1.421875 12.171875 6.21875 
Q 5.515625 13.875 5.515625 27.296875 
Q 5.515625 40.765625 12.171875 48.375 
Q 18.84375 56 30.609375 56 
z
" id="DejaVuSans-111"/>
     <path d="M 18.109375 8.203125 
L 18.109375 -20.796875 
L 9.078125 -20.796875 
L 9.078125 54.6875 
L 18.109375 54.6875 
L 18.109375 46.390625 
Q 20.953125 51.265625 25.265625 53.625 
Q 29.59375 56 35.59375 56 
Q 45.5625 56 51.78125 48.09375 
Q 58.015625 40.1875 58.015625 27.296875 
Q 58.015625 14.40625 51.78125 6.484375 
Q 45.5625 -1.421875 35.59375 -1.421875 
Q 29.59375 -1.421875 25.265625 0.953125 
Q 20.953125 3.328125 18.109375 8.203125 
z
M 48.6875 27.296875 
Q 48.6875 37.203125 44.609375 42.84375 
Q 40.53125 48.484375 33.40625 48.484375 
Q 26.265625 48.484375 22.1875 42.84375 
Q 18.109375 37.203125 18.109375 27.296875 
Q 18.109375 17.390625 22.1875 11.75 
Q 26.265625 6.109375 33.40625 6.109375 
Q 40.53125 6.109375 44.609375 11.75 
Q 48.6875 17.390625 48.6875 27.296875 
z
" id="DejaVuSans-112"/>
     <path d="M 56.203125 29.59375 
L 56.203125 25.203125 
L 14.890625 25.203125 
Q 15.484375 15.921875 20.484375 11.0625 
Q 25.484375 6.203125 34.421875 6.203125 
Q 39.59375 6.203125 44.453125 7.46875 
Q 49.3125 8.734375 54.109375 11.28125 
L 54.109375 2.78125 
Q 49.265625 0.734375 44.1875 -0.34375 
Q 39.109375 -1.421875 33.890625 -1.421875 
Q 20.796875 -1.421875 13.15625 6.1875 
Q 5.515625 13.8125 5.515625 26.8125 
Q 5.515625 40.234375 12.765625 48.109375 
Q 20.015625 56 32.328125 56 
Q 43.359375 56 49.78125 48.890625 
Q 56.203125 41.796875 56.203125 29.59375 
z
M 47.21875 32.234375 
Q 47.125 39.59375 43.09375 43.984375 
Q 39.0625 48.390625 32.421875 48.390625 
Q 24.90625 48.390625 20.390625 44.140625 
Q 15.875 39.890625 15.1875 32.171875 
z
" id="DejaVuSans-101"/>
     <path d="M 4.890625 31.390625 
L 31.203125 31.390625 
L 31.203125 23.390625 
L 4.890625 23.390625 
z
" id="DejaVuSans-45"/>
     <path d="M 9.421875 54.6875 
L 18.40625 54.6875 
L 18.40625 0 
L 9.421875 0 
z
M 9.421875 75.984375 
L 18.40625 75.984375 
L 18.40625 64.59375 
L 9.421875 64.59375 
z
" id="DejaVuSans-105"/>
     <path d="M 48.78125 52.59375 
L 48.78125 44.1875 
Q 44.96875 46.296875 41.140625 47.34375 
Q 37.3125 48.390625 33.40625 48.390625 
Q 24.65625 48.390625 19.8125 42.84375 
Q 14.984375 37.3125 14.984375 27.296875 
Q 14.984375 17.28125 19.8125 11.734375 
Q 24.65625 6.203125 33.40625 6.203125 
Q 37.3125 6.203125 41.140625 7.25 
Q 44.96875 8.296875 48.78125 10.40625 
L 48.78125 2.09375 
Q 45.015625 0.34375 40.984375 -0.53125 
Q 36.96875 -1.421875 32.421875 -1.421875 
Q 20.0625 -1.421875 12.78125 6.34375 
Q 5.515625 14.109375 5.515625 27.296875 
Q 5.515625 40.671875 12.859375 48.328125 
Q 20.21875 56 33.015625 56 
Q 37.15625 56 41.109375 55.140625 
Q 45.0625 54.296875 48.78125 52.59375 
z
" id="DejaVuSans-99"/>
     <path d="M 14.796875 27.296875 
Q 14.796875 17.390625 18.875 11.75 
Q 22.953125 6.109375 30.078125 6.109375 
Q 37.203125 6.109375 41.296875 11.75 
Q 45.40625 17.390625 45.40625 27.296875 
Q 45.40625 37.203125 41.296875 42.84375 
Q 37.203125 48.484375 30.078125 48.484375 
Q 22.953125 48.484375 18.875 42.84375 
Q 14.796875 37.203125 14.796875 27.296875 
z
M 45.40625 8.203125 
Q 42.578125 3.328125 38.25 0.953125 
Q 33.9375 -1.421875 27.875 -1.421875 
Q 17.96875 -1.421875 11.734375 6.484375 
Q 5.515625 14.40625 5.515625 27.296875 
Q 5.515625 40.1875 11.734375 48.09375 
Q 17.96875 56 27.875 56 
Q 33.9375 56 38.25 53.625 
Q 42.578125 51.265625 45.40625 46.390625 
L 45.40625 54.6875 
L 54.390625 54.6875 
L 54.390625 -20.796875 
L 45.40625 -20.796875 
z
" id="DejaVuSans-113"/>
     <path d="M 8.5 21.578125 
L 8.5 54.6875 
L 17.484375 54.6875 
L 17.484375 21.921875 
Q 17.484375 14.15625 20.5 10.265625 
Q 23.53125 6.390625 29.59375 6.390625 
Q 36.859375 6.390625 41.078125 11.03125 
Q 45.3125 15.671875 45.3125 23.6875 
L 45.3125 54.6875 
L 54.296875 54.6875 
L 54.296875 0 
L 45.3125 0 
L 45.3125 8.40625 
Q 42.046875 3.421875 37.71875 1 
Q 33.40625 -1.421875 27.6875 -1.421875 
Q 18.265625 -1.421875 13.375 4.4375 
Q 8.5 10.296875 8.5 21.578125 
z
M 31.109375 56 
z
" id="DejaVuSans-117"/>
     <path d="M 11.71875 12.40625 
L 22.015625 12.40625 
L 22.015625 0 
L 11.71875 0 
z
M 11.71875 51.703125 
L 22.015625 51.703125 
L 22.015625 39.3125 
L 11.71875 39.3125 
z
" id="DejaVuSans-58"/>
     <path d="M 47.796875 75.984375 
L 46.390625 68.5 
L 37.796875 68.5 
Q 32.90625 68.5 30.6875 66.578125 
Q 28.46875 64.65625 27.390625 59.515625 
L 26.421875 54.6875 
L 41.21875 54.6875 
L 39.890625 47.703125 
L 25.09375 47.703125 
L 15.828125 0 
L 6.78125 0 
L 16.109375 47.703125 
L 7.515625 47.703125 
L 8.796875 54.6875 
L 17.390625 54.6875 
L 18.109375 58.5 
Q 19.96875 68.171875 24.625 72.078125 
Q 29.296875 75.984375 39.3125 75.984375 
z
" id="DejaVuSans-Oblique-102"/>
     <path d="M 31 75.875 
Q 24.46875 64.65625 21.28125 53.65625 
Q 18.109375 42.671875 18.109375 31.390625 
Q 18.109375 20.125 21.3125 9.0625 
Q 24.515625 -2 31 -13.1875 
L 23.1875 -13.1875 
Q 15.875 -1.703125 12.234375 9.375 
Q 8.59375 20.453125 8.59375 31.390625 
Q 8.59375 42.28125 12.203125 53.3125 
Q 15.828125 64.359375 23.1875 75.875 
z
" id="DejaVuSans-40"/>
     <path d="M 60.015625 54.6875 
L 34.90625 27.875 
L 50.296875 0 
L 39.984375 0 
L 28.421875 21.6875 
L 8.296875 0 
L -2.59375 0 
L 24.3125 28.8125 
L 10.015625 54.6875 
L 20.3125 54.6875 
L 30.8125 34.90625 
L 49.125 54.6875 
z
" id="DejaVuSans-Oblique-120"/>
     <path d="M 8.015625 75.875 
L 15.828125 75.875 
Q 23.140625 64.359375 26.78125 53.3125 
Q 30.421875 42.28125 30.421875 31.390625 
Q 30.421875 20.453125 26.78125 9.375 
Q 23.140625 -1.703125 15.828125 -13.1875 
L 8.015625 -13.1875 
Q 14.5 -2 17.703125 9.0625 
Q 20.90625 20.125 20.90625 31.390625 
Q 20.90625 42.671875 17.703125 53.65625 
Q 14.5 64.65625 8.015625 75.875 
z
" id="DejaVuSans-41"/>
     <path d="M 10.59375 45.40625 
L 73.1875 45.40625 
L 73.1875 37.203125 
L 10.59375 37.203125 
z
M 10.59375 25.484375 
L 73.1875 25.484375 
L 73.1875 17.1875 
L 10.59375 17.1875 
z
" id="DejaVuSans-61"/>
     <path d="M 24.8125 -5.078125 
Q 18.5625 -15.578125 14.625 -18.1875 
Q 10.6875 -20.796875 4.59375 -20.796875 
L -2.484375 -20.796875 
L -0.984375 -13.28125 
L 4.203125 -13.28125 
Q 7.953125 -13.28125 10.59375 -11.234375 
Q 13.234375 -9.1875 16.5 -3.21875 
L 19.28125 2 
L 7.171875 54.6875 
L 16.703125 54.6875 
L 25.78125 12.796875 
L 50.875 54.6875 
L 60.296875 54.6875 
z
" id="DejaVuSans-Oblique-121"/>
     <path d="M 89.796875 33.015625 
L 83.40625 0 
L 74.421875 0 
L 80.71875 32.71875 
Q 81.109375 34.8125 81.296875 36.328125 
Q 81.5 37.84375 81.5 38.921875 
Q 81.5 43.3125 79.046875 45.75 
Q 76.609375 48.1875 72.21875 48.1875 
Q 65.671875 48.1875 60.546875 43.28125 
Q 55.421875 38.375 53.90625 30.515625 
L 47.90625 0 
L 38.921875 0 
L 45.3125 32.71875 
Q 45.703125 34.515625 45.890625 36.046875 
Q 46.09375 37.59375 46.09375 38.8125 
Q 46.09375 43.265625 43.65625 45.71875 
Q 41.21875 48.1875 36.921875 48.1875 
Q 30.28125 48.1875 25.140625 43.28125 
Q 20.015625 38.375 18.5 30.515625 
L 12.5 0 
L 3.515625 0 
L 14.203125 54.6875 
L 23.1875 54.6875 
L 21.484375 46.1875 
Q 25.140625 50.984375 30.046875 53.484375 
Q 34.96875 56 40.578125 56 
Q 46.53125 56 50.359375 52.875 
Q 54.203125 49.75 54.984375 44.1875 
Q 59.078125 49.953125 64.46875 52.96875 
Q 69.875 56 75.875 56 
Q 82.90625 56 86.734375 51.953125 
Q 90.578125 47.90625 90.578125 40.484375 
Q 90.578125 38.875 90.375 36.9375 
Q 90.1875 35.015625 89.796875 33.015625 
z
" id="DejaVuSans-Oblique-109"/>
     <path d="M 46 62.703125 
L 46 35.5 
L 73.1875 35.5 
L 73.1875 27.203125 
L 46 27.203125 
L 46 0 
L 37.796875 0 
L 37.796875 27.203125 
L 10.59375 27.203125 
L 10.59375 35.5 
L 37.796875 35.5 
L 37.796875 62.703125 
z
" id="DejaVuSans-43"/>
     <path d="M 49.515625 33.40625 
Q 49.515625 40.484375 46.265625 44.484375 
Q 43.015625 48.484375 37.3125 48.484375 
Q 33.15625 48.484375 29.515625 46.453125 
Q 25.875 44.4375 23.1875 40.578125 
Q 20.359375 36.53125 18.71875 31.171875 
Q 17.09375 25.828125 17.09375 20.515625 
Q 17.09375 13.765625 20.28125 9.9375 
Q 23.484375 6.109375 29.109375 6.109375 
Q 33.34375 6.109375 36.953125 8.078125 
Q 40.578125 10.0625 43.3125 13.921875 
Q 46.09375 17.921875 47.796875 23.234375 
Q 49.515625 28.5625 49.515625 33.40625 
z
M 21.578125 46.390625 
Q 24.90625 50.875 29.90625 53.4375 
Q 34.90625 56 40.375 56 
Q 48.78125 56 53.734375 50.328125 
Q 58.6875 44.671875 58.6875 35.015625 
Q 58.6875 27.09375 55.78125 19.671875 
Q 52.875 12.25 47.515625 6.5 
Q 44 2.6875 39.40625 0.625 
Q 34.8125 -1.421875 29.78125 -1.421875 
Q 24.46875 -1.421875 20.5625 1.015625 
Q 16.65625 3.46875 14.203125 8.296875 
L 12.59375 0 
L 3.609375 0 
L 18.40625 75.984375 
L 27.390625 75.984375 
z
" id="DejaVuSans-Oblique-98"/>
    </defs>
    <g transform="translate(97.76 586.561)scale(0.14 -0.14)">
     <use transform="translate(0 0.015625)" xlink:href="#DejaVuSans-83"/>
     <use transform="translate(63.476562 0.015625)" xlink:href="#DejaVuSans-116"/>
     <use transform="translate(102.685547 0.015625)" xlink:href="#DejaVuSans-97"/>
     <use transform="translate(163.964844 0.015625)" xlink:href="#DejaVuSans-110"/>
     <use transform="translate(227.34375 0.015625)" xlink:href="#DejaVuSans-100"/>
     <use transform="translate(290.820312 0.015625)" xlink:href="#DejaVuSans-97"/>
     <use transform="translate(352.099609 0.015625)" xlink:href="#DejaVuSans-114"/>
     <use transform="translate(393.212891 0.015625)" xlink:href="#DejaVuSans-100"/>
     <use transform="translate(456.689453 0.015625)" xlink:href="#DejaVuSans-32"/>
     <use transform="translate(488.476562 0.015625)" xlink:href="#DejaVuSans-115"/>
     <use transform="translate(540.576172 0.015625)" xlink:href="#DejaVuSans-108"/>
     <use transform="translate(568.359375 0.015625)" xlink:href="#DejaVuSans-111"/>
     <use transform="translate(629.541016 0.015625)" xlink:href="#DejaVuSans-112"/>
     <use transform="translate(693.017578 0.015625)" xlink:href="#DejaVuSans-101"/>
     <use transform="translate(754.541016 0.015625)" xlink:href="#DejaVuSans-45"/>
     <use transform="translate(790.625 0.015625)" xlink:href="#DejaVuSans-105"/>
     <use transform="translate(818.408203 0.015625)" xlink:href="#DejaVuSans-110"/>
     <use transform="translate(881.787109 0.015625)" xlink:href="#DejaVuSans-116"/>
     <use transform="translate(920.996094 0.015625)" xlink:href="#DejaVuSans-101"/>
     <use transform="translate(982.519531 0.015625)" xlink:href="#DejaVuSans-114"/>
     <use transform="translate(1023.632812 0.015625)" xlink:href="#DejaVuSans-99"/>
     <use transform="translate(1078.613281 0.015625)" xlink:href="#DejaVuSans-101"/>
     <use transform="translate(1140.136719 0.015625)" xlink:href="#DejaVuSans-112"/>
     <use transform="translate(1203.613281 0.015625)" xlink:href="#DejaVuSans-116"/>
     <use transform="translate(1242.822266 0.015625)" xlink:href="#DejaVuSans-32"/>
     <use transform="translate(1274.609375 0.015625)" xlink:href="#DejaVuSans-108"/>
     <use transform="translate(1302.392578 0.015625)" xlink:href="#DejaVuSans-105"/>
     <use transform="translate(1330.175781 0.015625)" xlink:href="#DejaVuSans-110"/>
     <use transform="translate(1393.554688 0.015625)" xlink:href="#DejaVuSans-101"/>
     <use transform="translate(1455.078125 0.015625)" xlink:href="#DejaVuSans-32"/>
     <use transform="translate(1486.865234 0.015625)" xlink:href="#DejaVuSans-101"/>
     <use transform="translate(1548.388672 0.015625)" xlink:href="#DejaVuSans-113"/>
     <use transform="translate(1611.865234 0.015625)" xlink:href="#DejaVuSans-117"/>
     <use transform="translate(1675.244141 0.015625)" xlink:href="#DejaVuSans-97"/>
     <use transform="translate(1736.523438 0.015625)" xlink:href="#DejaVuSans-116"/>
     <use transform="translate(1775.732422 0.015625)" xlink:href="#DejaVuSans-105"/>
     <use transform="translate(1803.515625 0.015625)" xlink:href="#DejaVuSans-111"/>
     <use transform="translate(1864.697266 0.015625)" xlink:href="#DejaVuSans-110"/>
     <use transform="translate(1928.076172 0.015625)" xlink:href="#DejaVuSans-58"/>
     <use transform="translate(1961.767578 0.015625)" xlink:href="#DejaVuSans-32"/>
     <use transform="translate(1993.554688 0.015625)" xlink:href="#DejaVuSans-Oblique-102"/>
     <use transform="translate(2028.759766 0.015625)" xlink:href="#DejaVuSans-40"/>
     <use transform="translate(2067.773438 0.015625)" xlink:href="#DejaVuSans-Oblique-120"/>
     <use transform="translate(2126.953125 0.015625)" xlink:href="#DejaVuSans-41"/>
     <use transform="translate(2185.449219 0.015625)" xlink:href="#DejaVuSans-61"/>
     <use transform="translate(2288.720703 0.015625)" xlink:href="#DejaVuSans-Oblique-121"/>
     <use transform="translate(2367.382812 0.015625)" xlink:href="#DejaVuSans-61"/>
     <use transform="translate(2470.654297 0.015625)" xlink:href="#DejaVuSans-Oblique-109"/>
     <use transform="translate(2568.066406 0.015625)" xlink:href="#DejaVuSans-Oblique-120"/>
     <use transform="translate(2646.728516 0.015625)" xlink:href="#DejaVuSans-43"/>
     <use transform="translate(2750 0.015625)" xlink:href="#DejaVuSans-Oblique-98"/>
    </g>
    <!-- For 2 points $(x_0, y_0), (x_1, y_1)$: -->
    <defs>
     <path d="M 9.8125 72.90625 
L 51.703125 72.90625 
L 51.703125 64.59375 
L 19.671875 64.59375 
L 19.671875 43.109375 
L 48.578125 43.109375 
L 48.578125 34.8125 
L 19.671875 34.8125 
L 19.671875 0 
L 9.8125 0 
z
" id="DejaVuSans-70"/>
     <path d="M 19.1875 8.296875 
L 53.609375 8.296875 
L 53.609375 0 
L 7.328125 0 
L 7.328125 8.296875 
Q 12.9375 14.109375 22.625 23.890625 
Q 32.328125 33.6875 34.8125 36.53125 
Q 39.546875 41.84375 41.421875 45.53125 
Q 43.3125 49.21875 43.3125 52.78125 
Q 43.3125 58.59375 39.234375 62.25 
Q 35.15625 65.921875 28.609375 65.921875 
Q 23.96875 65.921875 18.8125 64.3125 
Q 13.671875 62.703125 7.8125 59.421875 
L 7.8125 69.390625 
Q 13.765625 71.78125 18.9375 73 
Q 24.125 74.21875 28.421875 74.21875 
Q 39.75 74.21875 46.484375 68.546875 
Q 53.21875 62.890625 53.21875 53.421875 
Q 53.21875 48.921875 51.53125 44.890625 
Q 49.859375 40.875 45.40625 35.40625 
Q 44.1875 33.984375 37.640625 27.21875 
Q 31.109375 20.453125 19.1875 8.296875 
z
" id="DejaVuSans-50"/>
     <path d="M 31.78125 66.40625 
Q 24.171875 66.40625 20.328125 58.90625 
Q 16.5 51.421875 16.5 36.375 
Q 16.5 21.390625 20.328125 13.890625 
Q 24.171875 6.390625 31.78125 6.390625 
Q 39.453125 6.390625 43.28125 13.890625 
Q 47.125 21.390625 47.125 36.375 
Q 47.125 51.421875 43.28125 58.90625 
Q 39.453125 66.40625 31.78125 66.40625 
z
M 31.78125 74.21875 
Q 44.046875 74.21875 50.515625 64.515625 
Q 56.984375 54.828125 56.984375 36.375 
Q 56.984375 17.96875 50.515625 8.265625 
Q 44.046875 -1.421875 31.78125 -1.421875 
Q 19.53125 -1.421875 13.0625 8.265625 
Q 6.59375 17.96875 6.59375 36.375 
Q 6.59375 54.828125 13.0625 64.515625 
Q 19.53125 74.21875 31.78125 74.21875 
z
" id="DejaVuSans-48"/>
     <path d="M 11.71875 12.40625 
L 22.015625 12.40625 
L 22.015625 4 
L 14.015625 -11.625 
L 7.71875 -11.625 
L 11.71875 4 
z
" id="DejaVuSans-44"/>
     <path d="M 12.40625 8.296875 
L 28.515625 8.296875 
L 28.515625 63.921875 
L 10.984375 60.40625 
L 10.984375 69.390625 
L 28.421875 72.90625 
L 38.28125 72.90625 
L 38.28125 8.296875 
L 54.390625 8.296875 
L 54.390625 0 
L 12.40625 0 
z
" id="DejaVuSans-49"/>
    </defs>
    <g transform="translate(97.76 602.269)scale(0.14 -0.14)">
     <use transform="translate(0 0.015625)" xlink:href="#DejaVuSans-70"/>
     <use transform="translate(57.519531 0.015625)" xlink:href="#DejaVuSans-111"/>
     <use transform="translate(118.701172 0.015625)" xlink:href="#DejaVuSans-114"/>
     <use transform="translate(159.814453 0.015625)" xlink:href="#DejaVuSans-32"/>
     <use transform="translate(191.601562 0.015625)" xlink:href="#DejaVuSans-50"/>
     <use transform="translate(255.224609 0.015625)" xlink:href="#DejaVuSans-32"/>
     <use transform="translate(287.011719 0.015625)" xlink:href="#DejaVuSans-112"/>
     <use transform="translate(350.488281 0.015625)" xlink:href="#DejaVuSans-111"/>
     <use transform="translate(411.669922 0.015625)" xlink:href="#DejaVuSans-105"/>
     <use transform="translate(439.453125 0.015625)" xlink:href="#DejaVuSans-110"/>
     <use transform="translate(502.832031 0.015625)" xlink:href="#DejaVuSans-116"/>
     <use transform="translate(542.041016 0.015625)" xlink:href="#DejaVuSans-115"/>
     <use transform="translate(594.140625 0.015625)" xlink:href="#DejaVuSans-32"/>
     <use transform="translate(625.927734 0.015625)" xlink:href="#DejaVuSans-40"/>
     <use transform="translate(664.941406 0.015625)" xlink:href="#DejaVuSans-Oblique-120"/>
     <use transform="translate(724.121094 -16.390625)scale(0.7)" xlink:href="#DejaVuSans-48"/>
     <use transform="translate(771.391602 0.015625)" xlink:href="#DejaVuSans-44"/>
     <use transform="translate(822.661133 0.015625)" xlink:href="#DejaVuSans-Oblique-121"/>
     <use transform="translate(881.84082 -16.390625)scale(0.7)" xlink:href="#DejaVuSans-48"/>
     <use transform="translate(929.111328 0.015625)" xlink:href="#DejaVuSans-41"/>
     <use transform="translate(968.125 0.015625)" xlink:href="#DejaVuSans-44"/>
     <use transform="translate(1019.394531 0.015625)" xlink:href="#DejaVuSans-40"/>
     <use transform="translate(1058.408203 0.015625)" xlink:href="#DejaVuSans-Oblique-120"/>
     <use transform="translate(1117.587891 -16.390625)scale(0.7)" xlink:href="#DejaVuSans-49"/>
     <use transform="translate(1164.858398 0.015625)" xlink:href="#DejaVuSans-44"/>
     <use transform="translate(1216.12793 0.015625)" xlink:href="#DejaVuSans-Oblique-121"/>
     <use transform="translate(1275.307617 -16.390625)scale(0.7)" xlink:href="#DejaVuSans-49"/>
     <use transform="translate(1322.578125 0.015625)" xlink:href="#DejaVuSans-41"/>
     <use transform="translate(1361.591797 0.015625)" xlink:href="#DejaVuSans-58"/>
    </g>
    <!-- Slope derived from two points: $m=\frac{\Delta y}{\Delta x}=\frac{y_0-y_1}{x_0-x_1}$ -->
    <defs>
     <path d="M 2.984375 54.6875 
L 12.5 54.6875 
L 29.59375 8.796875 
L 46.6875 54.6875 
L 56.203125 54.6875 
L 35.6875 0 
L 23.484375 0 
z
" id="DejaVuSans-118"/>
     <path d="M 37.109375 75.984375 
L 37.109375 68.5 
L 28.515625 68.5 
Q 23.6875 68.5 21.796875 66.546875 
Q 19.921875 64.59375 19.921875 59.515625 
L 19.921875 54.6875 
L 34.71875 54.6875 
L 34.71875 47.703125 
L 19.921875 47.703125 
L 19.921875 0 
L 10.890625 0 
L 10.890625 47.703125 
L 2.296875 47.703125 
L 2.296875 54.6875 
L 10.890625 54.6875 
L 10.890625 58.5 
Q 10.890625 67.625 15.140625 71.796875 
Q 19.390625 75.984375 28.609375 75.984375 
z
" id="DejaVuSans-102"/>
     <path d="M 52 44.1875 
Q 55.375 50.25 60.0625 53.125 
Q 64.75 56 71.09375 56 
Q 79.640625 56 84.28125 50.015625 
Q 88.921875 44.046875 88.921875 33.015625 
L 88.921875 0 
L 79.890625 0 
L 79.890625 32.71875 
Q 79.890625 40.578125 77.09375 44.375 
Q 74.3125 48.1875 68.609375 48.1875 
Q 61.625 48.1875 57.5625 43.546875 
Q 53.515625 38.921875 53.515625 30.90625 
L 53.515625 0 
L 44.484375 0 
L 44.484375 32.71875 
Q 44.484375 40.625 41.703125 44.40625 
Q 38.921875 48.1875 33.109375 48.1875 
Q 26.21875 48.1875 22.15625 43.53125 
Q 18.109375 38.875 18.109375 30.90625 
L 18.109375 0 
L 9.078125 0 
L 9.078125 54.6875 
L 18.109375 54.6875 
L 18.109375 46.1875 
Q 21.1875 51.21875 25.484375 53.609375 
Q 29.78125 56 35.6875 56 
Q 41.65625 56 45.828125 52.96875 
Q 50 49.953125 52 44.1875 
z
" id="DejaVuSans-109"/>
     <path d="M 4.203125 54.6875 
L 13.1875 54.6875 
L 24.421875 12.015625 
L 35.59375 54.6875 
L 46.1875 54.6875 
L 57.421875 12.015625 
L 68.609375 54.6875 
L 77.59375 54.6875 
L 63.28125 0 
L 52.6875 0 
L 40.921875 44.828125 
L 29.109375 0 
L 18.5 0 
z
" id="DejaVuSans-119"/>
     <path d="M 34.1875 63.1875 
L 14.15625 8.203125 
L 54.25 8.203125 
z
M 0.78125 0 
L 28.609375 72.90625 
L 39.796875 72.90625 
L 67.578125 0 
z
" id="DejaVuSans-916"/>
     <path d="M 10.59375 35.5 
L 73.1875 35.5 
L 73.1875 27.203125 
L 10.59375 27.203125 
z
" id="DejaVuSans-8722"/>
    </defs>
    <g transform="translate(97.76 623.689)scale(0.14 -0.14)">
     <use transform="translate(0 0.610938)" xlink:href="#DejaVuSans-83"/>
     <use transform="translate(63.476562 0.610938)" xlink:href="#DejaVuSans-108"/>
     <use transform="translate(91.259766 0.610938)" xlink:href="#DejaVuSans-111"/>
     <use transform="translate(152.441406 0.610938)" xlink:href="#DejaVuSans-112"/>
     <use transform="translate(215.917969 0.610938)" xlink:href="#DejaVuSans-101"/>
     <use transform="translate(277.441406 0.610938)" xlink:href="#DejaVuSans-32"/>
     <use transform="translate(309.228516 0.610938)" xlink:href="#DejaVuSans-100"/>
     <use transform="translate(372.705078 0.610938)" xlink:href="#DejaVuSans-101"/>
     <use transform="translate(434.228516 0.610938)" xlink:href="#DejaVuSans-114"/>
     <use transform="translate(475.341797 0.610938)" xlink:href="#DejaVuSans-105"/>
     <use transform="translate(503.125 0.610938)" xlink:href="#DejaVuSans-118"/>
     <use transform="translate(562.304688 0.610938)" xlink:href="#DejaVuSans-101"/>
     <use transform="translate(623.828125 0.610938)" xlink:href="#DejaVuSans-100"/>
     <use transform="translate(687.304688 0.610938)" xlink:href="#DejaVuSans-32"/>
     <use transform="translate(719.091797 0.610938)" xlink:href="#DejaVuSans-102"/>
     <use transform="translate(754.296875 0.610938)" xlink:href="#DejaVuSans-114"/>
     <use transform="translate(795.410156 0.610938)" xlink:href="#DejaVuSans-111"/>
     <use transform="translate(856.591797 0.610938)" xlink:href="#DejaVuSans-109"/>
     <use transform="translate(954.003906 0.610938)" xlink:href="#DejaVuSans-32"/>
     <use transform="translate(985.791016 0.610938)" xlink:href="#DejaVuSans-116"/>
     <use transform="translate(1025 0.610938)" xlink:href="#DejaVuSans-119"/>
     <use transform="translate(1106.787109 0.610938)" xlink:href="#DejaVuSans-111"/>
     <use transform="translate(1167.96875 0.610938)" xlink:href="#DejaVuSans-32"/>
     <use transform="translate(1199.755859 0.610938)" xlink:href="#DejaVuSans-112"/>
     <use transform="translate(1263.232422 0.610938)" xlink:href="#DejaVuSans-111"/>
     <use transform="translate(1324.414062 0.610938)" xlink:href="#DejaVuSans-105"/>
     <use transform="translate(1352.197266 0.610938)" xlink:href="#DejaVuSans-110"/>
     <use transform="translate(1415.576172 0.610938)" xlink:href="#DejaVuSans-116"/>
     <use transform="translate(1454.785156 0.610938)" xlink:href="#DejaVuSans-115"/>
     <use transform="translate(1506.884766 0.610938)" xlink:href="#DejaVuSans-58"/>
     <use transform="translate(1540.576172 0.610938)" xlink:href="#DejaVuSans-32"/>
     <use transform="translate(1572.363281 0.610938)" xlink:href="#DejaVuSans-Oblique-109"/>
     <use transform="translate(1689.257812 0.610938)" xlink:href="#DejaVuSans-61"/>
     <use transform="translate(1792.529297 58.965625)scale(0.7)" xlink:href="#DejaVuSans-916"/>
     <use transform="translate(1840.415039 58.965625)scale(0.7)" xlink:href="#DejaVuSans-Oblique-121"/>
     <use transform="translate(1792.529297 -37.876562)scale(0.7)" xlink:href="#DejaVuSans-916"/>
     <use transform="translate(1840.415039 -37.876562)scale(0.7)" xlink:href="#DejaVuSans-Oblique-120"/>
     <use transform="translate(1913.823242 0.610938)" xlink:href="#DejaVuSans-61"/>
     <use transform="translate(2017.094727 58.965625)scale(0.7)" xlink:href="#DejaVuSans-Oblique-121"/>
     <use transform="translate(2058.520508 47.48125)scale(0.49)" xlink:href="#DejaVuSans-48"/>
     <use transform="translate(2105.247559 58.965625)scale(0.7)" xlink:href="#DejaVuSans-8722"/>
     <use transform="translate(2177.537598 58.965625)scale(0.7)" xlink:href="#DejaVuSans-Oblique-121"/>
     <use transform="translate(2218.963379 47.48125)scale(0.49)" xlink:href="#DejaVuSans-49"/>
     <use transform="translate(2017.094727 -25.123437)scale(0.7)" xlink:href="#DejaVuSans-Oblique-120"/>
     <use transform="translate(2058.520508 -36.607812)scale(0.49)" xlink:href="#DejaVuSans-48"/>
     <use transform="translate(2105.247559 -25.123437)scale(0.7)" xlink:href="#DejaVuSans-8722"/>
     <use transform="translate(2177.537598 -25.123437)scale(0.7)" xlink:href="#DejaVuSans-Oblique-120"/>
     <use transform="translate(2218.963379 -36.607812)scale(0.49)" xlink:href="#DejaVuSans-49"/>
     <path d="M 1792.529297 19.407813 
L 1792.529297 25.657813 
L 1881.84082 25.657813 
L 1881.84082 19.407813 
L 1792.529297 19.407813 
z
"/>
     <path d="M 2017.094727 19.407813 
L 2017.094727 25.657813 
L 2252.052734 25.657813 
L 2252.052734 19.407813 
L 2017.094727 19.407813 
z
"/>
    </g>
    <!-- Intercept derived from slope and point: $b=y_0-mx_0=y_1-mx_1$ -->
    <defs>
     <path d="M 9.8125 72.90625 
L 19.671875 72.90625 
L 19.671875 0 
L 9.8125 0 
z
" id="DejaVuSans-73"/>
    </defs>
    <g transform="translate(97.76 641.917)scale(0.14 -0.14)">
     <use transform="translate(0 0.015625)" xlink:href="#DejaVuSans-73"/>
     <use transform="translate(29.492188 0.015625)" xlink:href="#DejaVuSans-110"/>
     <use transform="translate(92.871094 0.015625)" xlink:href="#DejaVuSans-116"/>
     <use transform="translate(132.080078 0.015625)" xlink:href="#DejaVuSans-101"/>
     <use transform="translate(193.603516 0.015625)" xlink:href="#DejaVuSans-114"/>
     <use transform="translate(234.716797 0.015625)" xlink:href="#DejaVuSans-99"/>
     <use transform="translate(289.697266 0.015625)" xlink:href="#DejaVuSans-101"/>
     <use transform="translate(351.220703 0.015625)" xlink:href="#DejaVuSans-112"/>
     <use transform="translate(414.697266 0.015625)" xlink:href="#DejaVuSans-116"/>
     <use transform="translate(453.90625 0.015625)" xlink:href="#DejaVuSans-32"/>
     <use transform="translate(485.693359 0.015625)" xlink:href="#DejaVuSans-100"/>
     <use transform="translate(549.169922 0.015625)" xlink:href="#DejaVuSans-101"/>
     <use transform="translate(610.693359 0.015625)" xlink:href="#DejaVuSans-114"/>
     <use transform="translate(651.806641 0.015625)" xlink:href="#DejaVuSans-105"/>
     <use transform="translate(679.589844 0.015625)" xlink:href="#DejaVuSans-118"/>
     <use transform="translate(738.769531 0.015625)" xlink:href="#DejaVuSans-101"/>
     <use transform="translate(800.292969 0.015625)" xlink:href="#DejaVuSans-100"/>
     <use transform="translate(863.769531 0.015625)" xlink:href="#DejaVuSans-32"/>
     <use transform="translate(895.556641 0.015625)" xlink:href="#DejaVuSans-102"/>
     <use transform="translate(930.761719 0.015625)" xlink:href="#DejaVuSans-114"/>
     <use transform="translate(971.875 0.015625)" xlink:href="#DejaVuSans-111"/>
     <use transform="translate(1033.056641 0.015625)" xlink:href="#DejaVuSans-109"/>
     <use transform="translate(1130.46875 0.015625)" xlink:href="#DejaVuSans-32"/>
     <use transform="translate(1162.255859 0.015625)" xlink:href="#DejaVuSans-115"/>
     <use transform="translate(1214.355469 0.015625)" xlink:href="#DejaVuSans-108"/>
     <use transform="translate(1242.138672 0.015625)" xlink:href="#DejaVuSans-111"/>
     <use transform="translate(1303.320312 0.015625)" xlink:href="#DejaVuSans-112"/>
     <use transform="translate(1366.796875 0.015625)" xlink:href="#DejaVuSans-101"/>
     <use transform="translate(1428.320312 0.015625)" xlink:href="#DejaVuSans-32"/>
     <use transform="translate(1460.107422 0.015625)" xlink:href="#DejaVuSans-97"/>
     <use transform="translate(1521.386719 0.015625)" xlink:href="#DejaVuSans-110"/>
     <use transform="translate(1584.765625 0.015625)" xlink:href="#DejaVuSans-100"/>
     <use transform="translate(1648.242188 0.015625)" xlink:href="#DejaVuSans-32"/>
     <use transform="translate(1680.029297 0.015625)" xlink:href="#DejaVuSans-112"/>
     <use transform="translate(1743.505859 0.015625)" xlink:href="#DejaVuSans-111"/>
     <use transform="translate(1804.6875 0.015625)" xlink:href="#DejaVuSans-105"/>
     <use transform="translate(1832.470703 0.015625)" xlink:href="#DejaVuSans-110"/>
     <use transform="translate(1895.849609 0.015625)" xlink:href="#DejaVuSans-116"/>
     <use transform="translate(1935.058594 0.015625)" xlink:href="#DejaVuSans-58"/>
     <use transform="translate(1968.75 0.015625)" xlink:href="#DejaVuSans-32"/>
     <use transform="translate(2000.537109 0.015625)" xlink:href="#DejaVuSans-Oblique-98"/>
     <use transform="translate(2083.496094 0.015625)" xlink:href="#DejaVuSans-61"/>
     <use transform="translate(2186.767578 0.015625)" xlink:href="#DejaVuSans-Oblique-121"/>
     <use transform="translate(2245.947266 -16.390625)scale(0.7)" xlink:href="#DejaVuSans-48"/>
     <use transform="translate(2312.700195 0.015625)" xlink:href="#DejaVuSans-8722"/>
     <use transform="translate(2415.97168 0.015625)" xlink:href="#DejaVuSans-Oblique-109"/>
     <use transform="translate(2513.383789 0.015625)" xlink:href="#DejaVuSans-Oblique-120"/>
     <use transform="translate(2572.563477 -16.390625)scale(0.7)" xlink:href="#DejaVuSans-48"/>
     <use transform="translate(2639.316406 0.015625)" xlink:href="#DejaVuSans-61"/>
     <use transform="translate(2742.587891 0.015625)" xlink:href="#DejaVuSans-Oblique-121"/>
     <use transform="translate(2801.767578 -16.390625)scale(0.7)" xlink:href="#DejaVuSans-49"/>
     <use transform="translate(2868.520508 0.015625)" xlink:href="#DejaVuSans-8722"/>
     <use transform="translate(2971.791992 0.015625)" xlink:href="#DejaVuSans-Oblique-109"/>
     <use transform="translate(3069.204102 0.015625)" xlink:href="#DejaVuSans-Oblique-120"/>
     <use transform="translate(3128.383789 -16.390625)scale(0.7)" xlink:href="#DejaVuSans-49"/>
    </g>
    <!-- Y-axis Distance to point from line: $d=\left|mx_2+b-y_2\right|$ -->
    <defs>
     <path d="M -0.203125 72.90625 
L 10.40625 72.90625 
L 30.609375 42.921875 
L 50.6875 72.90625 
L 61.28125 72.90625 
L 35.5 34.71875 
L 35.5 0 
L 25.59375 0 
L 25.59375 34.71875 
z
" id="DejaVuSans-89"/>
     <path d="M 54.890625 54.6875 
L 35.109375 28.078125 
L 55.90625 0 
L 45.3125 0 
L 29.390625 21.484375 
L 13.484375 0 
L 2.875 0 
L 24.125 28.609375 
L 4.6875 54.6875 
L 15.28125 54.6875 
L 29.78125 35.203125 
L 44.28125 54.6875 
z
" id="DejaVuSans-120"/>
     <path d="M 19.671875 64.796875 
L 19.671875 8.109375 
L 31.59375 8.109375 
Q 46.6875 8.109375 53.6875 14.9375 
Q 60.6875 21.78125 60.6875 36.53125 
Q 60.6875 51.171875 53.6875 57.984375 
Q 46.6875 64.796875 31.59375 64.796875 
z
M 9.8125 72.90625 
L 30.078125 72.90625 
Q 51.265625 72.90625 61.171875 64.09375 
Q 71.09375 55.28125 71.09375 36.53125 
Q 71.09375 17.671875 61.125 8.828125 
Q 51.171875 0 30.078125 0 
L 9.8125 0 
z
" id="DejaVuSans-68"/>
     <path d="M 41.796875 8.203125 
Q 38.1875 3.46875 33.25 1.015625 
Q 28.328125 -1.421875 22.3125 -1.421875 
Q 14.109375 -1.421875 9.34375 4.171875 
Q 4.59375 9.765625 4.59375 19.484375 
Q 4.59375 27.59375 7.46875 34.9375 
Q 10.359375 42.28125 15.828125 48.09375 
Q 19.4375 51.953125 23.96875 53.96875 
Q 28.515625 56 33.5 56 
Q 38.765625 56 42.796875 53.453125 
Q 46.828125 50.921875 49.03125 46.1875 
L 54.890625 75.984375 
L 63.921875 75.984375 
L 49.125 0 
L 40.09375 0 
z
M 13.921875 21.09375 
Q 13.921875 14.015625 17.109375 10.0625 
Q 20.3125 6.109375 25.984375 6.109375 
Q 30.171875 6.109375 33.765625 8.125 
Q 37.359375 10.15625 40.09375 14.109375 
Q 42.96875 18.21875 44.625 23.578125 
Q 46.296875 28.953125 46.296875 34.1875 
Q 46.296875 40.96875 43.09375 44.765625 
Q 39.890625 48.578125 34.28125 48.578125 
Q 30.03125 48.578125 26.359375 46.578125 
Q 22.703125 44.578125 20.125 40.828125 
Q 17.28125 36.765625 15.59375 31.390625 
Q 13.921875 26.03125 13.921875 21.09375 
z
" id="DejaVuSans-Oblique-100"/>
     <path d="M 21 76.421875 
L 21 -23.578125 
L 12.703125 -23.578125 
L 12.703125 76.421875 
z
" id="DejaVuSans-124"/>
    </defs>
    <g transform="translate(97.76 657.793)scale(0.14 -0.14)">
     <use transform="translate(0 0.578125)" xlink:href="#DejaVuSans-89"/>
     <use transform="translate(61.083984 0.578125)" xlink:href="#DejaVuSans-45"/>
     <use transform="translate(97.167969 0.578125)" xlink:href="#DejaVuSans-97"/>
     <use transform="translate(158.447266 0.578125)" xlink:href="#DejaVuSans-120"/>
     <use transform="translate(217.626953 0.578125)" xlink:href="#DejaVuSans-105"/>
     <use transform="translate(245.410156 0.578125)" xlink:href="#DejaVuSans-115"/>
     <use transform="translate(297.509766 0.578125)" xlink:href="#DejaVuSans-32"/>
     <use transform="translate(329.296875 0.578125)" xlink:href="#DejaVuSans-68"/>
     <use transform="translate(406.298828 0.578125)" xlink:href="#DejaVuSans-105"/>
     <use transform="translate(434.082031 0.578125)" xlink:href="#DejaVuSans-115"/>
     <use transform="translate(486.181641 0.578125)" xlink:href="#DejaVuSans-116"/>
     <use transform="translate(525.390625 0.578125)" xlink:href="#DejaVuSans-97"/>
     <use transform="translate(586.669922 0.578125)" xlink:href="#DejaVuSans-110"/>
     <use transform="translate(650.048828 0.578125)" xlink:href="#DejaVuSans-99"/>
     <use transform="translate(705.029297 0.578125)" xlink:href="#DejaVuSans-101"/>
     <use transform="translate(766.552734 0.578125)" xlink:href="#DejaVuSans-32"/>
     <use transform="translate(798.339844 0.578125)" xlink:href="#DejaVuSans-116"/>
     <use transform="translate(837.548828 0.578125)" xlink:href="#DejaVuSans-111"/>
     <use transform="translate(898.730469 0.578125)" xlink:href="#DejaVuSans-32"/>
     <use transform="translate(930.517578 0.578125)" xlink:href="#DejaVuSans-112"/>
     <use transform="translate(993.994141 0.578125)" xlink:href="#DejaVuSans-111"/>
     <use transform="translate(1055.175781 0.578125)" xlink:href="#DejaVuSans-105"/>
     <use transform="translate(1082.958984 0.578125)" xlink:href="#DejaVuSans-110"/>
     <use transform="translate(1146.337891 0.578125)" xlink:href="#DejaVuSans-116"/>
     <use transform="translate(1185.546875 0.578125)" xlink:href="#DejaVuSans-32"/>
     <use transform="translate(1217.333984 0.578125)" xlink:href="#DejaVuSans-102"/>
     <use transform="translate(1252.539062 0.578125)" xlink:href="#DejaVuSans-114"/>
     <use transform="translate(1293.652344 0.578125)" xlink:href="#DejaVuSans-111"/>
     <use transform="translate(1354.833984 0.578125)" xlink:href="#DejaVuSans-109"/>
     <use transform="translate(1452.246094 0.578125)" xlink:href="#DejaVuSans-32"/>
     <use transform="translate(1484.033203 0.578125)" xlink:href="#DejaVuSans-108"/>
     <use transform="translate(1511.816406 0.578125)" xlink:href="#DejaVuSans-105"/>
     <use transform="translate(1539.599609 0.578125)" xlink:href="#DejaVuSans-110"/>
     <use transform="translate(1602.978516 0.578125)" xlink:href="#DejaVuSans-101"/>
     <use transform="translate(1664.501953 0.578125)" xlink:href="#DejaVuSans-58"/>
     <use transform="translate(1698.193359 0.578125)" xlink:href="#DejaVuSans-32"/>
     <use transform="translate(1729.980469 0.578125)" xlink:href="#DejaVuSans-Oblique-100"/>
     <use transform="translate(1812.939453 0.578125)" xlink:href="#DejaVuSans-61"/>
     <use transform="translate(1916.210938 0.578125)" xlink:href="#DejaVuSans-124"/>
     <use transform="translate(1949.902344 0.578125)" xlink:href="#DejaVuSans-Oblique-109"/>
     <use transform="translate(2047.314453 0.578125)" xlink:href="#DejaVuSans-Oblique-120"/>
     <use transform="translate(2106.494141 -15.828125)scale(0.7)" xlink:href="#DejaVuSans-50"/>
     <use transform="translate(2173.24707 0.578125)" xlink:href="#DejaVuSans-43"/>
     <use transform="translate(2276.518555 0.578125)" xlink:href="#DejaVuSans-Oblique-98"/>
     <use transform="translate(2359.477539 0.578125)" xlink:href="#DejaVuSans-8722"/>
     <use transform="translate(2462.749023 0.578125)" xlink:href="#DejaVuSans-Oblique-121"/>
     <use transform="translate(2521.928711 -15.828125)scale(0.7)" xlink:href="#DejaVuSans-50"/>
     <use transform="translate(2569.199219 0.578125)" xlink:href="#DejaVuSans-124"/>
    </g>
    <!-- Pythagorean's Theorem for Right Triangles: $c^2=a^2+b^2\equiv$ $d^2=\Delta x^2+\Delta y^2$ -->
    <defs>
     <path d="M 19.671875 64.796875 
L 19.671875 37.40625 
L 32.078125 37.40625 
Q 38.96875 37.40625 42.71875 40.96875 
Q 46.484375 44.53125 46.484375 51.125 
Q 46.484375 57.671875 42.71875 61.234375 
Q 38.96875 64.796875 32.078125 64.796875 
z
M 9.8125 72.90625 
L 32.078125 72.90625 
Q 44.34375 72.90625 50.609375 67.359375 
Q 56.890625 61.8125 56.890625 51.125 
Q 56.890625 40.328125 50.609375 34.8125 
Q 44.34375 29.296875 32.078125 29.296875 
L 19.671875 29.296875 
L 19.671875 0 
L 9.8125 0 
z
" id="DejaVuSans-80"/>
     <path d="M 32.171875 -5.078125 
Q 28.375 -14.84375 24.75 -17.8125 
Q 21.140625 -20.796875 15.09375 -20.796875 
L 7.90625 -20.796875 
L 7.90625 -13.28125 
L 13.1875 -13.28125 
Q 16.890625 -13.28125 18.9375 -11.515625 
Q 21 -9.765625 23.484375 -3.21875 
L 25.09375 0.875 
L 2.984375 54.6875 
L 12.5 54.6875 
L 29.59375 11.921875 
L 46.6875 54.6875 
L 56.203125 54.6875 
z
" id="DejaVuSans-121"/>
     <path d="M 54.890625 33.015625 
L 54.890625 0 
L 45.90625 0 
L 45.90625 32.71875 
Q 45.90625 40.484375 42.875 44.328125 
Q 39.84375 48.1875 33.796875 48.1875 
Q 26.515625 48.1875 22.3125 43.546875 
Q 18.109375 38.921875 18.109375 30.90625 
L 18.109375 0 
L 9.078125 0 
L 9.078125 75.984375 
L 18.109375 75.984375 
L 18.109375 46.1875 
Q 21.34375 51.125 25.703125 53.5625 
Q 30.078125 56 35.796875 56 
Q 45.21875 56 50.046875 50.171875 
Q 54.890625 44.34375 54.890625 33.015625 
z
" id="DejaVuSans-104"/>
     <path d="M 45.40625 27.984375 
Q 45.40625 37.75 41.375 43.109375 
Q 37.359375 48.484375 30.078125 48.484375 
Q 22.859375 48.484375 18.828125 43.109375 
Q 14.796875 37.75 14.796875 27.984375 
Q 14.796875 18.265625 18.828125 12.890625 
Q 22.859375 7.515625 30.078125 7.515625 
Q 37.359375 7.515625 41.375 12.890625 
Q 45.40625 18.265625 45.40625 27.984375 
z
M 54.390625 6.78125 
Q 54.390625 -7.171875 48.1875 -13.984375 
Q 42 -20.796875 29.203125 -20.796875 
Q 24.46875 -20.796875 20.265625 -20.09375 
Q 16.0625 -19.390625 12.109375 -17.921875 
L 12.109375 -9.1875 
Q 16.0625 -11.328125 19.921875 -12.34375 
Q 23.78125 -13.375 27.78125 -13.375 
Q 36.625 -13.375 41.015625 -8.765625 
Q 45.40625 -4.15625 45.40625 5.171875 
L 45.40625 9.625 
Q 42.625 4.78125 38.28125 2.390625 
Q 33.9375 0 27.875 0 
Q 17.828125 0 11.671875 7.65625 
Q 5.515625 15.328125 5.515625 27.984375 
Q 5.515625 40.671875 11.671875 48.328125 
Q 17.828125 56 27.875 56 
Q 33.9375 56 38.28125 53.609375 
Q 42.625 51.21875 45.40625 46.390625 
L 45.40625 54.6875 
L 54.390625 54.6875 
z
" id="DejaVuSans-103"/>
     <path d="M 17.921875 72.90625 
L 17.921875 45.796875 
L 9.625 45.796875 
L 9.625 72.90625 
z
" id="DejaVuSans-39"/>
     <path d="M -0.296875 72.90625 
L 61.375 72.90625 
L 61.375 64.59375 
L 35.5 64.59375 
L 35.5 0 
L 25.59375 0 
L 25.59375 64.59375 
L -0.296875 64.59375 
z
" id="DejaVuSans-84"/>
     <path d="M 44.390625 34.1875 
Q 47.5625 33.109375 50.5625 29.59375 
Q 53.5625 26.078125 56.59375 19.921875 
L 66.609375 0 
L 56 0 
L 46.6875 18.703125 
Q 43.0625 26.03125 39.671875 28.421875 
Q 36.28125 30.8125 30.421875 30.8125 
L 19.671875 30.8125 
L 19.671875 0 
L 9.8125 0 
L 9.8125 72.90625 
L 32.078125 72.90625 
Q 44.578125 72.90625 50.734375 67.671875 
Q 56.890625 62.453125 56.890625 51.90625 
Q 56.890625 45.015625 53.6875 40.46875 
Q 50.484375 35.9375 44.390625 34.1875 
z
M 19.671875 64.796875 
L 19.671875 38.921875 
L 32.078125 38.921875 
Q 39.203125 38.921875 42.84375 42.21875 
Q 46.484375 45.515625 46.484375 51.90625 
Q 46.484375 58.296875 42.84375 61.546875 
Q 39.203125 64.796875 32.078125 64.796875 
z
" id="DejaVuSans-82"/>
     <path d="M 53.609375 52.59375 
L 51.8125 43.703125 
Q 48.578125 46.046875 44.9375 47.21875 
Q 41.3125 48.390625 37.40625 48.390625 
Q 33.109375 48.390625 29.21875 46.875 
Q 25.34375 45.359375 22.703125 42.578125 
Q 18.5 38.328125 16.203125 32.609375 
Q 13.921875 26.90625 13.921875 20.796875 
Q 13.921875 13.421875 17.609375 9.8125 
Q 21.296875 6.203125 28.8125 6.203125 
Q 32.515625 6.203125 36.6875 7.328125 
Q 40.875 8.453125 45.40625 10.6875 
L 43.703125 1.8125 
Q 39.796875 0.203125 35.671875 -0.609375 
Q 31.546875 -1.421875 27.203125 -1.421875 
Q 16.3125 -1.421875 10.453125 4.015625 
Q 4.59375 9.46875 4.59375 19.578125 
Q 4.59375 28.078125 7.640625 35.234375 
Q 10.6875 42.390625 16.703125 48.09375 
Q 20.796875 52 26.3125 54 
Q 31.84375 56 38.375 56 
Q 42.1875 56 45.9375 55.140625 
Q 49.703125 54.296875 53.609375 52.59375 
z
" id="DejaVuSans-Oblique-99"/>
     <path d="M 53.71875 31.203125 
L 47.609375 0 
L 38.625 0 
L 40.28125 8.296875 
Q 36.328125 3.421875 31.265625 1 
Q 26.21875 -1.421875 20.015625 -1.421875 
Q 13.03125 -1.421875 8.5625 2.84375 
Q 4.109375 7.125 4.109375 13.8125 
Q 4.109375 23.390625 11.75 28.953125 
Q 19.390625 34.515625 32.8125 34.515625 
L 45.3125 34.515625 
L 45.796875 36.921875 
Q 45.90625 37.3125 45.953125 37.765625 
Q 46 38.234375 46 39.203125 
Q 46 43.5625 42.453125 45.96875 
Q 38.921875 48.390625 32.515625 48.390625 
Q 28.125 48.390625 23.5 47.265625 
Q 18.890625 46.140625 14.015625 43.890625 
L 15.578125 52.203125 
Q 20.65625 54.109375 25.515625 55.046875 
Q 30.375 56 34.90625 56 
Q 44.578125 56 49.625 51.796875 
Q 54.6875 47.609375 54.6875 39.59375 
Q 54.6875 37.984375 54.4375 35.8125 
Q 54.203125 33.640625 53.71875 31.203125 
z
M 44 27.484375 
L 35.015625 27.484375 
Q 23.96875 27.484375 18.671875 24.53125 
Q 13.375 21.578125 13.375 15.375 
Q 13.375 11.078125 16.078125 8.640625 
Q 18.796875 6.203125 23.578125 6.203125 
Q 30.90625 6.203125 36.375 11.453125 
Q 41.84375 16.703125 43.609375 25.484375 
z
" id="DejaVuSans-Oblique-97"/>
     <path d="M 10.59375 35.5 
L 73.1875 35.5 
L 73.1875 27.203125 
L 10.59375 27.203125 
z
M 10.59375 53.71875 
L 73.1875 53.71875 
L 73.1875 45.40625 
L 10.59375 45.40625 
z
M 10.59375 17.28125 
L 73.1875 17.28125 
L 73.1875 8.984375 
L 10.59375 8.984375 
z
" id="DejaVuSans-8801"/>
    </defs>
    <g transform="translate(97.76 676.441)scale(0.14 -0.14)">
     <use transform="translate(0 0.765625)" xlink:href="#DejaVuSans-80"/>
     <use transform="translate(60.302734 0.765625)" xlink:href="#DejaVuSans-121"/>
     <use transform="translate(119.482422 0.765625)" xlink:href="#DejaVuSans-116"/>
     <use transform="translate(158.691406 0.765625)" xlink:href="#DejaVuSans-104"/>
     <use transform="translate(222.070312 0.765625)" xlink:href="#DejaVuSans-97"/>
     <use transform="translate(283.349609 0.765625)" xlink:href="#DejaVuSans-103"/>
     <use transform="translate(346.826172 0.765625)" xlink:href="#DejaVuSans-111"/>
     <use transform="translate(408.007812 0.765625)" xlink:href="#DejaVuSans-114"/>
     <use transform="translate(449.121094 0.765625)" xlink:href="#DejaVuSans-101"/>
     <use transform="translate(510.644531 0.765625)" xlink:href="#DejaVuSans-97"/>
     <use transform="translate(571.923828 0.765625)" xlink:href="#DejaVuSans-110"/>
     <use transform="translate(635.302734 0.765625)" xlink:href="#DejaVuSans-39"/>
     <use transform="translate(662.792969 0.765625)" xlink:href="#DejaVuSans-115"/>
     <use transform="translate(714.892578 0.765625)" xlink:href="#DejaVuSans-32"/>
     <use transform="translate(746.679688 0.765625)" xlink:href="#DejaVuSans-84"/>
     <use transform="translate(807.763672 0.765625)" xlink:href="#DejaVuSans-104"/>
     <use transform="translate(871.142578 0.765625)" xlink:href="#DejaVuSans-101"/>
     <use transform="translate(932.666016 0.765625)" xlink:href="#DejaVuSans-111"/>
     <use transform="translate(993.847656 0.765625)" xlink:href="#DejaVuSans-114"/>
     <use transform="translate(1034.960938 0.765625)" xlink:href="#DejaVuSans-101"/>
     <use transform="translate(1096.484375 0.765625)" xlink:href="#DejaVuSans-109"/>
     <use transform="translate(1193.896484 0.765625)" xlink:href="#DejaVuSans-32"/>
     <use transform="translate(1225.683594 0.765625)" xlink:href="#DejaVuSans-102"/>
     <use transform="translate(1260.888672 0.765625)" xlink:href="#DejaVuSans-111"/>
     <use transform="translate(1322.070312 0.765625)" xlink:href="#DejaVuSans-114"/>
     <use transform="translate(1363.183594 0.765625)" xlink:href="#DejaVuSans-32"/>
     <use transform="translate(1394.970703 0.765625)" xlink:href="#DejaVuSans-82"/>
     <use transform="translate(1464.453125 0.765625)" xlink:href="#DejaVuSans-105"/>
     <use transform="translate(1492.236328 0.765625)" xlink:href="#DejaVuSans-103"/>
     <use transform="translate(1555.712891 0.765625)" xlink:href="#DejaVuSans-104"/>
     <use transform="translate(1619.091797 0.765625)" xlink:href="#DejaVuSans-116"/>
     <use transform="translate(1658.300781 0.765625)" xlink:href="#DejaVuSans-32"/>
     <use transform="translate(1690.087891 0.765625)" xlink:href="#DejaVuSans-84"/>
     <use transform="translate(1751.171875 0.765625)" xlink:href="#DejaVuSans-114"/>
     <use transform="translate(1792.285156 0.765625)" xlink:href="#DejaVuSans-105"/>
     <use transform="translate(1820.068359 0.765625)" xlink:href="#DejaVuSans-97"/>
     <use transform="translate(1881.347656 0.765625)" xlink:href="#DejaVuSans-110"/>
     <use transform="translate(1944.726562 0.765625)" xlink:href="#DejaVuSans-103"/>
     <use transform="translate(2008.203125 0.765625)" xlink:href="#DejaVuSans-108"/>
     <use transform="translate(2035.986328 0.765625)" xlink:href="#DejaVuSans-101"/>
     <use transform="translate(2097.509766 0.765625)" xlink:href="#DejaVuSans-115"/>
     <use transform="translate(2149.609375 0.765625)" xlink:href="#DejaVuSans-58"/>
     <use transform="translate(2183.300781 0.765625)" xlink:href="#DejaVuSans-32"/>
     <use transform="translate(2215.087891 0.765625)" xlink:href="#DejaVuSans-Oblique-99"/>
     <use transform="translate(2274.718255 39.046875)scale(0.7)" xlink:href="#DejaVuSans-50"/>
     <use transform="translate(2341.471185 0.765625)" xlink:href="#DejaVuSans-61"/>
     <use transform="translate(2444.742669 0.765625)" xlink:href="#DejaVuSans-Oblique-97"/>
     <use transform="translate(2510.671862 39.046875)scale(0.7)" xlink:href="#DejaVuSans-50"/>
     <use transform="translate(2577.424792 0.765625)" xlink:href="#DejaVuSans-43"/>
     <use transform="translate(2680.696276 0.765625)" xlink:href="#DejaVuSans-Oblique-98"/>
     <use transform="translate(2751.620547 39.046875)scale(0.7)" xlink:href="#DejaVuSans-50"/>
     <use transform="translate(2818.373477 0.765625)" xlink:href="#DejaVuSans-8801"/>
     <use transform="translate(2921.644961 0.765625)" xlink:href="#DejaVuSans-32"/>
     <use transform="translate(2953.43207 0.765625)" xlink:href="#DejaVuSans-Oblique-100"/>
     <use transform="translate(3024.356341 39.046875)scale(0.7)" xlink:href="#DejaVuSans-50"/>
     <use transform="translate(3091.109271 0.765625)" xlink:href="#DejaVuSans-61"/>
     <use transform="translate(3194.380755 0.765625)" xlink:href="#DejaVuSans-916"/>
     <use transform="translate(3262.788958 0.765625)" xlink:href="#DejaVuSans-Oblique-120"/>
     <use transform="translate(3326.434792 39.046875)scale(0.7)" xlink:href="#DejaVuSans-50"/>
     <use transform="translate(3393.187721 0.765625)" xlink:href="#DejaVuSans-43"/>
     <use transform="translate(3496.459206 0.765625)" xlink:href="#DejaVuSans-916"/>
     <use transform="translate(3564.867409 0.765625)" xlink:href="#DejaVuSans-Oblique-121"/>
     <use transform="translate(3628.513242 39.046875)scale(0.7)" xlink:href="#DejaVuSans-50"/>
    </g>
    <!-- Distance between Points: d=$\sqrt{(x_1-x_0)^2+(y_1-y_0)^2}$ -->
    <defs>
     <path d="M 48.6875 27.296875 
Q 48.6875 37.203125 44.609375 42.84375 
Q 40.53125 48.484375 33.40625 48.484375 
Q 26.265625 48.484375 22.1875 42.84375 
Q 18.109375 37.203125 18.109375 27.296875 
Q 18.109375 17.390625 22.1875 11.75 
Q 26.265625 6.109375 33.40625 6.109375 
Q 40.53125 6.109375 44.609375 11.75 
Q 48.6875 17.390625 48.6875 27.296875 
z
M 18.109375 46.390625 
Q 20.953125 51.265625 25.265625 53.625 
Q 29.59375 56 35.59375 56 
Q 45.5625 56 51.78125 48.09375 
Q 58.015625 40.1875 58.015625 27.296875 
Q 58.015625 14.40625 51.78125 6.484375 
Q 45.5625 -1.421875 35.59375 -1.421875 
Q 29.59375 -1.421875 25.265625 0.953125 
Q 20.953125 3.328125 18.109375 8.203125 
L 18.109375 0 
L 9.078125 0 
L 9.078125 75.984375 
L 18.109375 75.984375 
z
" id="DejaVuSans-98"/>
     <path d="M 108.90625 155.203125 
L 52.703125 -29.5 
L 48.5 -29.5 
L 25.40625 45.59375 
Q 24.296875 49.203125 22.890625 50.796875 
Q 21.5 52.40625 19.203125 52.40625 
Q 15.796875 52.40625 12.40625 49.703125 
L 11.203125 51.703125 
L 27.59375 64.296875 
L 30.09375 64.296875 
L 52.796875 -9.40625 
L 53.203125 -9.40625 
L 103.203125 155.203125 
z
" id="STIXSizeOneSym-Regular-8730"/>
    </defs>
    <g transform="translate(97.76 700.885)scale(0.14 -0.14)">
     <use transform="translate(0 0.53125)" xlink:href="#DejaVuSans-68"/>
     <use transform="translate(77.001953 0.53125)" xlink:href="#DejaVuSans-105"/>
     <use transform="translate(104.785156 0.53125)" xlink:href="#DejaVuSans-115"/>
     <use transform="translate(156.884766 0.53125)" xlink:href="#DejaVuSans-116"/>
     <use transform="translate(196.09375 0.53125)" xlink:href="#DejaVuSans-97"/>
     <use transform="translate(257.373047 0.53125)" xlink:href="#DejaVuSans-110"/>
     <use transform="translate(320.751953 0.53125)" xlink:href="#DejaVuSans-99"/>
     <use transform="translate(375.732422 0.53125)" xlink:href="#DejaVuSans-101"/>
     <use transform="translate(437.255859 0.53125)" xlink:href="#DejaVuSans-32"/>
     <use transform="translate(469.042969 0.53125)" xlink:href="#DejaVuSans-98"/>
     <use transform="translate(532.519531 0.53125)" xlink:href="#DejaVuSans-101"/>
     <use transform="translate(594.042969 0.53125)" xlink:href="#DejaVuSans-116"/>
     <use transform="translate(633.251953 0.53125)" xlink:href="#DejaVuSans-119"/>
     <use transform="translate(715.039062 0.53125)" xlink:href="#DejaVuSans-101"/>
     <use transform="translate(776.5625 0.53125)" xlink:href="#DejaVuSans-101"/>
     <use transform="translate(838.085938 0.53125)" xlink:href="#DejaVuSans-110"/>
     <use transform="translate(901.464844 0.53125)" xlink:href="#DejaVuSans-32"/>
     <use transform="translate(933.251953 0.53125)" xlink:href="#DejaVuSans-80"/>
     <use transform="translate(993.554688 0.53125)" xlink:href="#DejaVuSans-111"/>
     <use transform="translate(1054.736328 0.53125)" xlink:href="#DejaVuSans-105"/>
     <use transform="translate(1082.519531 0.53125)" xlink:href="#DejaVuSans-110"/>
     <use transform="translate(1145.898438 0.53125)" xlink:href="#DejaVuSans-116"/>
     <use transform="translate(1185.107422 0.53125)" xlink:href="#DejaVuSans-115"/>
     <use transform="translate(1237.207031 0.53125)" xlink:href="#DejaVuSans-58"/>
     <use transform="translate(1270.898438 0.53125)" xlink:href="#DejaVuSans-32"/>
     <use transform="translate(1302.685547 0.53125)" xlink:href="#DejaVuSans-100"/>
     <use transform="translate(1366.162109 0.53125)" xlink:href="#DejaVuSans-61"/>
     <use transform="translate(1449.951172 2.453125)scale(0.770324)" xlink:href="#STIXSizeOneSym-Regular-8730"/>
     <use transform="translate(1543.873199 0.515625)" xlink:href="#DejaVuSans-40"/>
     <use transform="translate(1582.886871 0.515625)" xlink:href="#DejaVuSans-Oblique-120"/>
     <use transform="translate(1642.066559 -15.890625)scale(0.7)" xlink:href="#DejaVuSans-49"/>
     <use transform="translate(1708.819489 0.515625)" xlink:href="#DejaVuSans-8722"/>
     <use transform="translate(1812.090973 0.515625)" xlink:href="#DejaVuSans-Oblique-120"/>
     <use transform="translate(1871.27066 -15.890625)scale(0.7)" xlink:href="#DejaVuSans-48"/>
     <use transform="translate(1918.541168 0.515625)" xlink:href="#DejaVuSans-41"/>
     <use transform="translate(1958.511871 38.796875)scale(0.7)" xlink:href="#DejaVuSans-50"/>
     <use transform="translate(2025.264801 0.515625)" xlink:href="#DejaVuSans-43"/>
     <use transform="translate(2128.536285 0.515625)" xlink:href="#DejaVuSans-40"/>
     <use transform="translate(2167.549957 0.515625)" xlink:href="#DejaVuSans-Oblique-121"/>
     <use transform="translate(2226.729645 -15.890625)scale(0.7)" xlink:href="#DejaVuSans-49"/>
     <use transform="translate(2293.482574 0.515625)" xlink:href="#DejaVuSans-8722"/>
     <use transform="translate(2396.754059 0.515625)" xlink:href="#DejaVuSans-Oblique-121"/>
     <use transform="translate(2455.933746 -15.890625)scale(0.7)" xlink:href="#DejaVuSans-48"/>
     <use transform="translate(2503.204254 0.515625)" xlink:href="#DejaVuSans-41"/>
     <use transform="translate(2543.174957 38.796875)scale(0.7)" xlink:href="#DejaVuSans-50"/>
     <path d="M 1531.373199 115.5 
L 1531.373199 121.75 
L 2602.945465 121.75 
L 2602.945465 115.5 
L 1531.373199 115.5 
z
"/>
    </g>
   </g>
  </g>
  <g id="axes_2">
   <g id="patch_2">
    <path d="M 97.76 463.39379 
L 704.88 463.39379 
L 704.88 34.08 
L 97.76 34.08 
z
" style="fill:#ffffff;"/>
   </g>
   <g id="matplotlib.axis_1">
    <g id="xtick_1">
     <g id="line2d_1">
      <defs>
       <path d="M 0 0 
L 0 3.5 
" id="mdb8323114a" style="stroke:#000000;stroke-width:0.8;"/>
      </defs>
      <g>
       <use style="stroke:#000000;stroke-width:0.8;" x="125.356364" xlink:href="#mdb8323114a" y="463.39379"/>
      </g>
     </g>
     <g id="text_2">
      <!-- 2019-10-03 -->
      <defs>
       <path d="M 10.984375 1.515625 
L 10.984375 10.5 
Q 14.703125 8.734375 18.5 7.8125 
Q 22.3125 6.890625 25.984375 6.890625 
Q 35.75 6.890625 40.890625 13.453125 
Q 46.046875 20.015625 46.78125 33.40625 
Q 43.953125 29.203125 39.59375 26.953125 
Q 35.25 24.703125 29.984375 24.703125 
Q 19.046875 24.703125 12.671875 31.3125 
Q 6.296875 37.9375 6.296875 49.421875 
Q 6.296875 60.640625 12.9375 67.421875 
Q 19.578125 74.21875 30.609375 74.21875 
Q 43.265625 74.21875 49.921875 64.515625 
Q 56.59375 54.828125 56.59375 36.375 
Q 56.59375 19.140625 48.40625 8.859375 
Q 40.234375 -1.421875 26.421875 -1.421875 
Q 22.703125 -1.421875 18.890625 -0.6875 
Q 15.09375 0.046875 10.984375 1.515625 
z
M 30.609375 32.421875 
Q 37.25 32.421875 41.125 36.953125 
Q 45.015625 41.5 45.015625 49.421875 
Q 45.015625 57.28125 41.125 61.84375 
Q 37.25 66.40625 30.609375 66.40625 
Q 23.96875 66.40625 20.09375 61.84375 
Q 16.21875 57.28125 16.21875 49.421875 
Q 16.21875 41.5 20.09375 36.953125 
Q 23.96875 32.421875 30.609375 32.421875 
z
" id="DejaVuSans-57"/>
       <path d="M 40.578125 39.3125 
Q 47.65625 37.796875 51.625 33 
Q 55.609375 28.21875 55.609375 21.1875 
Q 55.609375 10.40625 48.1875 4.484375 
Q 40.765625 -1.421875 27.09375 -1.421875 
Q 22.515625 -1.421875 17.65625 -0.515625 
Q 12.796875 0.390625 7.625 2.203125 
L 7.625 11.71875 
Q 11.71875 9.328125 16.59375 8.109375 
Q 21.484375 6.890625 26.8125 6.890625 
Q 36.078125 6.890625 40.9375 10.546875 
Q 45.796875 14.203125 45.796875 21.1875 
Q 45.796875 27.640625 41.28125 31.265625 
Q 36.765625 34.90625 28.71875 34.90625 
L 20.21875 34.90625 
L 20.21875 43.015625 
L 29.109375 43.015625 
Q 36.375 43.015625 40.234375 45.921875 
Q 44.09375 48.828125 44.09375 54.296875 
Q 44.09375 59.90625 40.109375 62.90625 
Q 36.140625 65.921875 28.71875 65.921875 
Q 24.65625 65.921875 20.015625 65.03125 
Q 15.375 64.15625 9.8125 62.3125 
L 9.8125 71.09375 
Q 15.4375 72.65625 20.34375 73.4375 
Q 25.25 74.21875 29.59375 74.21875 
Q 40.828125 74.21875 47.359375 69.109375 
Q 53.90625 64.015625 53.90625 55.328125 
Q 53.90625 49.265625 50.4375 45.09375 
Q 46.96875 40.921875 40.578125 39.3125 
z
" id="DejaVuSans-51"/>
      </defs>
      <g transform="translate(53.439132 520.287343)rotate(-30)scale(0.14 -0.14)">
       <use xlink:href="#DejaVuSans-50"/>
       <use x="63.623047" xlink:href="#DejaVuSans-48"/>
       <use x="127.246094" xlink:href="#DejaVuSans-49"/>
       <use x="190.869141" xlink:href="#DejaVuSans-57"/>
       <use x="254.492188" xlink:href="#DejaVuSans-45"/>
       <use x="290.576172" xlink:href="#DejaVuSans-49"/>
       <use x="354.199219" xlink:href="#DejaVuSans-48"/>
       <use x="417.822266" xlink:href="#DejaVuSans-45"/>
       <use x="453.90625" xlink:href="#DejaVuSans-48"/>
       <use x="517.529297" xlink:href="#DejaVuSans-51"/>
      </g>
     </g>
    </g>
    <g id="xtick_2">
     <g id="line2d_2">
      <g>
       <use style="stroke:#000000;stroke-width:0.8;" x="401.32" xlink:href="#mdb8323114a" y="463.39379"/>
      </g>
     </g>
     <g id="text_3">
      <!-- 2019-10-04 -->
      <defs>
       <path d="M 37.796875 64.3125 
L 12.890625 25.390625 
L 37.796875 25.390625 
z
M 35.203125 72.90625 
L 47.609375 72.90625 
L 47.609375 25.390625 
L 58.015625 25.390625 
L 58.015625 17.1875 
L 47.609375 17.1875 
L 47.609375 0 
L 37.796875 0 
L 37.796875 17.1875 
L 4.890625 17.1875 
L 4.890625 26.703125 
z
" id="DejaVuSans-52"/>
      </defs>
      <g transform="translate(329.402768 520.287343)rotate(-30)scale(0.14 -0.14)">
       <use xlink:href="#DejaVuSans-50"/>
       <use x="63.623047" xlink:href="#DejaVuSans-48"/>
       <use x="127.246094" xlink:href="#DejaVuSans-49"/>
       <use x="190.869141" xlink:href="#DejaVuSans-57"/>
       <use x="254.492188" xlink:href="#DejaVuSans-45"/>
       <use x="290.576172" xlink:href="#DejaVuSans-49"/>
       <use x="354.199219" xlink:href="#DejaVuSans-48"/>
       <use x="417.822266" xlink:href="#DejaVuSans-45"/>
       <use x="453.90625" xlink:href="#DejaVuSans-48"/>
       <use x="517.529297" xlink:href="#DejaVuSans-52"/>
      </g>
     </g>
    </g>
    <g id="xtick_3">
     <g id="line2d_3">
      <g>
       <use style="stroke:#000000;stroke-width:0.8;" x="677.283636" xlink:href="#mdb8323114a" y="463.39379"/>
      </g>
     </g>
     <g id="text_4">
      <!-- 2019-10-07 -->
      <defs>
       <path d="M 8.203125 72.90625 
L 55.078125 72.90625 
L 55.078125 68.703125 
L 28.609375 0 
L 18.3125 0 
L 43.21875 64.59375 
L 8.203125 64.59375 
z
" id="DejaVuSans-55"/>
      </defs>
      <g transform="translate(605.366404 520.287343)rotate(-30)scale(0.14 -0.14)">
       <use xlink:href="#DejaVuSans-50"/>
       <use x="63.623047" xlink:href="#DejaVuSans-48"/>
       <use x="127.246094" xlink:href="#DejaVuSans-49"/>
       <use x="190.869141" xlink:href="#DejaVuSans-57"/>
       <use x="254.492188" xlink:href="#DejaVuSans-45"/>
       <use x="290.576172" xlink:href="#DejaVuSans-49"/>
       <use x="354.199219" xlink:href="#DejaVuSans-48"/>
       <use x="417.822266" xlink:href="#DejaVuSans-45"/>
       <use x="453.90625" xlink:href="#DejaVuSans-48"/>
       <use x="517.529297" xlink:href="#DejaVuSans-55"/>
      </g>
     </g>
    </g>
    <g id="text_5">
     <!-- Date -->
     <g transform="translate(384.588906 537.446643)scale(0.14 -0.14)">
      <use xlink:href="#DejaVuSans-68"/>
      <use x="77.001953" xlink:href="#DejaVuSans-97"/>
      <use x="138.28125" xlink:href="#DejaVuSans-116"/>
      <use x="177.490234" xlink:href="#DejaVuSans-101"/>
     </g>
    </g>
   </g>
   <g id="matplotlib.axis_2">
    <g id="ytick_1">
     <g id="line2d_4">
      <defs>
       <path d="M 0 0 
L -3.5 0 
" id="m117a166c63" style="stroke:#000000;stroke-width:0.8;"/>
      </defs>
      <g>
       <use style="stroke:#000000;stroke-width:0.8;" x="97.76" xlink:href="#m117a166c63" y="409.729566"/>
      </g>
     </g>
     <g id="text_6">
      <!-- 2910.63 -->
      <defs>
       <path d="M 10.6875 12.40625 
L 21 12.40625 
L 21 0 
L 10.6875 0 
z
" id="DejaVuSans-46"/>
       <path d="M 33.015625 40.375 
Q 26.375 40.375 22.484375 35.828125 
Q 18.609375 31.296875 18.609375 23.390625 
Q 18.609375 15.53125 22.484375 10.953125 
Q 26.375 6.390625 33.015625 6.390625 
Q 39.65625 6.390625 43.53125 10.953125 
Q 47.40625 15.53125 47.40625 23.390625 
Q 47.40625 31.296875 43.53125 35.828125 
Q 39.65625 40.375 33.015625 40.375 
z
M 52.59375 71.296875 
L 52.59375 62.3125 
Q 48.875 64.0625 45.09375 64.984375 
Q 41.3125 65.921875 37.59375 65.921875 
Q 27.828125 65.921875 22.671875 59.328125 
Q 17.53125 52.734375 16.796875 39.40625 
Q 19.671875 43.65625 24.015625 45.921875 
Q 28.375 48.1875 33.59375 48.1875 
Q 44.578125 48.1875 50.953125 41.515625 
Q 57.328125 34.859375 57.328125 23.390625 
Q 57.328125 12.15625 50.6875 5.359375 
Q 44.046875 -1.421875 33.015625 -1.421875 
Q 20.359375 -1.421875 13.671875 8.265625 
Q 6.984375 17.96875 6.984375 36.375 
Q 6.984375 53.65625 15.1875 63.9375 
Q 23.390625 74.21875 37.203125 74.21875 
Q 40.921875 74.21875 44.703125 73.484375 
Q 48.484375 72.75 52.59375 71.296875 
z
" id="DejaVuSans-54"/>
      </defs>
      <g transform="translate(32.865625 415.048472)scale(0.14 -0.14)">
       <use xlink:href="#DejaVuSans-50"/>
       <use x="63.623047" xlink:href="#DejaVuSans-57"/>
       <use x="127.246094" xlink:href="#DejaVuSans-49"/>
       <use x="190.869141" xlink:href="#DejaVuSans-48"/>
       <use x="254.492188" xlink:href="#DejaVuSans-46"/>
       <use x="286.279297" xlink:href="#DejaVuSans-54"/>
       <use x="349.902344" xlink:href="#DejaVuSans-51"/>
      </g>
     </g>
    </g>
    <g id="ytick_2">
     <g id="line2d_5">
      <g>
       <use style="stroke:#000000;stroke-width:0.8;" x="97.76" xlink:href="#m117a166c63" y="51.968075"/>
      </g>
     </g>
     <g id="text_7">
      <!-- 2952.01 -->
      <defs>
       <path d="M 10.796875 72.90625 
L 49.515625 72.90625 
L 49.515625 64.59375 
L 19.828125 64.59375 
L 19.828125 46.734375 
Q 21.96875 47.46875 24.109375 47.828125 
Q 26.265625 48.1875 28.421875 48.1875 
Q 40.625 48.1875 47.75 41.5 
Q 54.890625 34.8125 54.890625 23.390625 
Q 54.890625 11.625 47.5625 5.09375 
Q 40.234375 -1.421875 26.90625 -1.421875 
Q 22.3125 -1.421875 17.546875 -0.640625 
Q 12.796875 0.140625 7.71875 1.703125 
L 7.71875 11.625 
Q 12.109375 9.234375 16.796875 8.0625 
Q 21.484375 6.890625 26.703125 6.890625 
Q 35.15625 6.890625 40.078125 11.328125 
Q 45.015625 15.765625 45.015625 23.390625 
Q 45.015625 31 40.078125 35.4375 
Q 35.15625 39.890625 26.703125 39.890625 
Q 22.75 39.890625 18.8125 39.015625 
Q 14.890625 38.140625 10.796875 36.28125 
z
" id="DejaVuSans-53"/>
      </defs>
      <g transform="translate(32.865625 57.286981)scale(0.14 -0.14)">
       <use xlink:href="#DejaVuSans-50"/>
       <use x="63.623047" xlink:href="#DejaVuSans-57"/>
       <use x="127.246094" xlink:href="#DejaVuSans-53"/>
       <use x="190.869141" xlink:href="#DejaVuSans-50"/>
       <use x="254.492188" xlink:href="#DejaVuSans-46"/>
       <use x="286.279297" xlink:href="#DejaVuSans-48"/>
       <use x="349.902344" xlink:href="#DejaVuSans-49"/>
      </g>
     </g>
    </g>
    <g id="ytick_3">
     <g id="line2d_6">
      <g>
       <use style="stroke:#000000;stroke-width:0.8;" x="97.76" xlink:href="#m117a166c63" y="166.265003"/>
      </g>
     </g>
     <g id="text_8">
      <!-- 2938.79 -->
      <defs>
       <path d="M 31.78125 34.625 
Q 24.75 34.625 20.71875 30.859375 
Q 16.703125 27.09375 16.703125 20.515625 
Q 16.703125 13.921875 20.71875 10.15625 
Q 24.75 6.390625 31.78125 6.390625 
Q 38.8125 6.390625 42.859375 10.171875 
Q 46.921875 13.96875 46.921875 20.515625 
Q 46.921875 27.09375 42.890625 30.859375 
Q 38.875 34.625 31.78125 34.625 
z
M 21.921875 38.8125 
Q 15.578125 40.375 12.03125 44.71875 
Q 8.5 49.078125 8.5 55.328125 
Q 8.5 64.0625 14.71875 69.140625 
Q 20.953125 74.21875 31.78125 74.21875 
Q 42.671875 74.21875 48.875 69.140625 
Q 55.078125 64.0625 55.078125 55.328125 
Q 55.078125 49.078125 51.53125 44.71875 
Q 48 40.375 41.703125 38.8125 
Q 48.828125 37.15625 52.796875 32.3125 
Q 56.78125 27.484375 56.78125 20.515625 
Q 56.78125 9.90625 50.3125 4.234375 
Q 43.84375 -1.421875 31.78125 -1.421875 
Q 19.734375 -1.421875 13.25 4.234375 
Q 6.78125 9.90625 6.78125 20.515625 
Q 6.78125 27.484375 10.78125 32.3125 
Q 14.796875 37.15625 21.921875 38.8125 
z
M 18.3125 54.390625 
Q 18.3125 48.734375 21.84375 45.5625 
Q 25.390625 42.390625 31.78125 42.390625 
Q 38.140625 42.390625 41.71875 45.5625 
Q 45.3125 48.734375 45.3125 54.390625 
Q 45.3125 60.0625 41.71875 63.234375 
Q 38.140625 66.40625 31.78125 66.40625 
Q 25.390625 66.40625 21.84375 63.234375 
Q 18.3125 60.0625 18.3125 54.390625 
z
" id="DejaVuSans-56"/>
      </defs>
      <g transform="translate(32.865625 171.58391)scale(0.14 -0.14)">
       <use xlink:href="#DejaVuSans-50"/>
       <use x="63.623047" xlink:href="#DejaVuSans-57"/>
       <use x="127.246094" xlink:href="#DejaVuSans-51"/>
       <use x="190.869141" xlink:href="#DejaVuSans-56"/>
       <use x="254.492188" xlink:href="#DejaVuSans-46"/>
       <use x="286.279297" xlink:href="#DejaVuSans-55"/>
       <use x="349.902344" xlink:href="#DejaVuSans-57"/>
      </g>
     </g>
    </g>
    <g id="text_9">
     <!-- Price -->
     <g transform="translate(25.954062 265.93502)rotate(-90)scale(0.14 -0.14)">
      <use xlink:href="#DejaVuSans-80"/>
      <use x="60.287109" xlink:href="#DejaVuSans-114"/>
      <use x="101.400391" xlink:href="#DejaVuSans-105"/>
      <use x="129.183594" xlink:href="#DejaVuSans-99"/>
      <use x="184.164062" xlink:href="#DejaVuSans-101"/>
     </g>
    </g>
   </g>
   <g id="line2d_7">
    <path clip-path="url(#p7e23707760)" d="M 125.356364 409.729566 
L 401.32 51.968075 
L 677.283636 166.265003 
" style="fill:none;stroke:#1f77b4;stroke-linecap:square;stroke-width:1.5;"/>
   </g>
   <g id="line2d_8">
    <path clip-path="url(#p7e23707760)" d="M 125.356364 409.729566 
L 677.283636 166.265003 
" style="fill:none;stroke:#008000;stroke-dasharray:5.55,2.4;stroke-dashoffset:0;stroke-width:1.5;"/>
   </g>
   <g id="line2d_9">
    <path clip-path="url(#p7e23707760)" d="M 401.32 287.997285 
L 401.32 51.968075 
" style="fill:none;stroke:#ff0000;stroke-dasharray:5.55,2.4;stroke-dashoffset:0;stroke-width:1.5;"/>
   </g>
   <g id="line2d_10">
    <path clip-path="url(#p7e23707760)" d="M 125.356364 409.729566 
L 677.283636 409.729566 
" style="fill:none;stroke:#00bfbf;stroke-dasharray:5.55,2.4;stroke-dashoffset:0;stroke-width:1.5;"/>
   </g>
   <g id="line2d_11">
    <path clip-path="url(#p7e23707760)" d="M 677.283636 409.729566 
L 677.283636 166.265003 
" style="fill:none;stroke:#00bfbf;stroke-dasharray:5.55,2.4;stroke-dashoffset:0;stroke-width:1.5;"/>
   </g>
   <g id="patch_3">
    <path d="M 97.76 463.39379 
L 97.76 34.08 
" style="fill:none;stroke:#000000;stroke-linecap:square;stroke-linejoin:miter;stroke-width:0.8;"/>
   </g>
   <g id="patch_4">
    <path d="M 704.88 463.39379 
L 704.88 34.08 
" style="fill:none;stroke:#000000;stroke-linecap:square;stroke-linejoin:miter;stroke-width:0.8;"/>
   </g>
   <g id="patch_5">
    <path d="M 97.76 463.39379 
L 704.88 463.39379 
" style="fill:none;stroke:#000000;stroke-linecap:square;stroke-linejoin:miter;stroke-width:0.8;"/>
   </g>
   <g id="patch_6">
    <path d="M 97.76 34.08 
L 704.88 34.08 
" style="fill:none;stroke:#000000;stroke-linecap:square;stroke-linejoin:miter;stroke-width:0.8;"/>
   </g>
   <g id="patch_7">
    <path d="M 419.90917 333.016349 
Q 410.996376 311.431433 402.083581 289.846517 
M 413.955165 281.915219 
L 415.023815 284.503265 
L 389.143347 295.18977 
L 388.074697 292.601723 
" style="fill:none;stroke:#008000;stroke-linecap:round;"/>
   </g>
   <g id="text_10">
    <!-- $d=\sqrt{(2910.63-2938.79)^2+(0-2)^2}=28.23$ -->
    <g style="fill:#008000;" transform="translate(266.4948 353.838406)scale(0.14 -0.14)">
     <use transform="translate(0 0.53125)" xlink:href="#DejaVuSans-Oblique-100"/>
     <use transform="translate(82.958984 0.53125)" xlink:href="#DejaVuSans-61"/>
     <use transform="translate(186.230469 8.84375)scale(0.729126)" xlink:href="#STIXSizeOneSym-Regular-8730"/>
     <use transform="translate(275.792374 0.515625)" xlink:href="#DejaVuSans-40"/>
     <use transform="translate(314.806046 0.515625)" xlink:href="#DejaVuSans-50"/>
     <use transform="translate(378.413467 0.515625)" xlink:href="#DejaVuSans-57"/>
     <use transform="translate(442.036514 0.515625)" xlink:href="#DejaVuSans-49"/>
     <use transform="translate(505.659561 0.515625)" xlink:href="#DejaVuSans-48"/>
     <use transform="translate(569.282608 0.515625)" xlink:href="#DejaVuSans-46"/>
     <use transform="translate(601.069717 0.515625)" xlink:href="#DejaVuSans-54"/>
     <use transform="translate(664.692764 0.515625)" xlink:href="#DejaVuSans-51"/>
     <use transform="translate(747.798233 0.515625)" xlink:href="#DejaVuSans-8722"/>
     <use transform="translate(851.069717 0.515625)" xlink:href="#DejaVuSans-50"/>
     <use transform="translate(914.677139 0.515625)" xlink:href="#DejaVuSans-57"/>
     <use transform="translate(978.300186 0.515625)" xlink:href="#DejaVuSans-51"/>
     <use transform="translate(1041.923233 0.515625)" xlink:href="#DejaVuSans-56"/>
     <use transform="translate(1105.54628 0.515625)" xlink:href="#DejaVuSans-46"/>
     <use transform="translate(1137.224014 0.515625)" xlink:href="#DejaVuSans-55"/>
     <use transform="translate(1200.847061 0.515625)" xlink:href="#DejaVuSans-57"/>
     <use transform="translate(1264.470108 0.515625)" xlink:href="#DejaVuSans-41"/>
     <use transform="translate(1304.440811 38.796875)scale(0.7)" xlink:href="#DejaVuSans-50"/>
     <use transform="translate(1371.193741 0.515625)" xlink:href="#DejaVuSans-43"/>
     <use transform="translate(1474.465225 0.515625)" xlink:href="#DejaVuSans-40"/>
     <use transform="translate(1513.478897 0.515625)" xlink:href="#DejaVuSans-48"/>
     <use transform="translate(1596.584366 0.515625)" xlink:href="#DejaVuSans-8722"/>
     <use transform="translate(1699.85585 0.515625)" xlink:href="#DejaVuSans-50"/>
     <use transform="translate(1763.478897 0.515625)" xlink:href="#DejaVuSans-41"/>
     <use transform="translate(1803.4496 38.796875)scale(0.7)" xlink:href="#DejaVuSans-50"/>
     <use transform="translate(1882.70253 0.53125)" xlink:href="#DejaVuSans-61"/>
     <use transform="translate(1985.974014 0.53125)" xlink:href="#DejaVuSans-50"/>
     <use transform="translate(2049.597061 0.53125)" xlink:href="#DejaVuSans-56"/>
     <use transform="translate(2113.220108 0.53125)" xlink:href="#DejaVuSans-46"/>
     <use transform="translate(2144.929092 0.53125)" xlink:href="#DejaVuSans-50"/>
     <use transform="translate(2208.552139 0.53125)" xlink:href="#DejaVuSans-51"/>
     <path d="M 263.292374 115.5 
L 263.292374 121.75 
L 1863.220108 121.75 
L 1863.220108 115.5 
L 263.292374 115.5 
z
"/>
    </g>
   </g>
   <g id="patch_8">
    <path d="M 265.293066 432.546873 
Q 196.313342 421.29942 128.43708 410.231891 
" style="fill:none;stroke:#000000;stroke-linecap:round;"/>
    <path d="M 133.513488 413.896599 
L 128.43708 410.231891 
L 134.414691 408.36959 
" style="fill:none;stroke:#000000;stroke-linecap:round;"/>
   </g>
   <g id="text_11">
    <!-- $b=2938.79-14.08*2=2910.63-14.08*0=2910.63$ -->
    <defs>
     <path d="M 47.015625 60.890625 
L 29.5 51.421875 
L 47.015625 41.890625 
L 44.1875 37.109375 
L 27.78125 47.015625 
L 27.78125 28.609375 
L 22.21875 28.609375 
L 22.21875 47.015625 
L 5.8125 37.109375 
L 2.984375 41.890625 
L 20.515625 51.421875 
L 2.984375 60.890625 
L 5.8125 65.71875 
L 22.21875 55.8125 
L 22.21875 74.21875 
L 27.78125 74.21875 
L 27.78125 55.8125 
L 44.1875 65.71875 
z
" id="DejaVuSans-42"/>
    </defs>
    <g transform="translate(125.356364 445.505715)scale(0.14 -0.14)">
     <use transform="translate(0 0.015625)" xlink:href="#DejaVuSans-Oblique-98"/>
     <use transform="translate(82.958984 0.015625)" xlink:href="#DejaVuSans-61"/>
     <use transform="translate(186.230469 0.015625)" xlink:href="#DejaVuSans-50"/>
     <use transform="translate(249.837891 0.015625)" xlink:href="#DejaVuSans-57"/>
     <use transform="translate(313.460938 0.015625)" xlink:href="#DejaVuSans-51"/>
     <use transform="translate(377.083984 0.015625)" xlink:href="#DejaVuSans-56"/>
     <use transform="translate(440.707031 0.015625)" xlink:href="#DejaVuSans-46"/>
     <use transform="translate(472.384766 0.015625)" xlink:href="#DejaVuSans-55"/>
     <use transform="translate(536.007812 0.015625)" xlink:href="#DejaVuSans-57"/>
     <use transform="translate(619.113281 0.015625)" xlink:href="#DejaVuSans-8722"/>
     <use transform="translate(722.384766 0.015625)" xlink:href="#DejaVuSans-49"/>
     <use transform="translate(786.007812 0.015625)" xlink:href="#DejaVuSans-52"/>
     <use transform="translate(849.630859 0.015625)" xlink:href="#DejaVuSans-46"/>
     <use transform="translate(881.417969 0.015625)" xlink:href="#DejaVuSans-48"/>
     <use transform="translate(945.041016 0.015625)" xlink:href="#DejaVuSans-56"/>
     <use transform="translate(1028.146484 0.015625)" xlink:href="#DejaVuSans-42"/>
     <use transform="translate(1097.628906 0.015625)" xlink:href="#DejaVuSans-50"/>
     <use transform="translate(1180.734375 0.015625)" xlink:href="#DejaVuSans-61"/>
     <use transform="translate(1284.005859 0.015625)" xlink:href="#DejaVuSans-50"/>
     <use transform="translate(1347.613281 0.015625)" xlink:href="#DejaVuSans-57"/>
     <use transform="translate(1411.236328 0.015625)" xlink:href="#DejaVuSans-49"/>
     <use transform="translate(1474.859375 0.015625)" xlink:href="#DejaVuSans-48"/>
     <use transform="translate(1538.482422 0.015625)" xlink:href="#DejaVuSans-46"/>
     <use transform="translate(1570.269531 0.015625)" xlink:href="#DejaVuSans-54"/>
     <use transform="translate(1633.892578 0.015625)" xlink:href="#DejaVuSans-51"/>
     <use transform="translate(1716.998047 0.015625)" xlink:href="#DejaVuSans-8722"/>
     <use transform="translate(1820.269531 0.015625)" xlink:href="#DejaVuSans-49"/>
     <use transform="translate(1883.892578 0.015625)" xlink:href="#DejaVuSans-52"/>
     <use transform="translate(1947.515625 0.015625)" xlink:href="#DejaVuSans-46"/>
     <use transform="translate(1979.302734 0.015625)" xlink:href="#DejaVuSans-48"/>
     <use transform="translate(2042.925781 0.015625)" xlink:href="#DejaVuSans-56"/>
     <use transform="translate(2126.03125 0.015625)" xlink:href="#DejaVuSans-42"/>
     <use transform="translate(2195.513672 0.015625)" xlink:href="#DejaVuSans-48"/>
     <use transform="translate(2278.619141 0.015625)" xlink:href="#DejaVuSans-61"/>
     <use transform="translate(2381.890625 0.015625)" xlink:href="#DejaVuSans-50"/>
     <use transform="translate(2445.498047 0.015625)" xlink:href="#DejaVuSans-57"/>
     <use transform="translate(2509.121094 0.015625)" xlink:href="#DejaVuSans-49"/>
     <use transform="translate(2572.744141 0.015625)" xlink:href="#DejaVuSans-48"/>
     <use transform="translate(2636.367188 0.015625)" xlink:href="#DejaVuSans-46"/>
     <use transform="translate(2668.154297 0.015625)" xlink:href="#DejaVuSans-54"/>
     <use transform="translate(2731.777344 0.015625)" xlink:href="#DejaVuSans-51"/>
    </g>
   </g>
   <g id="patch_9">
    <path d="M 424.916329 169.98268 
Q 414.119108 169.98268 403.321886 169.98268 
M 400.521886 155.98268 
L 403.321886 155.98268 
L 403.321886 183.98268 
L 400.521886 183.98268 
" style="fill:none;stroke:#ff0000;stroke-linecap:round;"/>
   </g>
   <g id="text_12">
    <!-- $d=$ -->
    <g style="fill:#ff0000;" transform="translate(428.916364 157.859336)scale(0.14 -0.14)">
     <use transform="translate(0 0.015625)" xlink:href="#DejaVuSans-Oblique-100"/>
     <use transform="translate(82.958984 0.015625)" xlink:href="#DejaVuSans-61"/>
    </g>
    <!-- $\left|14.08*1+2910.63-2952.01\right|$ -->
    <g style="fill:#ff0000;" transform="translate(428.916364 173.706898)scale(0.14 -0.14)">
     <use transform="translate(0 0.578125)" xlink:href="#DejaVuSans-124"/>
     <use transform="translate(33.691406 0.578125)" xlink:href="#DejaVuSans-49"/>
     <use transform="translate(97.314453 0.578125)" xlink:href="#DejaVuSans-52"/>
     <use transform="translate(160.9375 0.578125)" xlink:href="#DejaVuSans-46"/>
     <use transform="translate(192.724609 0.578125)" xlink:href="#DejaVuSans-48"/>
     <use transform="translate(256.347656 0.578125)" xlink:href="#DejaVuSans-56"/>
     <use transform="translate(339.453125 0.578125)" xlink:href="#DejaVuSans-42"/>
     <use transform="translate(408.935547 0.578125)" xlink:href="#DejaVuSans-49"/>
     <use transform="translate(492.041016 0.578125)" xlink:href="#DejaVuSans-43"/>
     <use transform="translate(595.3125 0.578125)" xlink:href="#DejaVuSans-50"/>
     <use transform="translate(658.919922 0.578125)" xlink:href="#DejaVuSans-57"/>
     <use transform="translate(722.542969 0.578125)" xlink:href="#DejaVuSans-49"/>
     <use transform="translate(786.166016 0.578125)" xlink:href="#DejaVuSans-48"/>
     <use transform="translate(849.789062 0.578125)" xlink:href="#DejaVuSans-46"/>
     <use transform="translate(881.576172 0.578125)" xlink:href="#DejaVuSans-54"/>
     <use transform="translate(945.199219 0.578125)" xlink:href="#DejaVuSans-51"/>
     <use transform="translate(1028.304688 0.578125)" xlink:href="#DejaVuSans-8722"/>
     <use transform="translate(1131.576172 0.578125)" xlink:href="#DejaVuSans-50"/>
     <use transform="translate(1195.183594 0.578125)" xlink:href="#DejaVuSans-57"/>
     <use transform="translate(1258.806641 0.578125)" xlink:href="#DejaVuSans-53"/>
     <use transform="translate(1322.429688 0.578125)" xlink:href="#DejaVuSans-50"/>
     <use transform="translate(1386.052734 0.578125)" xlink:href="#DejaVuSans-46"/>
     <use transform="translate(1417.839844 0.578125)" xlink:href="#DejaVuSans-48"/>
     <use transform="translate(1481.462891 0.578125)" xlink:href="#DejaVuSans-49"/>
     <use transform="translate(1545.085938 0.578125)" xlink:href="#DejaVuSans-124"/>
    </g>
    <!-- $=27.3$ -->
    <g style="fill:#ff0000;" transform="translate(428.916364 189.832273)scale(0.14 -0.14)">
     <use transform="translate(19.482422 0.78125)" xlink:href="#DejaVuSans-61"/>
     <use transform="translate(122.753906 0.78125)" xlink:href="#DejaVuSans-50"/>
     <use transform="translate(186.376953 0.78125)" xlink:href="#DejaVuSans-55"/>
     <use transform="translate(250 0.78125)" xlink:href="#DejaVuSans-46"/>
     <use transform="translate(281.787109 0.78125)" xlink:href="#DejaVuSans-51"/>
    </g>
   </g>
   <g id="patch_10">
    <path d="M 474.526964 307.673539 
Q 438.890847 298.095416 404.334444 288.807494 
" style="fill:none;stroke:#000000;stroke-linecap:round;"/>
    <path d="M 409.015732 292.965084 
L 404.334444 288.807494 
L 410.469288 287.557018 
" style="fill:none;stroke:#000000;stroke-linecap:round;"/>
   </g>
   <g id="text_13">
    <!-- $m=\frac{-28.16}{-2}=14.08$ -->
    <g transform="translate(456.512727 323.773434)scale(0.14 -0.14)">
     <use transform="translate(0 0.254687)" xlink:href="#DejaVuSans-Oblique-109"/>
     <use transform="translate(116.894531 0.254687)" xlink:href="#DejaVuSans-61"/>
     <use transform="translate(220.166016 45.046875)scale(0.7)" xlink:href="#DejaVuSans-8722"/>
     <use transform="translate(278.818359 45.046875)scale(0.7)" xlink:href="#DejaVuSans-50"/>
     <use transform="translate(323.354492 45.046875)scale(0.7)" xlink:href="#DejaVuSans-56"/>
     <use transform="translate(367.890625 45.046875)scale(0.7)" xlink:href="#DejaVuSans-46"/>
     <use transform="translate(390.141602 45.046875)scale(0.7)" xlink:href="#DejaVuSans-49"/>
     <use transform="translate(434.677734 45.046875)scale(0.7)" xlink:href="#DejaVuSans-54"/>
     <use transform="translate(298.166016 -39.151563)scale(0.7)" xlink:href="#DejaVuSans-8722"/>
     <use transform="translate(356.818359 -39.151563)scale(0.7)" xlink:href="#DejaVuSans-50"/>
     <use transform="translate(511.196289 0.254687)" xlink:href="#DejaVuSans-61"/>
     <use transform="translate(614.467773 0.254687)" xlink:href="#DejaVuSans-49"/>
     <use transform="translate(678.09082 0.254687)" xlink:href="#DejaVuSans-52"/>
     <use transform="translate(741.713867 0.254687)" xlink:href="#DejaVuSans-46"/>
     <use transform="translate(773.500977 0.254687)" xlink:href="#DejaVuSans-48"/>
     <use transform="translate(837.124023 0.254687)" xlink:href="#DejaVuSans-56"/>
     <path d="M 220.166016 19.051563 
L 220.166016 25.301563 
L 479.213867 25.301563 
L 479.213867 19.051563 
L 220.166016 19.051563 
z
"/>
    </g>
   </g>
   <g id="patch_11">
    <path d="M 401.32 384.727924 
Q 401.32 396.229228 401.32 407.730533 
M 387.32 410.530533 
L 387.32 407.730533 
L 415.32 407.730533 
L 415.32 410.530533 
" style="fill:none;stroke:#00ffff;stroke-linecap:round;"/>
   </g>
   <g id="text_14">
    <!-- $\Delta x=0-2=-2$ -->
    <g style="fill:#00ffff;" transform="translate(344.62 377.816542)scale(0.14 -0.14)">
     <use transform="translate(0 0.78125)" xlink:href="#DejaVuSans-916"/>
     <use transform="translate(68.408203 0.78125)" xlink:href="#DejaVuSans-Oblique-120"/>
     <use transform="translate(147.070312 0.78125)" xlink:href="#DejaVuSans-61"/>
     <use transform="translate(250.341797 0.78125)" xlink:href="#DejaVuSans-48"/>
     <use transform="translate(333.447266 0.78125)" xlink:href="#DejaVuSans-8722"/>
     <use transform="translate(436.71875 0.78125)" xlink:href="#DejaVuSans-50"/>
     <use transform="translate(519.824219 0.78125)" xlink:href="#DejaVuSans-61"/>
     <use transform="translate(642.578125 0.78125)" xlink:href="#DejaVuSans-8722"/>
     <use transform="translate(745.849609 0.78125)" xlink:href="#DejaVuSans-50"/>
    </g>
   </g>
   <g id="patch_12">
    <path d="M 664.538925 287.997285 
Q 669.910933 287.997285 675.282941 287.997285 
M 678.082941 301.997285 
L 675.282941 301.997285 
L 675.282941 273.997285 
L 678.082941 273.997285 
" style="fill:none;stroke:#00ffff;stroke-linecap:round;"/>
   </g>
   <g id="text_15">
    <!-- $\Delta y=2910.63-2938.79=-28.16$ -->
    <g style="fill:#00ffff;" transform="translate(418.061818 291.831972)scale(0.14 -0.14)">
     <use transform="translate(0 0.78125)" xlink:href="#DejaVuSans-916"/>
     <use transform="translate(68.408203 0.78125)" xlink:href="#DejaVuSans-Oblique-121"/>
     <use transform="translate(147.070312 0.78125)" xlink:href="#DejaVuSans-61"/>
     <use transform="translate(250.341797 0.78125)" xlink:href="#DejaVuSans-50"/>
     <use transform="translate(313.949219 0.78125)" xlink:href="#DejaVuSans-57"/>
     <use transform="translate(377.572266 0.78125)" xlink:href="#DejaVuSans-49"/>
     <use transform="translate(441.195312 0.78125)" xlink:href="#DejaVuSans-48"/>
     <use transform="translate(504.818359 0.78125)" xlink:href="#DejaVuSans-46"/>
     <use transform="translate(536.605469 0.78125)" xlink:href="#DejaVuSans-54"/>
     <use transform="translate(600.228516 0.78125)" xlink:href="#DejaVuSans-51"/>
     <use transform="translate(683.333984 0.78125)" xlink:href="#DejaVuSans-8722"/>
     <use transform="translate(786.605469 0.78125)" xlink:href="#DejaVuSans-50"/>
     <use transform="translate(850.212891 0.78125)" xlink:href="#DejaVuSans-57"/>
     <use transform="translate(913.835938 0.78125)" xlink:href="#DejaVuSans-51"/>
     <use transform="translate(977.458984 0.78125)" xlink:href="#DejaVuSans-56"/>
     <use transform="translate(1041.082031 0.78125)" xlink:href="#DejaVuSans-46"/>
     <use transform="translate(1072.759766 0.78125)" xlink:href="#DejaVuSans-55"/>
     <use transform="translate(1136.382812 0.78125)" xlink:href="#DejaVuSans-57"/>
     <use transform="translate(1219.488281 0.78125)" xlink:href="#DejaVuSans-61"/>
     <use transform="translate(1342.242188 0.78125)" xlink:href="#DejaVuSans-8722"/>
     <use transform="translate(1445.513672 0.78125)" xlink:href="#DejaVuSans-50"/>
     <use transform="translate(1509.136719 0.78125)" xlink:href="#DejaVuSans-56"/>
     <use transform="translate(1572.759766 0.78125)" xlink:href="#DejaVuSans-46"/>
     <use transform="translate(1604.546875 0.78125)" xlink:href="#DejaVuSans-49"/>
     <use transform="translate(1668.169922 0.78125)" xlink:href="#DejaVuSans-54"/>
    </g>
   </g>
   <g id="text_16">
    <!-- Closing Price Points Demonstrating Line Calculations -->
    <defs>
     <path d="M 64.40625 67.28125 
L 64.40625 56.890625 
Q 59.421875 61.53125 53.78125 63.8125 
Q 48.140625 66.109375 41.796875 66.109375 
Q 29.296875 66.109375 22.65625 58.46875 
Q 16.015625 50.828125 16.015625 36.375 
Q 16.015625 21.96875 22.65625 14.328125 
Q 29.296875 6.6875 41.796875 6.6875 
Q 48.140625 6.6875 53.78125 8.984375 
Q 59.421875 11.28125 64.40625 15.921875 
L 64.40625 5.609375 
Q 59.234375 2.09375 53.4375 0.328125 
Q 47.65625 -1.421875 41.21875 -1.421875 
Q 24.65625 -1.421875 15.125 8.703125 
Q 5.609375 18.84375 5.609375 36.375 
Q 5.609375 53.953125 15.125 64.078125 
Q 24.65625 74.21875 41.21875 74.21875 
Q 47.75 74.21875 53.53125 72.484375 
Q 59.328125 70.75 64.40625 67.28125 
z
" id="DejaVuSans-67"/>
     <path d="M 9.8125 72.90625 
L 19.671875 72.90625 
L 19.671875 8.296875 
L 55.171875 8.296875 
L 55.171875 0 
L 9.8125 0 
z
" id="DejaVuSans-76"/>
    </defs>
    <g transform="translate(179.525875 28.08)scale(0.168 -0.168)">
     <use xlink:href="#DejaVuSans-67"/>
     <use x="69.824219" xlink:href="#DejaVuSans-108"/>
     <use x="97.607422" xlink:href="#DejaVuSans-111"/>
     <use x="158.789062" xlink:href="#DejaVuSans-115"/>
     <use x="210.888672" xlink:href="#DejaVuSans-105"/>
     <use x="238.671875" xlink:href="#DejaVuSans-110"/>
     <use x="302.050781" xlink:href="#DejaVuSans-103"/>
     <use x="365.527344" xlink:href="#DejaVuSans-32"/>
     <use x="397.314453" xlink:href="#DejaVuSans-80"/>
     <use x="457.601562" xlink:href="#DejaVuSans-114"/>
     <use x="498.714844" xlink:href="#DejaVuSans-105"/>
     <use x="526.498047" xlink:href="#DejaVuSans-99"/>
     <use x="581.478516" xlink:href="#DejaVuSans-101"/>
     <use x="643.001953" xlink:href="#DejaVuSans-32"/>
     <use x="674.789062" xlink:href="#DejaVuSans-80"/>
     <use x="735.044922" xlink:href="#DejaVuSans-111"/>
     <use x="796.226562" xlink:href="#DejaVuSans-105"/>
     <use x="824.009766" xlink:href="#DejaVuSans-110"/>
     <use x="887.388672" xlink:href="#DejaVuSans-116"/>
     <use x="926.597656" xlink:href="#DejaVuSans-115"/>
     <use x="978.697266" xlink:href="#DejaVuSans-32"/>
     <use x="1010.484375" xlink:href="#DejaVuSans-68"/>
     <use x="1087.486328" xlink:href="#DejaVuSans-101"/>
     <use x="1149.009766" xlink:href="#DejaVuSans-109"/>
     <use x="1246.421875" xlink:href="#DejaVuSans-111"/>
     <use x="1307.603516" xlink:href="#DejaVuSans-110"/>
     <use x="1370.982422" xlink:href="#DejaVuSans-115"/>
     <use x="1423.082031" xlink:href="#DejaVuSans-116"/>
     <use x="1462.291016" xlink:href="#DejaVuSans-114"/>
     <use x="1503.404297" xlink:href="#DejaVuSans-97"/>
     <use x="1564.683594" xlink:href="#DejaVuSans-116"/>
     <use x="1603.892578" xlink:href="#DejaVuSans-105"/>
     <use x="1631.675781" xlink:href="#DejaVuSans-110"/>
     <use x="1695.054688" xlink:href="#DejaVuSans-103"/>
     <use x="1758.53125" xlink:href="#DejaVuSans-32"/>
     <use x="1790.318359" xlink:href="#DejaVuSans-76"/>
     <use x="1846.03125" xlink:href="#DejaVuSans-105"/>
     <use x="1873.814453" xlink:href="#DejaVuSans-110"/>
     <use x="1937.193359" xlink:href="#DejaVuSans-101"/>
     <use x="1998.716797" xlink:href="#DejaVuSans-32"/>
     <use x="2030.503906" xlink:href="#DejaVuSans-67"/>
     <use x="2100.328125" xlink:href="#DejaVuSans-97"/>
     <use x="2161.607422" xlink:href="#DejaVuSans-108"/>
     <use x="2189.390625" xlink:href="#DejaVuSans-99"/>
     <use x="2244.371094" xlink:href="#DejaVuSans-117"/>
     <use x="2307.75" xlink:href="#DejaVuSans-108"/>
     <use x="2335.533203" xlink:href="#DejaVuSans-97"/>
     <use x="2396.8125" xlink:href="#DejaVuSans-116"/>
     <use x="2436.021484" xlink:href="#DejaVuSans-105"/>
     <use x="2463.804688" xlink:href="#DejaVuSans-111"/>
     <use x="2524.986328" xlink:href="#DejaVuSans-110"/>
     <use x="2588.365234" xlink:href="#DejaVuSans-115"/>
    </g>
   </g>
  </g>
 </g>
 <defs>
  <clipPath id="p7e23707760">
   <rect height="429.31379" width="607.12" x="97.76" y="34.08"/>
  </clipPath>
 </defs>
</svg>
