<?xml version="1.0" encoding="utf-8" standalone="no"?>
<!DOCTYPE svg PUBLIC "-//W3C//DTD SVG 1.1//EN"
  "http://www.w3.org/Graphics/SVG/1.1/DTD/svg11.dtd">
<!-- Created with matplotlib (https://matplotlib.org/) -->
<svg height="914.92479pt" version="1.1" viewBox="0 0 969.699375 914.92479" width="969.699375pt" xmlns="http://www.w3.org/2000/svg" xmlns:xlink="http://www.w3.org/1999/xlink">
 <defs>
  <style type="text/css">
*{stroke-linecap:butt;stroke-linejoin:round;}
  </style>
 </defs>
 <g id="figure_1">
  <g id="patch_1">
   <path d="M 0 914.92479 
L 969.699375 914.92479 
L 969.699375 0 
L 0 0 
z
" style="fill:#ffffff;"/>
  </g>
  <g id="axes_1">
   <g id="patch_2">
    <path d="M 67.379375 830.760375 
L 962.499375 830.760375 
L 962.499375 25.965375 
L 67.379375 25.965375 
z
" style="fill:#ffffff;"/>
   </g>
   <g id="matplotlib.axis_1">
    <g id="xtick_1">
     <g id="line2d_1">
      <defs>
       <path d="M 0 0 
L 0 3.5 
" id="m446141897a" style="stroke:#000000;stroke-width:0.8;"/>
      </defs>
      <g>
       <use style="stroke:#000000;stroke-width:0.8;" x="108.066648" xlink:href="#m446141897a" y="830.760375"/>
      </g>
     </g>
     <g id="text_1">
      <!-- 2018-10-09 -->
      <defs>
       <path d="M 19.1875 8.296875 
L 53.609375 8.296875 
L 53.609375 0 
L 7.328125 0 
L 7.328125 8.296875 
Q 12.9375 14.109375 22.625 23.890625 
Q 32.328125 33.6875 34.8125 36.53125 
Q 39.546875 41.84375 41.421875 45.53125 
Q 43.3125 49.21875 43.3125 52.78125 
Q 43.3125 58.59375 39.234375 62.25 
Q 35.15625 65.921875 28.609375 65.921875 
Q 23.96875 65.921875 18.8125 64.3125 
Q 13.671875 62.703125 7.8125 59.421875 
L 7.8125 69.390625 
Q 13.765625 71.78125 18.9375 73 
Q 24.125 74.21875 28.421875 74.21875 
Q 39.75 74.21875 46.484375 68.546875 
Q 53.21875 62.890625 53.21875 53.421875 
Q 53.21875 48.921875 51.53125 44.890625 
Q 49.859375 40.875 45.40625 35.40625 
Q 44.1875 33.984375 37.640625 27.21875 
Q 31.109375 20.453125 19.1875 8.296875 
z
" id="DejaVuSans-50"/>
       <path d="M 31.78125 66.40625 
Q 24.171875 66.40625 20.328125 58.90625 
Q 16.5 51.421875 16.5 36.375 
Q 16.5 21.390625 20.328125 13.890625 
Q 24.171875 6.390625 31.78125 6.390625 
Q 39.453125 6.390625 43.28125 13.890625 
Q 47.125 21.390625 47.125 36.375 
Q 47.125 51.421875 43.28125 58.90625 
Q 39.453125 66.40625 31.78125 66.40625 
z
M 31.78125 74.21875 
Q 44.046875 74.21875 50.515625 64.515625 
Q 56.984375 54.828125 56.984375 36.375 
Q 56.984375 17.96875 50.515625 8.265625 
Q 44.046875 -1.421875 31.78125 -1.421875 
Q 19.53125 -1.421875 13.0625 8.265625 
Q 6.59375 17.96875 6.59375 36.375 
Q 6.59375 54.828125 13.0625 64.515625 
Q 19.53125 74.21875 31.78125 74.21875 
z
" id="DejaVuSans-48"/>
       <path d="M 12.40625 8.296875 
L 28.515625 8.296875 
L 28.515625 63.921875 
L 10.984375 60.40625 
L 10.984375 69.390625 
L 28.421875 72.90625 
L 38.28125 72.90625 
L 38.28125 8.296875 
L 54.390625 8.296875 
L 54.390625 0 
L 12.40625 0 
z
" id="DejaVuSans-49"/>
       <path d="M 31.78125 34.625 
Q 24.75 34.625 20.71875 30.859375 
Q 16.703125 27.09375 16.703125 20.515625 
Q 16.703125 13.921875 20.71875 10.15625 
Q 24.75 6.390625 31.78125 6.390625 
Q 38.8125 6.390625 42.859375 10.171875 
Q 46.921875 13.96875 46.921875 20.515625 
Q 46.921875 27.09375 42.890625 30.859375 
Q 38.875 34.625 31.78125 34.625 
z
M 21.921875 38.8125 
Q 15.578125 40.375 12.03125 44.71875 
Q 8.5 49.078125 8.5 55.328125 
Q 8.5 64.0625 14.71875 69.140625 
Q 20.953125 74.21875 31.78125 74.21875 
Q 42.671875 74.21875 48.875 69.140625 
Q 55.078125 64.0625 55.078125 55.328125 
Q 55.078125 49.078125 51.53125 44.71875 
Q 48 40.375 41.703125 38.8125 
Q 48.828125 37.15625 52.796875 32.3125 
Q 56.78125 27.484375 56.78125 20.515625 
Q 56.78125 9.90625 50.3125 4.234375 
Q 43.84375 -1.421875 31.78125 -1.421875 
Q 19.734375 -1.421875 13.25 4.234375 
Q 6.78125 9.90625 6.78125 20.515625 
Q 6.78125 27.484375 10.78125 32.3125 
Q 14.796875 37.15625 21.921875 38.8125 
z
M 18.3125 54.390625 
Q 18.3125 48.734375 21.84375 45.5625 
Q 25.390625 42.390625 31.78125 42.390625 
Q 38.140625 42.390625 41.71875 45.5625 
Q 45.3125 48.734375 45.3125 54.390625 
Q 45.3125 60.0625 41.71875 63.234375 
Q 38.140625 66.40625 31.78125 66.40625 
Q 25.390625 66.40625 21.84375 63.234375 
Q 18.3125 60.0625 18.3125 54.390625 
z
" id="DejaVuSans-56"/>
       <path d="M 4.890625 31.390625 
L 31.203125 31.390625 
L 31.203125 23.390625 
L 4.890625 23.390625 
z
" id="DejaVuSans-45"/>
       <path d="M 10.984375 1.515625 
L 10.984375 10.5 
Q 14.703125 8.734375 18.5 7.8125 
Q 22.3125 6.890625 25.984375 6.890625 
Q 35.75 6.890625 40.890625 13.453125 
Q 46.046875 20.015625 46.78125 33.40625 
Q 43.953125 29.203125 39.59375 26.953125 
Q 35.25 24.703125 29.984375 24.703125 
Q 19.046875 24.703125 12.671875 31.3125 
Q 6.296875 37.9375 6.296875 49.421875 
Q 6.296875 60.640625 12.9375 67.421875 
Q 19.578125 74.21875 30.609375 74.21875 
Q 43.265625 74.21875 49.921875 64.515625 
Q 56.59375 54.828125 56.59375 36.375 
Q 56.59375 19.140625 48.40625 8.859375 
Q 40.234375 -1.421875 26.421875 -1.421875 
Q 22.703125 -1.421875 18.890625 -0.6875 
Q 15.09375 0.046875 10.984375 1.515625 
z
M 30.609375 32.421875 
Q 37.25 32.421875 41.125 36.953125 
Q 45.015625 41.5 45.015625 49.421875 
Q 45.015625 57.28125 41.125 61.84375 
Q 37.25 66.40625 30.609375 66.40625 
Q 23.96875 66.40625 20.09375 61.84375 
Q 16.21875 57.28125 16.21875 49.421875 
Q 16.21875 41.5 20.09375 36.953125 
Q 23.96875 32.421875 30.609375 32.421875 
z
" id="DejaVuSans-57"/>
      </defs>
      <g transform="translate(36.149416 887.653928)rotate(-30)scale(0.14 -0.14)">
       <use xlink:href="#DejaVuSans-50"/>
       <use x="63.623047" xlink:href="#DejaVuSans-48"/>
       <use x="127.246094" xlink:href="#DejaVuSans-49"/>
       <use x="190.869141" xlink:href="#DejaVuSans-56"/>
       <use x="254.492188" xlink:href="#DejaVuSans-45"/>
       <use x="290.576172" xlink:href="#DejaVuSans-49"/>
       <use x="354.199219" xlink:href="#DejaVuSans-48"/>
       <use x="417.822266" xlink:href="#DejaVuSans-45"/>
       <use x="453.90625" xlink:href="#DejaVuSans-48"/>
       <use x="517.529297" xlink:href="#DejaVuSans-57"/>
      </g>
     </g>
    </g>
    <g id="xtick_2">
     <g id="line2d_2">
      <g>
       <use style="stroke:#000000;stroke-width:0.8;" x="271.469349" xlink:href="#m446141897a" y="830.760375"/>
      </g>
     </g>
     <g id="text_2">
      <!-- 2018-12-20 -->
      <g transform="translate(199.552118 887.653928)rotate(-30)scale(0.14 -0.14)">
       <use xlink:href="#DejaVuSans-50"/>
       <use x="63.623047" xlink:href="#DejaVuSans-48"/>
       <use x="127.246094" xlink:href="#DejaVuSans-49"/>
       <use x="190.869141" xlink:href="#DejaVuSans-56"/>
       <use x="254.492188" xlink:href="#DejaVuSans-45"/>
       <use x="290.576172" xlink:href="#DejaVuSans-49"/>
       <use x="354.199219" xlink:href="#DejaVuSans-50"/>
       <use x="417.822266" xlink:href="#DejaVuSans-45"/>
       <use x="453.90625" xlink:href="#DejaVuSans-50"/>
       <use x="517.529297" xlink:href="#DejaVuSans-48"/>
      </g>
     </g>
    </g>
    <g id="xtick_3">
     <g id="line2d_3">
      <g>
       <use style="stroke:#000000;stroke-width:0.8;" x="434.872051" xlink:href="#m446141897a" y="830.760375"/>
      </g>
     </g>
     <g id="text_3">
      <!-- 2019-03-06 -->
      <defs>
       <path d="M 40.578125 39.3125 
Q 47.65625 37.796875 51.625 33 
Q 55.609375 28.21875 55.609375 21.1875 
Q 55.609375 10.40625 48.1875 4.484375 
Q 40.765625 -1.421875 27.09375 -1.421875 
Q 22.515625 -1.421875 17.65625 -0.515625 
Q 12.796875 0.390625 7.625 2.203125 
L 7.625 11.71875 
Q 11.71875 9.328125 16.59375 8.109375 
Q 21.484375 6.890625 26.8125 6.890625 
Q 36.078125 6.890625 40.9375 10.546875 
Q 45.796875 14.203125 45.796875 21.1875 
Q 45.796875 27.640625 41.28125 31.265625 
Q 36.765625 34.90625 28.71875 34.90625 
L 20.21875 34.90625 
L 20.21875 43.015625 
L 29.109375 43.015625 
Q 36.375 43.015625 40.234375 45.921875 
Q 44.09375 48.828125 44.09375 54.296875 
Q 44.09375 59.90625 40.109375 62.90625 
Q 36.140625 65.921875 28.71875 65.921875 
Q 24.65625 65.921875 20.015625 65.03125 
Q 15.375 64.15625 9.8125 62.3125 
L 9.8125 71.09375 
Q 15.4375 72.65625 20.34375 73.4375 
Q 25.25 74.21875 29.59375 74.21875 
Q 40.828125 74.21875 47.359375 69.109375 
Q 53.90625 64.015625 53.90625 55.328125 
Q 53.90625 49.265625 50.4375 45.09375 
Q 46.96875 40.921875 40.578125 39.3125 
z
" id="DejaVuSans-51"/>
       <path d="M 33.015625 40.375 
Q 26.375 40.375 22.484375 35.828125 
Q 18.609375 31.296875 18.609375 23.390625 
Q 18.609375 15.53125 22.484375 10.953125 
Q 26.375 6.390625 33.015625 6.390625 
Q 39.65625 6.390625 43.53125 10.953125 
Q 47.40625 15.53125 47.40625 23.390625 
Q 47.40625 31.296875 43.53125 35.828125 
Q 39.65625 40.375 33.015625 40.375 
z
M 52.59375 71.296875 
L 52.59375 62.3125 
Q 48.875 64.0625 45.09375 64.984375 
Q 41.3125 65.921875 37.59375 65.921875 
Q 27.828125 65.921875 22.671875 59.328125 
Q 17.53125 52.734375 16.796875 39.40625 
Q 19.671875 43.65625 24.015625 45.921875 
Q 28.375 48.1875 33.59375 48.1875 
Q 44.578125 48.1875 50.953125 41.515625 
Q 57.328125 34.859375 57.328125 23.390625 
Q 57.328125 12.15625 50.6875 5.359375 
Q 44.046875 -1.421875 33.015625 -1.421875 
Q 20.359375 -1.421875 13.671875 8.265625 
Q 6.984375 17.96875 6.984375 36.375 
Q 6.984375 53.65625 15.1875 63.9375 
Q 23.390625 74.21875 37.203125 74.21875 
Q 40.921875 74.21875 44.703125 73.484375 
Q 48.484375 72.75 52.59375 71.296875 
z
" id="DejaVuSans-54"/>
      </defs>
      <g transform="translate(362.954819 887.653928)rotate(-30)scale(0.14 -0.14)">
       <use xlink:href="#DejaVuSans-50"/>
       <use x="63.623047" xlink:href="#DejaVuSans-48"/>
       <use x="127.246094" xlink:href="#DejaVuSans-49"/>
       <use x="190.869141" xlink:href="#DejaVuSans-57"/>
       <use x="254.492188" xlink:href="#DejaVuSans-45"/>
       <use x="290.576172" xlink:href="#DejaVuSans-48"/>
       <use x="354.199219" xlink:href="#DejaVuSans-51"/>
       <use x="417.822266" xlink:href="#DejaVuSans-45"/>
       <use x="453.90625" xlink:href="#DejaVuSans-48"/>
       <use x="517.529297" xlink:href="#DejaVuSans-54"/>
      </g>
     </g>
    </g>
    <g id="xtick_4">
     <g id="line2d_4">
      <g>
       <use style="stroke:#000000;stroke-width:0.8;" x="598.274753" xlink:href="#m446141897a" y="830.760375"/>
      </g>
     </g>
     <g id="text_4">
      <!-- 2019-05-16 -->
      <defs>
       <path d="M 10.796875 72.90625 
L 49.515625 72.90625 
L 49.515625 64.59375 
L 19.828125 64.59375 
L 19.828125 46.734375 
Q 21.96875 47.46875 24.109375 47.828125 
Q 26.265625 48.1875 28.421875 48.1875 
Q 40.625 48.1875 47.75 41.5 
Q 54.890625 34.8125 54.890625 23.390625 
Q 54.890625 11.625 47.5625 5.09375 
Q 40.234375 -1.421875 26.90625 -1.421875 
Q 22.3125 -1.421875 17.546875 -0.640625 
Q 12.796875 0.140625 7.71875 1.703125 
L 7.71875 11.625 
Q 12.109375 9.234375 16.796875 8.0625 
Q 21.484375 6.890625 26.703125 6.890625 
Q 35.15625 6.890625 40.078125 11.328125 
Q 45.015625 15.765625 45.015625 23.390625 
Q 45.015625 31 40.078125 35.4375 
Q 35.15625 39.890625 26.703125 39.890625 
Q 22.75 39.890625 18.8125 39.015625 
Q 14.890625 38.140625 10.796875 36.28125 
z
" id="DejaVuSans-53"/>
      </defs>
      <g transform="translate(526.357521 887.653928)rotate(-30)scale(0.14 -0.14)">
       <use xlink:href="#DejaVuSans-50"/>
       <use x="63.623047" xlink:href="#DejaVuSans-48"/>
       <use x="127.246094" xlink:href="#DejaVuSans-49"/>
       <use x="190.869141" xlink:href="#DejaVuSans-57"/>
       <use x="254.492188" xlink:href="#DejaVuSans-45"/>
       <use x="290.576172" xlink:href="#DejaVuSans-48"/>
       <use x="354.199219" xlink:href="#DejaVuSans-53"/>
       <use x="417.822266" xlink:href="#DejaVuSans-45"/>
       <use x="453.90625" xlink:href="#DejaVuSans-49"/>
       <use x="517.529297" xlink:href="#DejaVuSans-54"/>
      </g>
     </g>
    </g>
    <g id="xtick_5">
     <g id="line2d_5">
      <g>
       <use style="stroke:#000000;stroke-width:0.8;" x="761.677455" xlink:href="#m446141897a" y="830.760375"/>
      </g>
     </g>
     <g id="text_5">
      <!-- 2019-07-29 -->
      <defs>
       <path d="M 8.203125 72.90625 
L 55.078125 72.90625 
L 55.078125 68.703125 
L 28.609375 0 
L 18.3125 0 
L 43.21875 64.59375 
L 8.203125 64.59375 
z
" id="DejaVuSans-55"/>
      </defs>
      <g transform="translate(689.760223 887.653928)rotate(-30)scale(0.14 -0.14)">
       <use xlink:href="#DejaVuSans-50"/>
       <use x="63.623047" xlink:href="#DejaVuSans-48"/>
       <use x="127.246094" xlink:href="#DejaVuSans-49"/>
       <use x="190.869141" xlink:href="#DejaVuSans-57"/>
       <use x="254.492188" xlink:href="#DejaVuSans-45"/>
       <use x="290.576172" xlink:href="#DejaVuSans-48"/>
       <use x="354.199219" xlink:href="#DejaVuSans-55"/>
       <use x="417.822266" xlink:href="#DejaVuSans-45"/>
       <use x="453.90625" xlink:href="#DejaVuSans-50"/>
       <use x="517.529297" xlink:href="#DejaVuSans-57"/>
      </g>
     </g>
    </g>
    <g id="xtick_6">
     <g id="line2d_6">
      <g>
       <use style="stroke:#000000;stroke-width:0.8;" x="925.080156" xlink:href="#m446141897a" y="830.760375"/>
      </g>
     </g>
     <g id="text_6">
      <!-- 2019-10-08 -->
      <g transform="translate(853.162924 887.653928)rotate(-30)scale(0.14 -0.14)">
       <use xlink:href="#DejaVuSans-50"/>
       <use x="63.623047" xlink:href="#DejaVuSans-48"/>
       <use x="127.246094" xlink:href="#DejaVuSans-49"/>
       <use x="190.869141" xlink:href="#DejaVuSans-57"/>
       <use x="254.492188" xlink:href="#DejaVuSans-45"/>
       <use x="290.576172" xlink:href="#DejaVuSans-49"/>
       <use x="354.199219" xlink:href="#DejaVuSans-48"/>
       <use x="417.822266" xlink:href="#DejaVuSans-45"/>
       <use x="453.90625" xlink:href="#DejaVuSans-48"/>
       <use x="517.529297" xlink:href="#DejaVuSans-56"/>
      </g>
     </g>
    </g>
    <g id="text_7">
     <!-- Date -->
     <defs>
      <path d="M 19.671875 64.796875 
L 19.671875 8.109375 
L 31.59375 8.109375 
Q 46.6875 8.109375 53.6875 14.9375 
Q 60.6875 21.78125 60.6875 36.53125 
Q 60.6875 51.171875 53.6875 57.984375 
Q 46.6875 64.796875 31.59375 64.796875 
z
M 9.8125 72.90625 
L 30.078125 72.90625 
Q 51.265625 72.90625 61.171875 64.09375 
Q 71.09375 55.28125 71.09375 36.53125 
Q 71.09375 17.671875 61.125 8.828125 
Q 51.171875 0 30.078125 0 
L 9.8125 0 
z
" id="DejaVuSans-68"/>
      <path d="M 34.28125 27.484375 
Q 23.390625 27.484375 19.1875 25 
Q 14.984375 22.515625 14.984375 16.5 
Q 14.984375 11.71875 18.140625 8.90625 
Q 21.296875 6.109375 26.703125 6.109375 
Q 34.1875 6.109375 38.703125 11.40625 
Q 43.21875 16.703125 43.21875 25.484375 
L 43.21875 27.484375 
z
M 52.203125 31.203125 
L 52.203125 0 
L 43.21875 0 
L 43.21875 8.296875 
Q 40.140625 3.328125 35.546875 0.953125 
Q 30.953125 -1.421875 24.3125 -1.421875 
Q 15.921875 -1.421875 10.953125 3.296875 
Q 6 8.015625 6 15.921875 
Q 6 25.140625 12.171875 29.828125 
Q 18.359375 34.515625 30.609375 34.515625 
L 43.21875 34.515625 
L 43.21875 35.40625 
Q 43.21875 41.609375 39.140625 45 
Q 35.0625 48.390625 27.6875 48.390625 
Q 23 48.390625 18.546875 47.265625 
Q 14.109375 46.140625 10.015625 43.890625 
L 10.015625 52.203125 
Q 14.9375 54.109375 19.578125 55.046875 
Q 24.21875 56 28.609375 56 
Q 40.484375 56 46.34375 49.84375 
Q 52.203125 43.703125 52.203125 31.203125 
z
" id="DejaVuSans-97"/>
      <path d="M 18.3125 70.21875 
L 18.3125 54.6875 
L 36.8125 54.6875 
L 36.8125 47.703125 
L 18.3125 47.703125 
L 18.3125 18.015625 
Q 18.3125 11.328125 20.140625 9.421875 
Q 21.96875 7.515625 27.59375 7.515625 
L 36.8125 7.515625 
L 36.8125 0 
L 27.59375 0 
Q 17.1875 0 13.234375 3.875 
Q 9.28125 7.765625 9.28125 18.015625 
L 9.28125 47.703125 
L 2.6875 47.703125 
L 2.6875 54.6875 
L 9.28125 54.6875 
L 9.28125 70.21875 
z
" id="DejaVuSans-116"/>
      <path d="M 56.203125 29.59375 
L 56.203125 25.203125 
L 14.890625 25.203125 
Q 15.484375 15.921875 20.484375 11.0625 
Q 25.484375 6.203125 34.421875 6.203125 
Q 39.59375 6.203125 44.453125 7.46875 
Q 49.3125 8.734375 54.109375 11.28125 
L 54.109375 2.78125 
Q 49.265625 0.734375 44.1875 -0.34375 
Q 39.109375 -1.421875 33.890625 -1.421875 
Q 20.796875 -1.421875 13.15625 6.1875 
Q 5.515625 13.8125 5.515625 26.8125 
Q 5.515625 40.234375 12.765625 48.109375 
Q 20.015625 56 32.328125 56 
Q 43.359375 56 49.78125 48.890625 
Q 56.203125 41.796875 56.203125 29.59375 
z
M 47.21875 32.234375 
Q 47.125 39.59375 43.09375 43.984375 
Q 39.0625 48.390625 32.421875 48.390625 
Q 24.90625 48.390625 20.390625 44.140625 
Q 15.875 39.890625 15.1875 32.171875 
z
" id="DejaVuSans-101"/>
     </defs>
     <g transform="translate(498.208281 904.813228)scale(0.14 -0.14)">
      <use xlink:href="#DejaVuSans-68"/>
      <use x="77.001953" xlink:href="#DejaVuSans-97"/>
      <use x="138.28125" xlink:href="#DejaVuSans-116"/>
      <use x="177.490234" xlink:href="#DejaVuSans-101"/>
     </g>
    </g>
   </g>
   <g id="matplotlib.axis_2">
    <g id="ytick_1">
     <g id="line2d_7">
      <defs>
       <path d="M 0 0 
L -3.5 0 
" id="mbb1d2d3a14" style="stroke:#000000;stroke-width:0.8;"/>
      </defs>
      <g>
       <use style="stroke:#000000;stroke-width:0.8;" x="67.379375" xlink:href="#mbb1d2d3a14" y="766.716799"/>
      </g>
     </g>
     <g id="text_8">
      <!-- 2400 -->
      <defs>
       <path d="M 37.796875 64.3125 
L 12.890625 25.390625 
L 37.796875 25.390625 
z
M 35.203125 72.90625 
L 47.609375 72.90625 
L 47.609375 25.390625 
L 58.015625 25.390625 
L 58.015625 17.1875 
L 47.609375 17.1875 
L 47.609375 0 
L 37.796875 0 
L 37.796875 17.1875 
L 4.890625 17.1875 
L 4.890625 26.703125 
z
" id="DejaVuSans-52"/>
      </defs>
      <g transform="translate(24.749375 772.035705)scale(0.14 -0.14)">
       <use xlink:href="#DejaVuSans-50"/>
       <use x="63.623047" xlink:href="#DejaVuSans-52"/>
       <use x="127.246094" xlink:href="#DejaVuSans-48"/>
       <use x="190.869141" xlink:href="#DejaVuSans-48"/>
      </g>
     </g>
    </g>
    <g id="ytick_2">
     <g id="line2d_8">
      <g>
       <use style="stroke:#000000;stroke-width:0.8;" x="67.379375" xlink:href="#mbb1d2d3a14" y="654.397839"/>
      </g>
     </g>
     <g id="text_9">
      <!-- 2600 -->
      <g transform="translate(24.749375 659.716746)scale(0.14 -0.14)">
       <use xlink:href="#DejaVuSans-50"/>
       <use x="63.623047" xlink:href="#DejaVuSans-54"/>
       <use x="127.246094" xlink:href="#DejaVuSans-48"/>
       <use x="190.869141" xlink:href="#DejaVuSans-48"/>
      </g>
     </g>
    </g>
    <g id="ytick_3">
     <g id="line2d_9">
      <g>
       <use style="stroke:#000000;stroke-width:0.8;" x="67.379375" xlink:href="#mbb1d2d3a14" y="542.07888"/>
      </g>
     </g>
     <g id="text_10">
      <!-- 2800 -->
      <g transform="translate(24.749375 547.397786)scale(0.14 -0.14)">
       <use xlink:href="#DejaVuSans-50"/>
       <use x="63.623047" xlink:href="#DejaVuSans-56"/>
       <use x="127.246094" xlink:href="#DejaVuSans-48"/>
       <use x="190.869141" xlink:href="#DejaVuSans-48"/>
      </g>
     </g>
    </g>
    <g id="ytick_4">
     <g id="line2d_10">
      <g>
       <use style="stroke:#000000;stroke-width:0.8;" x="67.379375" xlink:href="#mbb1d2d3a14" y="429.759921"/>
      </g>
     </g>
     <g id="text_11">
      <!-- 3000 -->
      <g transform="translate(24.749375 435.078827)scale(0.14 -0.14)">
       <use xlink:href="#DejaVuSans-51"/>
       <use x="63.623047" xlink:href="#DejaVuSans-48"/>
       <use x="127.246094" xlink:href="#DejaVuSans-48"/>
       <use x="190.869141" xlink:href="#DejaVuSans-48"/>
      </g>
     </g>
    </g>
    <g id="ytick_5">
     <g id="line2d_11">
      <g>
       <use style="stroke:#000000;stroke-width:0.8;" x="67.379375" xlink:href="#mbb1d2d3a14" y="317.440962"/>
      </g>
     </g>
     <g id="text_12">
      <!-- 3200 -->
      <g transform="translate(24.749375 322.759868)scale(0.14 -0.14)">
       <use xlink:href="#DejaVuSans-51"/>
       <use x="63.623047" xlink:href="#DejaVuSans-50"/>
       <use x="127.246094" xlink:href="#DejaVuSans-48"/>
       <use x="190.869141" xlink:href="#DejaVuSans-48"/>
      </g>
     </g>
    </g>
    <g id="ytick_6">
     <g id="line2d_12">
      <g>
       <use style="stroke:#000000;stroke-width:0.8;" x="67.379375" xlink:href="#mbb1d2d3a14" y="205.122002"/>
      </g>
     </g>
     <g id="text_13">
      <!-- 3400 -->
      <g transform="translate(24.749375 210.440909)scale(0.14 -0.14)">
       <use xlink:href="#DejaVuSans-51"/>
       <use x="63.623047" xlink:href="#DejaVuSans-52"/>
       <use x="127.246094" xlink:href="#DejaVuSans-48"/>
       <use x="190.869141" xlink:href="#DejaVuSans-48"/>
      </g>
     </g>
    </g>
    <g id="ytick_7">
     <g id="line2d_13">
      <g>
       <use style="stroke:#000000;stroke-width:0.8;" x="67.379375" xlink:href="#mbb1d2d3a14" y="92.803043"/>
      </g>
     </g>
     <g id="text_14">
      <!-- 3600 -->
      <g transform="translate(24.749375 98.121949)scale(0.14 -0.14)">
       <use xlink:href="#DejaVuSans-51"/>
       <use x="63.623047" xlink:href="#DejaVuSans-54"/>
       <use x="127.246094" xlink:href="#DejaVuSans-48"/>
       <use x="190.869141" xlink:href="#DejaVuSans-48"/>
      </g>
     </g>
    </g>
    <g id="text_15">
     <!-- Price -->
     <defs>
      <path d="M 19.671875 64.796875 
L 19.671875 37.40625 
L 32.078125 37.40625 
Q 38.96875 37.40625 42.71875 40.96875 
Q 46.484375 44.53125 46.484375 51.125 
Q 46.484375 57.671875 42.71875 61.234375 
Q 38.96875 64.796875 32.078125 64.796875 
z
M 9.8125 72.90625 
L 32.078125 72.90625 
Q 44.34375 72.90625 50.609375 67.359375 
Q 56.890625 61.8125 56.890625 51.125 
Q 56.890625 40.328125 50.609375 34.8125 
Q 44.34375 29.296875 32.078125 29.296875 
L 19.671875 29.296875 
L 19.671875 0 
L 9.8125 0 
z
" id="DejaVuSans-80"/>
      <path d="M 41.109375 46.296875 
Q 39.59375 47.171875 37.8125 47.578125 
Q 36.03125 48 33.890625 48 
Q 26.265625 48 22.1875 43.046875 
Q 18.109375 38.09375 18.109375 28.8125 
L 18.109375 0 
L 9.078125 0 
L 9.078125 54.6875 
L 18.109375 54.6875 
L 18.109375 46.1875 
Q 20.953125 51.171875 25.484375 53.578125 
Q 30.03125 56 36.53125 56 
Q 37.453125 56 38.578125 55.875 
Q 39.703125 55.765625 41.0625 55.515625 
z
" id="DejaVuSans-114"/>
      <path d="M 9.421875 54.6875 
L 18.40625 54.6875 
L 18.40625 0 
L 9.421875 0 
z
M 9.421875 75.984375 
L 18.40625 75.984375 
L 18.40625 64.59375 
L 9.421875 64.59375 
z
" id="DejaVuSans-105"/>
      <path d="M 48.78125 52.59375 
L 48.78125 44.1875 
Q 44.96875 46.296875 41.140625 47.34375 
Q 37.3125 48.390625 33.40625 48.390625 
Q 24.65625 48.390625 19.8125 42.84375 
Q 14.984375 37.3125 14.984375 27.296875 
Q 14.984375 17.28125 19.8125 11.734375 
Q 24.65625 6.203125 33.40625 6.203125 
Q 37.3125 6.203125 41.140625 7.25 
Q 44.96875 8.296875 48.78125 10.40625 
L 48.78125 2.09375 
Q 45.015625 0.34375 40.984375 -0.53125 
Q 36.96875 -1.421875 32.421875 -1.421875 
Q 20.0625 -1.421875 12.78125 6.34375 
Q 5.515625 14.109375 5.515625 27.296875 
Q 5.515625 40.671875 12.859375 48.328125 
Q 20.21875 56 33.015625 56 
Q 37.15625 56 41.109375 55.140625 
Q 45.0625 54.296875 48.78125 52.59375 
z
" id="DejaVuSans-99"/>
     </defs>
     <g transform="translate(17.837813 445.561)rotate(-90)scale(0.14 -0.14)">
      <use xlink:href="#DejaVuSans-80"/>
      <use x="60.287109" xlink:href="#DejaVuSans-114"/>
      <use x="101.400391" xlink:href="#DejaVuSans-105"/>
      <use x="129.183594" xlink:href="#DejaVuSans-99"/>
      <use x="184.164062" xlink:href="#DejaVuSans-101"/>
     </g>
    </g>
   </g>
   <g id="line2d_14">
    <defs>
     <path d="M 0 3 
C 0.795609 3 1.55874 2.683901 2.12132 2.12132 
C 2.683901 1.55874 3 0.795609 3 0 
C 3 -0.795609 2.683901 -1.55874 2.12132 -2.12132 
C 1.55874 -2.683901 0.795609 -3 0 -3 
C -0.795609 -3 -1.55874 -2.683901 -2.12132 -2.12132 
C -2.683901 -1.55874 -3 -0.795609 -3 0 
C -3 0.795609 -2.683901 1.55874 -2.12132 2.12132 
C -1.55874 2.683901 -0.795609 3 0 3 
z
" id="ma379b5dbaa" style="stroke:#bfbf00;"/>
    </defs>
    <g clip-path="url(#p00e83aa437)">
     <use style="fill:#bfbf00;stroke:#bfbf00;" x="114.602756" xlink:href="#ma379b5dbaa" y="582.305915"/>
     <use style="fill:#bfbf00;stroke:#bfbf00;" x="144.015242" xlink:href="#ma379b5dbaa" y="622.892371"/>
     <use style="fill:#bfbf00;stroke:#bfbf00;" x="153.819404" xlink:href="#ma379b5dbaa" y="631.232054"/>
     <use style="fill:#bfbf00;stroke:#bfbf00;" x="166.89162" xlink:href="#ma379b5dbaa" y="585.287984"/>
     <use style="fill:#bfbf00;stroke:#bfbf00;" x="193.036053" xlink:href="#ma379b5dbaa" y="597.35104"/>
     <use style="fill:#bfbf00;stroke:#bfbf00;" x="212.644377" xlink:href="#ma379b5dbaa" y="636.112313"/>
     <use style="fill:#bfbf00;stroke:#bfbf00;" x="242.056863" xlink:href="#ma379b5dbaa" y="635.820283"/>
     <use style="fill:#bfbf00;stroke:#bfbf00;" x="278.005458" xlink:href="#ma379b5dbaa" y="794.178784"/>
     <use style="fill:#bfbf00;stroke:#bfbf00;" x="297.613782" xlink:href="#ma379b5dbaa" y="739.822024"/>
     <use style="fill:#bfbf00;stroke:#bfbf00;" x="320.49016" xlink:href="#ma379b5dbaa" y="664.163973"/>
     <use style="fill:#bfbf00;stroke:#bfbf00;" x="336.83043" xlink:href="#ma379b5dbaa" y="635.921371"/>
     <use style="fill:#bfbf00;stroke:#bfbf00;" x="353.1707" xlink:href="#ma379b5dbaa" y="631.934047"/>
     <use style="fill:#bfbf00;stroke:#bfbf00;" x="376.047079" xlink:href="#ma379b5dbaa" y="594.840711"/>
     <use style="fill:#bfbf00;stroke:#bfbf00;" x="405.459565" xlink:href="#ma379b5dbaa" y="556.186141"/>
     <use style="fill:#bfbf00;stroke:#bfbf00;" x="421.799835" xlink:href="#ma379b5dbaa" y="550.789215"/>
     <use style="fill:#bfbf00;stroke:#bfbf00;" x="441.408159" xlink:href="#ma379b5dbaa" y="574.050472"/>
     <use style="fill:#bfbf00;stroke:#bfbf00;" x="467.552592" xlink:href="#ma379b5dbaa" y="528.471438"/>
     <use style="fill:#bfbf00;stroke:#bfbf00;" x="477.356754" xlink:href="#ma379b5dbaa" y="542.999896"/>
     <use style="fill:#bfbf00;stroke:#bfbf00;" x="483.892862" xlink:href="#ma379b5dbaa" y="539.063116"/>
     <use style="fill:#bfbf00;stroke:#bfbf00;" x="513.305348" xlink:href="#ma379b5dbaa" y="498.162167"/>
     <use style="fill:#bfbf00;stroke:#bfbf00;" x="532.913672" xlink:href="#ma379b5dbaa" y="485.666683"/>
     <use style="fill:#bfbf00;stroke:#bfbf00;" x="549.253942" xlink:href="#ma379b5dbaa" y="471.222465"/>
     <use style="fill:#bfbf00;stroke:#bfbf00;" x="565.594213" xlink:href="#ma379b5dbaa" y="476.08026"/>
     <use style="fill:#bfbf00;stroke:#bfbf00;" x="581.934483" xlink:href="#ma379b5dbaa" y="502.362896"/>
     <use style="fill:#bfbf00;stroke:#bfbf00;" x="588.470591" xlink:href="#ma379b5dbaa" y="535.41275"/>
     <use style="fill:#bfbf00;stroke:#bfbf00;" x="604.810861" xlink:href="#ma379b5dbaa" y="519.485921"/>
     <use style="fill:#bfbf00;stroke:#bfbf00;" x="634.223347" xlink:href="#ma379b5dbaa" y="573.275471"/>
     <use style="fill:#bfbf00;stroke:#bfbf00;" x="657.099725" xlink:href="#ma379b5dbaa" y="497.241152"/>
     <use style="fill:#bfbf00;stroke:#bfbf00;" x="663.635834" xlink:href="#ma379b5dbaa" y="493.231365"/>
     <use style="fill:#bfbf00;stroke:#bfbf00;" x="689.780266" xlink:href="#ma379b5dbaa" y="478.180624"/>
     <use style="fill:#bfbf00;stroke:#bfbf00;" x="712.656644" xlink:href="#ma379b5dbaa" y="443.266276"/>
     <use style="fill:#bfbf00;stroke:#bfbf00;" x="742.06913" xlink:href="#ma379b5dbaa" y="442.895623"/>
     <use style="fill:#bfbf00;stroke:#bfbf00;" x="755.141347" xlink:href="#ma379b5dbaa" y="427.698868"/>
     <use style="fill:#bfbf00;stroke:#bfbf00;" x="778.017725" xlink:href="#ma379b5dbaa" y="516.953129"/>
     <use style="fill:#bfbf00;stroke:#bfbf00;" x="794.357995" xlink:href="#ma379b5dbaa" y="495.63499"/>
     <use style="fill:#bfbf00;stroke:#bfbf00;" x="800.894103" xlink:href="#ma379b5dbaa" y="519.278131"/>
     <use style="fill:#bfbf00;stroke:#bfbf00;" x="823.770481" xlink:href="#ma379b5dbaa" y="515.622149"/>
     <use style="fill:#bfbf00;stroke:#bfbf00;" x="843.378805" xlink:href="#ma379b5dbaa" y="482.398201"/>
     <use style="fill:#bfbf00;stroke:#bfbf00;" x="872.791292" xlink:href="#ma379b5dbaa" y="430.905574"/>
     <use style="fill:#bfbf00;stroke:#bfbf00;" x="892.399616" xlink:href="#ma379b5dbaa" y="448.517187"/>
     <use style="fill:#bfbf00;stroke:#bfbf00;" x="912.00794" xlink:href="#ma379b5dbaa" y="492.87756"/>
    </g>
   </g>
   <g id="line2d_15">
    <defs>
     <path d="M 0 3 
C 0.795609 3 1.55874 2.683901 2.12132 2.12132 
C 2.683901 1.55874 3 0.795609 3 0 
C 3 -0.795609 2.683901 -1.55874 2.12132 -2.12132 
C 1.55874 -2.683901 0.795609 -3 0 -3 
C -0.795609 -3 -1.55874 -2.683901 -2.12132 -2.12132 
C -2.683901 -1.55874 -3 -0.795609 -3 0 
C -3 0.795609 -2.683901 1.55874 -2.12132 2.12132 
C -1.55874 2.683901 -0.795609 3 0 3 
z
" id="m69f075148f" style="stroke:#0000ff;"/>
    </defs>
    <g clip-path="url(#p00e83aa437)">
     <use style="fill:#0000ff;stroke:#0000ff;" x="124.406918" xlink:href="#m69f075148f" y="536.50786"/>
     <use style="fill:#0000ff;stroke:#0000ff;" x="147.283296" xlink:href="#m69f075148f" y="595.110277"/>
     <use style="fill:#0000ff;stroke:#0000ff;" x="163.623566" xlink:href="#m69f075148f" y="575.566778"/>
     <use style="fill:#0000ff;stroke:#0000ff;" x="176.695782" xlink:href="#m69f075148f" y="534.278328"/>
     <use style="fill:#0000ff;stroke:#0000ff;" x="199.572161" xlink:href="#m69f075148f" y="577.869316"/>
     <use style="fill:#0000ff;stroke:#0000ff;" x="232.252701" xlink:href="#m69f075148f" y="547.487038"/>
     <use style="fill:#0000ff;stroke:#0000ff;" x="251.861025" xlink:href="#m69f075148f" y="625.717193"/>
     <use style="fill:#0000ff;stroke:#0000ff;" x="294.345728" xlink:href="#m69f075148f" y="704.924523"/>
     <use style="fill:#0000ff;stroke:#0000ff;" x="313.954052" xlink:href="#m69f075148f" y="656.284798"/>
     <use style="fill:#0000ff;stroke:#0000ff;" x="333.562376" xlink:href="#m69f075148f" y="614.687471"/>
     <use style="fill:#0000ff;stroke:#0000ff;" x="346.634592" xlink:href="#m69f075148f" y="618.02896"/>
     <use style="fill:#0000ff;stroke:#0000ff;" x="369.51097" xlink:href="#m69f075148f" y="577.066236"/>
     <use style="fill:#0000ff;stroke:#0000ff;" x="402.191511" xlink:href="#m69f075148f" y="550.67128"/>
     <use style="fill:#0000ff;stroke:#0000ff;" x="411.995673" xlink:href="#m69f075148f" y="544.263484"/>
     <use style="fill:#0000ff;stroke:#0000ff;" x="425.067889" xlink:href="#m69f075148f" y="540.006595"/>
     <use style="fill:#0000ff;stroke:#0000ff;" x="461.016483" xlink:href="#m69f075148f" y="523.579948"/>
     <use style="fill:#0000ff;stroke:#0000ff;" x="470.820646" xlink:href="#m69f075148f" y="511.258558"/>
     <use style="fill:#0000ff;stroke:#0000ff;" x="480.624808" xlink:href="#m69f075148f" y="531.71184"/>
     <use style="fill:#0000ff;stroke:#0000ff;" x="510.037294" xlink:href="#m69f075148f" y="488.294946"/>
     <use style="fill:#0000ff;stroke:#0000ff;" x="523.10951" xlink:href="#m69f075148f" y="481.757983"/>
     <use style="fill:#0000ff;stroke:#0000ff;" x="542.717834" xlink:href="#m69f075148f" y="467.004888"/>
     <use style="fill:#0000ff;stroke:#0000ff;" x="559.058104" xlink:href="#m69f075148f" y="460.181511"/>
     <use style="fill:#0000ff;stroke:#0000ff;" x="568.862267" xlink:href="#m69f075148f" y="460.288214"/>
     <use style="fill:#0000ff;stroke:#0000ff;" x="585.202537" xlink:href="#m69f075148f" y="496.365064"/>
     <use style="fill:#0000ff;stroke:#0000ff;" x="598.274753" xlink:href="#m69f075148f" y="499.217965"/>
     <use style="fill:#0000ff;stroke:#0000ff;" x="608.078915" xlink:href="#m69f075148f" y="505.934639"/>
     <use style="fill:#0000ff;stroke:#0000ff;" x="650.563617" xlink:href="#m69f075148f" y="493.371763"/>
     <use style="fill:#0000ff;stroke:#0000ff;" x="660.36778" xlink:href="#m69f075148f" y="490.614333"/>
     <use style="fill:#0000ff;stroke:#0000ff;" x="676.70805" xlink:href="#m69f075148f" y="455.492194"/>
     <use style="fill:#0000ff;stroke:#0000ff;" x="706.120536" xlink:href="#m69f075148f" y="432.107387"/>
     <use style="fill:#0000ff;stroke:#0000ff;" x="728.996914" xlink:href="#m69f075148f" y="421.729115"/>
     <use style="fill:#0000ff;stroke:#0000ff;" x="751.873292" xlink:href="#m69f075148f" y="418.775127"/>
     <use style="fill:#0000ff;stroke:#0000ff;" x="758.409401" xlink:href="#m69f075148f" y="415.237079"/>
     <use style="fill:#0000ff;stroke:#0000ff;" x="787.821887" xlink:href="#m69f075148f" y="464.528255"/>
     <use style="fill:#0000ff;stroke:#0000ff;" x="797.626049" xlink:href="#m69f075148f" y="471.138225"/>
     <use style="fill:#0000ff;stroke:#0000ff;" x="817.234373" xlink:href="#m69f075148f" y="472.19964"/>
     <use style="fill:#0000ff;stroke:#0000ff;" x="840.110751" xlink:href="#m69f075148f" y="471.059602"/>
     <use style="fill:#0000ff;stroke:#0000ff;" x="866.255184" xlink:href="#m69f075148f" y="424.385459"/>
     <use style="fill:#0000ff;stroke:#0000ff;" x="882.595454" xlink:href="#m69f075148f" y="425.946692"/>
     <use style="fill:#0000ff;stroke:#0000ff;" x="895.66767" xlink:href="#m69f075148f" y="438.25685"/>
     <use style="fill:#0000ff;stroke:#0000ff;" x="918.544048" xlink:href="#m69f075148f" y="456.710855"/>
    </g>
   </g>
   <g id="line2d_16">
    <path clip-path="url(#p00e83aa437)" d="M 108.066648 657.171499 
L 921.812102 438.715425 
" style="fill:none;stroke:#bfbf00;stroke-dasharray:5.55,2.4;stroke-dashoffset:0;stroke-width:1.5;"/>
   </g>
   <g id="line2d_17">
    <path clip-path="url(#p00e83aa437)" d="M 108.066648 614.205127 
L 921.812102 417.567021 
" style="fill:none;stroke:#0000ff;stroke-dasharray:5.55,2.4;stroke-dashoffset:0;stroke-width:1.5;"/>
   </g>
   <g id="line2d_18">
    <path clip-path="url(#p00e83aa437)" d="M 108.066648 496.960354 
L 111.334702 550.120918 
L 114.602756 582.305915 
L 117.87081 560.538501 
L 121.138864 569.71496 
L 124.406918 536.50786 
L 127.674972 536.906592 
L 130.943026 559.61187 
L 134.21108 560.173464 
L 137.479134 566.856443 
L 140.747188 575.387067 
L 144.015242 622.892371 
L 147.283296 595.110277 
L 150.55135 621.437841 
L 153.819404 631.232054 
L 157.087458 607.993261 
L 163.623566 575.566778 
L 166.89162 585.287984 
L 170.159674 576.723663 
L 173.427728 567.097928 
L 176.695782 534.278328 
L 179.963836 538.243188 
L 183.231891 552.743565 
L 186.499945 583.513344 
L 189.767999 585.782187 
L 193.036053 597.35104 
L 196.304107 581.278197 
L 199.572161 577.869316 
L 202.840215 603.444343 
L 206.108269 630.872633 
L 209.376323 626.357411 
L 212.644377 636.112313 
L 215.912431 613.148702 
L 219.180485 608.251595 
L 222.448539 573.646124 
L 225.716593 577.010076 
L 228.984647 564.447201 
L 232.252701 547.487038 
L 235.520755 598.204664 
L 238.788809 600.512819 
L 242.056863 635.820283 
L 245.324917 633.214484 
L 248.592971 633.742383 
L 251.861025 625.717193 
L 255.129079 626.014838 
L 258.397133 654.425919 
L 261.665187 684.757654 
L 264.933241 684.634103 
L 271.469349 728.854077 
L 274.737403 757.383093 
L 278.005458 794.178784 
L 281.273512 728.696831 
L 284.541566 716.830333 
L 287.80962 718.565661 
L 291.077674 706.710395 
L 294.345728 704.924523 
L 297.613782 739.822024 
L 300.881836 692.619981 
L 304.14989 682.651674 
L 307.417944 668.76905 
L 310.685998 662.844225 
L 313.954052 656.284798 
L 317.222106 656.498204 
L 320.49016 664.163973 
L 323.758214 648.613413 
L 327.026268 645.356163 
L 330.294322 634.20289 
L 333.562376 614.687471 
L 336.83043 635.921371 
L 340.098484 632.664121 
L 343.366538 630.625532 
L 346.634592 618.02896 
L 349.902646 629.771908 
L 353.1707 631.934047 
L 356.438754 608.880581 
L 359.706808 595.935821 
L 362.974862 594.571146 
L 366.242916 584.271497 
L 369.51097 577.066236 
L 372.779025 580.486348 
L 376.047079 594.840711 
L 382.583187 592.734731 
L 385.851241 573.118224 
L 389.119295 568.456988 
L 392.387349 572.55663 
L 395.655403 555.781793 
L 398.923457 553.445559 
L 402.191511 550.67128 
L 405.459565 556.186141 
L 408.727619 546.19537 
L 411.995673 544.263484 
L 415.263727 545.504608 
L 418.531781 546.358232 
L 421.799835 550.789215 
L 425.067889 540.006595 
L 428.335943 546.116747 
L 431.603997 547.891386 
L 434.872051 558.112412 
L 438.140105 570.759526 
L 441.408159 574.050472 
L 444.676213 551.457513 
L 447.944267 546.841204 
L 451.212321 535.946265 
L 454.480375 537.316556 
L 457.748429 529.454229 
L 461.016483 523.579948 
L 464.284537 523.787738 
L 467.552592 528.471438 
L 470.820646 511.258558 
L 474.0887 541.680148 
L 477.356754 542.999896 
L 480.624808 531.71184 
L 483.892862 539.063116 
L 487.160916 533.407856 
L 490.42897 522.760019 
L 493.697024 504.345326 
L 496.965078 504.317246 
L 503.501186 497.493869 
L 506.76924 489.996579 
L 510.037294 488.294946 
L 513.305348 498.162167 
L 516.573402 492.540603 
L 519.841456 492.478828 
L 523.10951 481.757983 
L 526.377564 482.785702 
L 529.645618 481.954541 
L 532.913672 485.666683 
L 536.181726 483.094579 
L 539.44978 481.44349 
L 542.717834 467.004888 
L 545.985888 470.615942 
L 549.253942 471.222465 
L 552.521996 463.523 
L 555.79005 461.753976 
L 559.058104 460.181511 
L 562.326158 472.592756 
L 565.594213 476.08026 
L 568.862267 460.288214 
L 572.130321 467.684417 
L 575.398375 494.876837 
L 578.666429 497.477021 
L 581.934483 502.362896 
L 585.202537 496.365064 
L 588.470591 535.41275 
L 591.738645 522.754403 
L 595.006699 513.460009 
L 598.274753 499.217965 
L 601.542807 508.647142 
L 604.810861 519.485921 
L 608.078915 505.934639 
L 611.346969 510.477941 
L 614.615023 529.589012 
L 617.883077 527.44372 
L 621.151131 540.736669 
L 624.419185 551.61476 
L 627.687239 548.335046 
L 630.955293 569.001735 
L 634.223347 573.275471 
L 637.491401 540.242465 
L 640.759455 527.393176 
L 644.027509 517.655122 
L 647.295563 500.891518 
L 650.563617 493.371763 
L 653.831671 493.938974 
L 657.099725 497.241152 
L 660.36778 490.614333 
L 663.635834 493.231365 
L 666.903888 491.720675 
L 670.171942 475.951093 
L 673.439996 471.059602 
L 676.70805 455.492194 
L 679.976104 457.581327 
L 683.244158 460.451076 
L 686.512212 476.158883 
L 689.780266 478.180624 
L 693.04832 471.924458 
L 696.316374 462.467202 
L 699.584428 449.792007 
L 702.852482 444.917364 
L 706.120536 432.107387 
L 709.38859 435.145615 
L 712.656644 443.266276 
L 715.924698 441.199607 
L 719.192752 433.651773 
L 722.460806 429.810464 
L 725.72886 422.026761 
L 728.996914 421.729115 
L 732.264968 427.491078 
L 735.533022 438.509568 
L 738.801076 432.506119 
L 742.06913 442.895623 
L 745.337184 438.166995 
L 748.605238 426.687997 
L 751.873292 418.775127 
L 755.141347 427.698868 
L 758.409401 415.237079 
L 761.677455 417.983278 
L 764.945509 422.358101 
L 768.213563 440.778411 
L 771.481617 455.840383 
L 774.749671 467.920287 
L 778.017725 516.953129 
L 781.285779 496.157274 
L 784.553833 494.916149 
L 787.821887 464.528255 
L 791.089941 475.445658 
L 794.357995 495.63499 
L 797.626049 471.138225 
L 800.894103 519.278131 
L 804.162157 515.346968 
L 807.430211 492.276654 
L 810.698265 472.637684 
L 813.966319 485.632987 
L 817.234373 472.19964 
L 820.502427 473.0308 
L 823.770481 515.622149 
L 827.038535 498.06108 
L 830.306589 503.238984 
L 833.574643 492.692234 
L 836.842697 472.1154 
L 840.110751 471.059602 
L 843.378805 482.398201 
L 846.646859 464.702349 
L 849.914914 443.238196 
L 853.182968 441.716274 
L 856.451022 441.873521 
L 859.719076 441.33439 
L 862.98713 429.237638 
L 866.255184 424.385459 
L 869.523238 425.609735 
L 872.791292 430.905574 
L 876.059346 426.558831 
L 879.3274 425.980388 
L 882.595454 425.946692 
L 885.863508 434.213368 
L 889.131562 434.37623 
L 892.399616 448.517187 
L 895.66767 438.25685 
L 898.935724 442.328412 
L 902.203778 451.218458 
L 905.471832 442.822616 
L 908.739886 463.31521 
L 912.00794 492.87756 
L 915.275994 479.949648 
L 918.544048 456.710855 
L 921.812102 464.135138 
L 921.812102 464.135138 
" style="fill:none;stroke:#000000;stroke-dasharray:5.55,2.4;stroke-dashoffset:0;stroke-width:1.5;"/>
   </g>
   <g id="line2d_19">
    <path clip-path="url(#p00e83aa437)" d="M 320.49016 664.151321 
L 921.812102 489.0779 
" style="fill:none;stroke:#008000;stroke-dasharray:5.55,2.4;stroke-dashoffset:0;stroke-width:1.5;"/>
   </g>
   <g id="line2d_20">
    <path clip-path="url(#p00e83aa437)" d="M 297.613782 739.877833 
L 921.812102 62.546966 
" style="fill:none;stroke:#008000;stroke-dasharray:5.55,2.4;stroke-dashoffset:0;stroke-width:1.5;"/>
   </g>
   <g id="line2d_21">
    <path clip-path="url(#p00e83aa437)" d="M 176.695782 534.225042 
L 921.812102 389.677698 
" style="fill:none;stroke:#ff0000;stroke-dasharray:5.55,2.4;stroke-dashoffset:0;stroke-width:1.5;"/>
   </g>
   <g id="line2d_22">
    <path clip-path="url(#p00e83aa437)" d="M 124.406918 536.400277 
L 921.812102 505.858256 
" style="fill:none;stroke:#ff0000;stroke-dasharray:5.55,2.4;stroke-dashoffset:0;stroke-width:1.5;"/>
   </g>
   <g id="patch_3">
    <path d="M 67.379375 830.760375 
L 67.379375 25.965375 
" style="fill:none;stroke:#000000;stroke-linecap:square;stroke-linejoin:miter;stroke-width:0.8;"/>
   </g>
   <g id="patch_4">
    <path d="M 962.499375 830.760375 
L 962.499375 25.965375 
" style="fill:none;stroke:#000000;stroke-linecap:square;stroke-linejoin:miter;stroke-width:0.8;"/>
   </g>
   <g id="patch_5">
    <path d="M 67.379375 830.760375 
L 962.499375 830.760375 
" style="fill:none;stroke:#000000;stroke-linecap:square;stroke-linejoin:miter;stroke-width:0.8;"/>
   </g>
   <g id="patch_6">
    <path d="M 67.379375 25.965375 
L 962.499375 25.965375 
" style="fill:none;stroke:#000000;stroke-linecap:square;stroke-linejoin:miter;stroke-width:0.8;"/>
   </g>
   <g id="text_16">
    <!-- Closing Price with Support/Resistance Trend Lines -->
    <defs>
     <path d="M 64.40625 67.28125 
L 64.40625 56.890625 
Q 59.421875 61.53125 53.78125 63.8125 
Q 48.140625 66.109375 41.796875 66.109375 
Q 29.296875 66.109375 22.65625 58.46875 
Q 16.015625 50.828125 16.015625 36.375 
Q 16.015625 21.96875 22.65625 14.328125 
Q 29.296875 6.6875 41.796875 6.6875 
Q 48.140625 6.6875 53.78125 8.984375 
Q 59.421875 11.28125 64.40625 15.921875 
L 64.40625 5.609375 
Q 59.234375 2.09375 53.4375 0.328125 
Q 47.65625 -1.421875 41.21875 -1.421875 
Q 24.65625 -1.421875 15.125 8.703125 
Q 5.609375 18.84375 5.609375 36.375 
Q 5.609375 53.953125 15.125 64.078125 
Q 24.65625 74.21875 41.21875 74.21875 
Q 47.75 74.21875 53.53125 72.484375 
Q 59.328125 70.75 64.40625 67.28125 
z
" id="DejaVuSans-67"/>
     <path d="M 9.421875 75.984375 
L 18.40625 75.984375 
L 18.40625 0 
L 9.421875 0 
z
" id="DejaVuSans-108"/>
     <path d="M 30.609375 48.390625 
Q 23.390625 48.390625 19.1875 42.75 
Q 14.984375 37.109375 14.984375 27.296875 
Q 14.984375 17.484375 19.15625 11.84375 
Q 23.34375 6.203125 30.609375 6.203125 
Q 37.796875 6.203125 41.984375 11.859375 
Q 46.1875 17.53125 46.1875 27.296875 
Q 46.1875 37.015625 41.984375 42.703125 
Q 37.796875 48.390625 30.609375 48.390625 
z
M 30.609375 56 
Q 42.328125 56 49.015625 48.375 
Q 55.71875 40.765625 55.71875 27.296875 
Q 55.71875 13.875 49.015625 6.21875 
Q 42.328125 -1.421875 30.609375 -1.421875 
Q 18.84375 -1.421875 12.171875 6.21875 
Q 5.515625 13.875 5.515625 27.296875 
Q 5.515625 40.765625 12.171875 48.375 
Q 18.84375 56 30.609375 56 
z
" id="DejaVuSans-111"/>
     <path d="M 44.28125 53.078125 
L 44.28125 44.578125 
Q 40.484375 46.53125 36.375 47.5 
Q 32.28125 48.484375 27.875 48.484375 
Q 21.1875 48.484375 17.84375 46.4375 
Q 14.5 44.390625 14.5 40.28125 
Q 14.5 37.15625 16.890625 35.375 
Q 19.28125 33.59375 26.515625 31.984375 
L 29.59375 31.296875 
Q 39.15625 29.25 43.1875 25.515625 
Q 47.21875 21.78125 47.21875 15.09375 
Q 47.21875 7.46875 41.1875 3.015625 
Q 35.15625 -1.421875 24.609375 -1.421875 
Q 20.21875 -1.421875 15.453125 -0.5625 
Q 10.6875 0.296875 5.421875 2 
L 5.421875 11.28125 
Q 10.40625 8.6875 15.234375 7.390625 
Q 20.0625 6.109375 24.8125 6.109375 
Q 31.15625 6.109375 34.5625 8.28125 
Q 37.984375 10.453125 37.984375 14.40625 
Q 37.984375 18.0625 35.515625 20.015625 
Q 33.0625 21.96875 24.703125 23.78125 
L 21.578125 24.515625 
Q 13.234375 26.265625 9.515625 29.90625 
Q 5.8125 33.546875 5.8125 39.890625 
Q 5.8125 47.609375 11.28125 51.796875 
Q 16.75 56 26.8125 56 
Q 31.78125 56 36.171875 55.265625 
Q 40.578125 54.546875 44.28125 53.078125 
z
" id="DejaVuSans-115"/>
     <path d="M 54.890625 33.015625 
L 54.890625 0 
L 45.90625 0 
L 45.90625 32.71875 
Q 45.90625 40.484375 42.875 44.328125 
Q 39.84375 48.1875 33.796875 48.1875 
Q 26.515625 48.1875 22.3125 43.546875 
Q 18.109375 38.921875 18.109375 30.90625 
L 18.109375 0 
L 9.078125 0 
L 9.078125 54.6875 
L 18.109375 54.6875 
L 18.109375 46.1875 
Q 21.34375 51.125 25.703125 53.5625 
Q 30.078125 56 35.796875 56 
Q 45.21875 56 50.046875 50.171875 
Q 54.890625 44.34375 54.890625 33.015625 
z
" id="DejaVuSans-110"/>
     <path d="M 45.40625 27.984375 
Q 45.40625 37.75 41.375 43.109375 
Q 37.359375 48.484375 30.078125 48.484375 
Q 22.859375 48.484375 18.828125 43.109375 
Q 14.796875 37.75 14.796875 27.984375 
Q 14.796875 18.265625 18.828125 12.890625 
Q 22.859375 7.515625 30.078125 7.515625 
Q 37.359375 7.515625 41.375 12.890625 
Q 45.40625 18.265625 45.40625 27.984375 
z
M 54.390625 6.78125 
Q 54.390625 -7.171875 48.1875 -13.984375 
Q 42 -20.796875 29.203125 -20.796875 
Q 24.46875 -20.796875 20.265625 -20.09375 
Q 16.0625 -19.390625 12.109375 -17.921875 
L 12.109375 -9.1875 
Q 16.0625 -11.328125 19.921875 -12.34375 
Q 23.78125 -13.375 27.78125 -13.375 
Q 36.625 -13.375 41.015625 -8.765625 
Q 45.40625 -4.15625 45.40625 5.171875 
L 45.40625 9.625 
Q 42.625 4.78125 38.28125 2.390625 
Q 33.9375 0 27.875 0 
Q 17.828125 0 11.671875 7.65625 
Q 5.515625 15.328125 5.515625 27.984375 
Q 5.515625 40.671875 11.671875 48.328125 
Q 17.828125 56 27.875 56 
Q 33.9375 56 38.28125 53.609375 
Q 42.625 51.21875 45.40625 46.390625 
L 45.40625 54.6875 
L 54.390625 54.6875 
z
" id="DejaVuSans-103"/>
     <path id="DejaVuSans-32"/>
     <path d="M 4.203125 54.6875 
L 13.1875 54.6875 
L 24.421875 12.015625 
L 35.59375 54.6875 
L 46.1875 54.6875 
L 57.421875 12.015625 
L 68.609375 54.6875 
L 77.59375 54.6875 
L 63.28125 0 
L 52.6875 0 
L 40.921875 44.828125 
L 29.109375 0 
L 18.5 0 
z
" id="DejaVuSans-119"/>
     <path d="M 54.890625 33.015625 
L 54.890625 0 
L 45.90625 0 
L 45.90625 32.71875 
Q 45.90625 40.484375 42.875 44.328125 
Q 39.84375 48.1875 33.796875 48.1875 
Q 26.515625 48.1875 22.3125 43.546875 
Q 18.109375 38.921875 18.109375 30.90625 
L 18.109375 0 
L 9.078125 0 
L 9.078125 75.984375 
L 18.109375 75.984375 
L 18.109375 46.1875 
Q 21.34375 51.125 25.703125 53.5625 
Q 30.078125 56 35.796875 56 
Q 45.21875 56 50.046875 50.171875 
Q 54.890625 44.34375 54.890625 33.015625 
z
" id="DejaVuSans-104"/>
     <path d="M 53.515625 70.515625 
L 53.515625 60.890625 
Q 47.90625 63.578125 42.921875 64.890625 
Q 37.9375 66.21875 33.296875 66.21875 
Q 25.25 66.21875 20.875 63.09375 
Q 16.5 59.96875 16.5 54.203125 
Q 16.5 49.359375 19.40625 46.890625 
Q 22.3125 44.4375 30.421875 42.921875 
L 36.375 41.703125 
Q 47.40625 39.59375 52.65625 34.296875 
Q 57.90625 29 57.90625 20.125 
Q 57.90625 9.515625 50.796875 4.046875 
Q 43.703125 -1.421875 29.984375 -1.421875 
Q 24.8125 -1.421875 18.96875 -0.25 
Q 13.140625 0.921875 6.890625 3.21875 
L 6.890625 13.375 
Q 12.890625 10.015625 18.65625 8.296875 
Q 24.421875 6.59375 29.984375 6.59375 
Q 38.421875 6.59375 43.015625 9.90625 
Q 47.609375 13.234375 47.609375 19.390625 
Q 47.609375 24.75 44.3125 27.78125 
Q 41.015625 30.8125 33.5 32.328125 
L 27.484375 33.5 
Q 16.453125 35.6875 11.515625 40.375 
Q 6.59375 45.0625 6.59375 53.421875 
Q 6.59375 63.09375 13.40625 68.65625 
Q 20.21875 74.21875 32.171875 74.21875 
Q 37.3125 74.21875 42.625 73.28125 
Q 47.953125 72.359375 53.515625 70.515625 
z
" id="DejaVuSans-83"/>
     <path d="M 8.5 21.578125 
L 8.5 54.6875 
L 17.484375 54.6875 
L 17.484375 21.921875 
Q 17.484375 14.15625 20.5 10.265625 
Q 23.53125 6.390625 29.59375 6.390625 
Q 36.859375 6.390625 41.078125 11.03125 
Q 45.3125 15.671875 45.3125 23.6875 
L 45.3125 54.6875 
L 54.296875 54.6875 
L 54.296875 0 
L 45.3125 0 
L 45.3125 8.40625 
Q 42.046875 3.421875 37.71875 1 
Q 33.40625 -1.421875 27.6875 -1.421875 
Q 18.265625 -1.421875 13.375 4.4375 
Q 8.5 10.296875 8.5 21.578125 
z
M 31.109375 56 
z
" id="DejaVuSans-117"/>
     <path d="M 18.109375 8.203125 
L 18.109375 -20.796875 
L 9.078125 -20.796875 
L 9.078125 54.6875 
L 18.109375 54.6875 
L 18.109375 46.390625 
Q 20.953125 51.265625 25.265625 53.625 
Q 29.59375 56 35.59375 56 
Q 45.5625 56 51.78125 48.09375 
Q 58.015625 40.1875 58.015625 27.296875 
Q 58.015625 14.40625 51.78125 6.484375 
Q 45.5625 -1.421875 35.59375 -1.421875 
Q 29.59375 -1.421875 25.265625 0.953125 
Q 20.953125 3.328125 18.109375 8.203125 
z
M 48.6875 27.296875 
Q 48.6875 37.203125 44.609375 42.84375 
Q 40.53125 48.484375 33.40625 48.484375 
Q 26.265625 48.484375 22.1875 42.84375 
Q 18.109375 37.203125 18.109375 27.296875 
Q 18.109375 17.390625 22.1875 11.75 
Q 26.265625 6.109375 33.40625 6.109375 
Q 40.53125 6.109375 44.609375 11.75 
Q 48.6875 17.390625 48.6875 27.296875 
z
" id="DejaVuSans-112"/>
     <path d="M 25.390625 72.90625 
L 33.6875 72.90625 
L 8.296875 -9.28125 
L 0 -9.28125 
z
" id="DejaVuSans-47"/>
     <path d="M 44.390625 34.1875 
Q 47.5625 33.109375 50.5625 29.59375 
Q 53.5625 26.078125 56.59375 19.921875 
L 66.609375 0 
L 56 0 
L 46.6875 18.703125 
Q 43.0625 26.03125 39.671875 28.421875 
Q 36.28125 30.8125 30.421875 30.8125 
L 19.671875 30.8125 
L 19.671875 0 
L 9.8125 0 
L 9.8125 72.90625 
L 32.078125 72.90625 
Q 44.578125 72.90625 50.734375 67.671875 
Q 56.890625 62.453125 56.890625 51.90625 
Q 56.890625 45.015625 53.6875 40.46875 
Q 50.484375 35.9375 44.390625 34.1875 
z
M 19.671875 64.796875 
L 19.671875 38.921875 
L 32.078125 38.921875 
Q 39.203125 38.921875 42.84375 42.21875 
Q 46.484375 45.515625 46.484375 51.90625 
Q 46.484375 58.296875 42.84375 61.546875 
Q 39.203125 64.796875 32.078125 64.796875 
z
" id="DejaVuSans-82"/>
     <path d="M -0.296875 72.90625 
L 61.375 72.90625 
L 61.375 64.59375 
L 35.5 64.59375 
L 35.5 0 
L 25.59375 0 
L 25.59375 64.59375 
L -0.296875 64.59375 
z
" id="DejaVuSans-84"/>
     <path d="M 45.40625 46.390625 
L 45.40625 75.984375 
L 54.390625 75.984375 
L 54.390625 0 
L 45.40625 0 
L 45.40625 8.203125 
Q 42.578125 3.328125 38.25 0.953125 
Q 33.9375 -1.421875 27.875 -1.421875 
Q 17.96875 -1.421875 11.734375 6.484375 
Q 5.515625 14.40625 5.515625 27.296875 
Q 5.515625 40.1875 11.734375 48.09375 
Q 17.96875 56 27.875 56 
Q 33.9375 56 38.25 53.625 
Q 42.578125 51.265625 45.40625 46.390625 
z
M 14.796875 27.296875 
Q 14.796875 17.390625 18.875 11.75 
Q 22.953125 6.109375 30.078125 6.109375 
Q 37.203125 6.109375 41.296875 11.75 
Q 45.40625 17.390625 45.40625 27.296875 
Q 45.40625 37.203125 41.296875 42.84375 
Q 37.203125 48.484375 30.078125 48.484375 
Q 22.953125 48.484375 18.875 42.84375 
Q 14.796875 37.203125 14.796875 27.296875 
z
" id="DejaVuSans-100"/>
     <path d="M 9.8125 72.90625 
L 19.671875 72.90625 
L 19.671875 8.296875 
L 55.171875 8.296875 
L 55.171875 0 
L 9.8125 0 
z
" id="DejaVuSans-76"/>
    </defs>
    <g transform="translate(304.48525 19.965375)scale(0.168 -0.168)">
     <use xlink:href="#DejaVuSans-67"/>
     <use x="69.824219" xlink:href="#DejaVuSans-108"/>
     <use x="97.607422" xlink:href="#DejaVuSans-111"/>
     <use x="158.789062" xlink:href="#DejaVuSans-115"/>
     <use x="210.888672" xlink:href="#DejaVuSans-105"/>
     <use x="238.671875" xlink:href="#DejaVuSans-110"/>
     <use x="302.050781" xlink:href="#DejaVuSans-103"/>
     <use x="365.527344" xlink:href="#DejaVuSans-32"/>
     <use x="397.314453" xlink:href="#DejaVuSans-80"/>
     <use x="457.601562" xlink:href="#DejaVuSans-114"/>
     <use x="498.714844" xlink:href="#DejaVuSans-105"/>
     <use x="526.498047" xlink:href="#DejaVuSans-99"/>
     <use x="581.478516" xlink:href="#DejaVuSans-101"/>
     <use x="643.001953" xlink:href="#DejaVuSans-32"/>
     <use x="674.789062" xlink:href="#DejaVuSans-119"/>
     <use x="756.576172" xlink:href="#DejaVuSans-105"/>
     <use x="784.359375" xlink:href="#DejaVuSans-116"/>
     <use x="823.568359" xlink:href="#DejaVuSans-104"/>
     <use x="886.947266" xlink:href="#DejaVuSans-32"/>
     <use x="918.734375" xlink:href="#DejaVuSans-83"/>
     <use x="982.210938" xlink:href="#DejaVuSans-117"/>
     <use x="1045.589844" xlink:href="#DejaVuSans-112"/>
     <use x="1109.066406" xlink:href="#DejaVuSans-112"/>
     <use x="1172.542969" xlink:href="#DejaVuSans-111"/>
     <use x="1233.724609" xlink:href="#DejaVuSans-114"/>
     <use x="1274.837891" xlink:href="#DejaVuSans-116"/>
     <use x="1314.046875" xlink:href="#DejaVuSans-47"/>
     <use x="1347.738281" xlink:href="#DejaVuSans-82"/>
     <use x="1417.158203" xlink:href="#DejaVuSans-101"/>
     <use x="1478.681641" xlink:href="#DejaVuSans-115"/>
     <use x="1530.78125" xlink:href="#DejaVuSans-105"/>
     <use x="1558.564453" xlink:href="#DejaVuSans-115"/>
     <use x="1610.664062" xlink:href="#DejaVuSans-116"/>
     <use x="1649.873047" xlink:href="#DejaVuSans-97"/>
     <use x="1711.152344" xlink:href="#DejaVuSans-110"/>
     <use x="1774.53125" xlink:href="#DejaVuSans-99"/>
     <use x="1829.511719" xlink:href="#DejaVuSans-101"/>
     <use x="1891.035156" xlink:href="#DejaVuSans-32"/>
     <use x="1922.822266" xlink:href="#DejaVuSans-84"/>
     <use x="1983.6875" xlink:href="#DejaVuSans-114"/>
     <use x="2024.769531" xlink:href="#DejaVuSans-101"/>
     <use x="2086.292969" xlink:href="#DejaVuSans-110"/>
     <use x="2149.671875" xlink:href="#DejaVuSans-100"/>
     <use x="2213.148438" xlink:href="#DejaVuSans-32"/>
     <use x="2244.935547" xlink:href="#DejaVuSans-76"/>
     <use x="2300.648438" xlink:href="#DejaVuSans-105"/>
     <use x="2328.431641" xlink:href="#DejaVuSans-110"/>
     <use x="2391.810547" xlink:href="#DejaVuSans-101"/>
     <use x="2453.333984" xlink:href="#DejaVuSans-115"/>
    </g>
   </g>
   <g id="legend_1">
    <g id="patch_7">
     <path d="M 77.179375 139.91225 
L 233.679688 139.91225 
Q 236.479688 139.91225 236.479688 137.11225 
L 236.479688 35.765375 
Q 236.479688 32.965375 233.679688 32.965375 
L 77.179375 32.965375 
Q 74.379375 32.965375 74.379375 35.765375 
L 74.379375 137.11225 
Q 74.379375 139.91225 77.179375 139.91225 
z
" style="fill:#ffffff;opacity:0.8;stroke:#cccccc;stroke-linejoin:miter;"/>
    </g>
    <g id="line2d_23">
     <path d="M 79.979375 44.303187 
L 107.979375 44.303187 
" style="fill:none;stroke:#bfbf00;stroke-dasharray:5.55,2.4;stroke-dashoffset:0;stroke-width:1.5;"/>
    </g>
    <g id="line2d_24"/>
    <g id="text_17">
     <!-- Avg. Support -->
     <defs>
      <path d="M 34.1875 63.1875 
L 20.796875 26.90625 
L 47.609375 26.90625 
z
M 28.609375 72.90625 
L 39.796875 72.90625 
L 67.578125 0 
L 57.328125 0 
L 50.6875 18.703125 
L 17.828125 18.703125 
L 11.1875 0 
L 0.78125 0 
z
" id="DejaVuSans-65"/>
      <path d="M 2.984375 54.6875 
L 12.5 54.6875 
L 29.59375 8.796875 
L 46.6875 54.6875 
L 56.203125 54.6875 
L 35.6875 0 
L 23.484375 0 
z
" id="DejaVuSans-118"/>
      <path d="M 10.6875 12.40625 
L 21 12.40625 
L 21 0 
L 10.6875 0 
z
" id="DejaVuSans-46"/>
     </defs>
     <g transform="translate(119.179375 49.203187)scale(0.14 -0.14)">
      <use xlink:href="#DejaVuSans-65"/>
      <use x="68.330078" xlink:href="#DejaVuSans-118"/>
      <use x="127.509766" xlink:href="#DejaVuSans-103"/>
      <use x="190.986328" xlink:href="#DejaVuSans-46"/>
      <use x="222.773438" xlink:href="#DejaVuSans-32"/>
      <use x="254.560547" xlink:href="#DejaVuSans-83"/>
      <use x="318.037109" xlink:href="#DejaVuSans-117"/>
      <use x="381.416016" xlink:href="#DejaVuSans-112"/>
      <use x="444.892578" xlink:href="#DejaVuSans-112"/>
      <use x="508.369141" xlink:href="#DejaVuSans-111"/>
      <use x="569.550781" xlink:href="#DejaVuSans-114"/>
      <use x="610.664062" xlink:href="#DejaVuSans-116"/>
     </g>
    </g>
    <g id="line2d_25">
     <path d="M 79.979375 64.852562 
L 107.979375 64.852562 
" style="fill:none;stroke:#0000ff;stroke-dasharray:5.55,2.4;stroke-dashoffset:0;stroke-width:1.5;"/>
    </g>
    <g id="line2d_26"/>
    <g id="text_18">
     <!-- Avg. Resistance -->
     <g transform="translate(119.179375 69.752562)scale(0.14 -0.14)">
      <use xlink:href="#DejaVuSans-65"/>
      <use x="68.330078" xlink:href="#DejaVuSans-118"/>
      <use x="127.509766" xlink:href="#DejaVuSans-103"/>
      <use x="190.986328" xlink:href="#DejaVuSans-46"/>
      <use x="222.773438" xlink:href="#DejaVuSans-32"/>
      <use x="254.560547" xlink:href="#DejaVuSans-82"/>
      <use x="323.980469" xlink:href="#DejaVuSans-101"/>
      <use x="385.503906" xlink:href="#DejaVuSans-115"/>
      <use x="437.603516" xlink:href="#DejaVuSans-105"/>
      <use x="465.386719" xlink:href="#DejaVuSans-115"/>
      <use x="517.486328" xlink:href="#DejaVuSans-116"/>
      <use x="556.695312" xlink:href="#DejaVuSans-97"/>
      <use x="617.974609" xlink:href="#DejaVuSans-110"/>
      <use x="681.353516" xlink:href="#DejaVuSans-99"/>
      <use x="736.333984" xlink:href="#DejaVuSans-101"/>
     </g>
    </g>
    <g id="line2d_27">
     <path d="M 79.979375 85.401937 
L 107.979375 85.401937 
" style="fill:none;stroke:#000000;stroke-dasharray:5.55,2.4;stroke-dashoffset:0;stroke-width:1.5;"/>
    </g>
    <g id="line2d_28"/>
    <g id="text_19">
     <!-- Close Price -->
     <g transform="translate(119.179375 90.301937)scale(0.14 -0.14)">
      <use xlink:href="#DejaVuSans-67"/>
      <use x="69.824219" xlink:href="#DejaVuSans-108"/>
      <use x="97.607422" xlink:href="#DejaVuSans-111"/>
      <use x="158.789062" xlink:href="#DejaVuSans-115"/>
      <use x="210.888672" xlink:href="#DejaVuSans-101"/>
      <use x="272.412109" xlink:href="#DejaVuSans-32"/>
      <use x="304.199219" xlink:href="#DejaVuSans-80"/>
      <use x="364.486328" xlink:href="#DejaVuSans-114"/>
      <use x="405.599609" xlink:href="#DejaVuSans-105"/>
      <use x="433.382812" xlink:href="#DejaVuSans-99"/>
      <use x="488.363281" xlink:href="#DejaVuSans-101"/>
     </g>
    </g>
    <g id="line2d_29">
     <path d="M 79.979375 105.951312 
L 107.979375 105.951312 
" style="fill:none;stroke:#008000;stroke-dasharray:5.55,2.4;stroke-dashoffset:0;stroke-width:1.5;"/>
    </g>
    <g id="line2d_30"/>
    <g id="text_20">
     <!-- Support -->
     <g transform="translate(119.179375 110.851312)scale(0.14 -0.14)">
      <use xlink:href="#DejaVuSans-83"/>
      <use x="63.476562" xlink:href="#DejaVuSans-117"/>
      <use x="126.855469" xlink:href="#DejaVuSans-112"/>
      <use x="190.332031" xlink:href="#DejaVuSans-112"/>
      <use x="253.808594" xlink:href="#DejaVuSans-111"/>
      <use x="314.990234" xlink:href="#DejaVuSans-114"/>
      <use x="356.103516" xlink:href="#DejaVuSans-116"/>
     </g>
    </g>
    <g id="line2d_31">
     <path d="M 79.979375 126.500687 
L 107.979375 126.500687 
" style="fill:none;stroke:#ff0000;stroke-dasharray:5.55,2.4;stroke-dashoffset:0;stroke-width:1.5;"/>
    </g>
    <g id="line2d_32"/>
    <g id="text_21">
     <!-- Resistance -->
     <g transform="translate(119.179375 131.400687)scale(0.14 -0.14)">
      <use xlink:href="#DejaVuSans-82"/>
      <use x="69.419922" xlink:href="#DejaVuSans-101"/>
      <use x="130.943359" xlink:href="#DejaVuSans-115"/>
      <use x="183.042969" xlink:href="#DejaVuSans-105"/>
      <use x="210.826172" xlink:href="#DejaVuSans-115"/>
      <use x="262.925781" xlink:href="#DejaVuSans-116"/>
      <use x="302.134766" xlink:href="#DejaVuSans-97"/>
      <use x="363.414062" xlink:href="#DejaVuSans-110"/>
      <use x="426.792969" xlink:href="#DejaVuSans-99"/>
      <use x="481.773438" xlink:href="#DejaVuSans-101"/>
     </g>
    </g>
   </g>
  </g>
 </g>
 <defs>
  <clipPath id="p00e83aa437">
   <rect height="804.795" width="895.12" x="67.379375" y="25.965375"/>
  </clipPath>
 </defs>
</svg>
